G04*
G04 #@! TF.GenerationSoftware,Altium Limited,Altium Designer,23.2.1 (34)*
G04*
G04 Layer_Physical_Order=2*
G04 Layer_Color=16711680*
%FSLAX44Y44*%
%MOMM*%
G71*
G04*
G04 #@! TF.SameCoordinates,24DDFF3C-4E40-4798-BE0C-4FAAD596E1F0*
G04*
G04*
G04 #@! TF.FilePolarity,Positive*
G04*
G01*
G75*
%ADD13R,0.7000X0.7000*%
%ADD14R,1.2000X0.9000*%
%ADD19C,0.5000*%
%ADD20O,2.0000X1.6000*%
%ADD21R,2.0000X1.6000*%
%ADD22C,0.6000*%
G36*
X115000Y121400D02*
X92000D01*
Y99400D01*
X115000D01*
Y93748D01*
X113730Y93121D01*
X112316Y94207D01*
X109752Y95269D01*
X107000Y95631D01*
X106270D01*
Y85000D01*
Y74369D01*
X107000D01*
X109752Y74731D01*
X112316Y75793D01*
X113730Y76879D01*
X115000Y76252D01*
Y5000D01*
X5000D01*
Y195000D01*
X115000D01*
Y121400D01*
D02*
G37*
%LPC*%
G36*
X103730Y95631D02*
X103000D01*
X100248Y95269D01*
X97684Y94207D01*
X95483Y92517D01*
X93793Y90316D01*
X92731Y87752D01*
X92536Y86270D01*
X103730D01*
Y95631D01*
D02*
G37*
G36*
Y83730D02*
X92536D01*
X92731Y82248D01*
X93793Y79685D01*
X95483Y77483D01*
X97684Y75793D01*
X100248Y74731D01*
X103000Y74369D01*
X103730D01*
Y83730D01*
D02*
G37*
G36*
X66270Y60470D02*
Y56270D01*
X70470D01*
X69697Y58138D01*
X68138Y59697D01*
X66270Y60470D01*
D02*
G37*
G36*
X63730D02*
X61862Y59697D01*
X60303Y58138D01*
X59530Y56270D01*
X63730D01*
Y60470D01*
D02*
G37*
G36*
X70470Y53730D02*
X66270D01*
Y49530D01*
X68138Y50303D01*
X69697Y51862D01*
X70470Y53730D01*
D02*
G37*
G36*
X63730D02*
X59530D01*
X60303Y51862D01*
X61862Y50303D01*
X63730Y49530D01*
Y53730D01*
D02*
G37*
%LPD*%
D13*
X150000Y70000D02*
D03*
Y56000D02*
D03*
D14*
Y124500D02*
D03*
Y145500D02*
D03*
D19*
Y70000D02*
Y124500D01*
X140000Y55000D02*
X149000D01*
X150000Y56000D01*
X130000Y65000D02*
X140000Y55000D01*
X130000Y65000D02*
Y75000D01*
X120000Y85000D02*
X130000Y75000D01*
X105000Y85000D02*
X120000D01*
X130000Y140000D02*
X135500Y145500D01*
X150000D01*
X130000Y120000D02*
Y140000D01*
X120400Y110400D02*
X130000Y120000D01*
X105000Y110400D02*
X120400D01*
D20*
X105000Y85000D02*
D03*
D21*
Y110400D02*
D03*
D22*
X65000Y55000D02*
D03*
M02*
