G04*
G04 #@! TF.GenerationSoftware,Altium Limited,Altium Designer,23.2.1 (34)*
G04*
G04 Layer_Color=65535*
%FSLAX44Y44*%
%MOMM*%
G71*
G04*
G04 #@! TF.SameCoordinates,24DDFF3C-4E40-4798-BE0C-4FAAD596E1F0*
G04*
G04*
G04 #@! TF.FilePolarity,Positive*
G04*
G01*
G75*
%ADD10C,0.2000*%
%ADD11C,0.2540*%
%ADD12R,1.4000X0.4000*%
D10*
X52000Y46000D02*
Y77000D01*
X38000D02*
X52000D01*
X38000Y46000D02*
Y77000D01*
Y46000D02*
X52000D01*
X35000Y111000D02*
Y149000D01*
Y111000D02*
X55000D01*
Y149000D01*
X35000D02*
X55000D01*
X75790Y85000D02*
X91030D01*
Y110400D01*
X75790D02*
X91030D01*
X75790Y123100D02*
X134210D01*
X75790Y72300D02*
Y123100D01*
Y72300D02*
X134210D01*
Y123100D01*
X24997Y26997D02*
X22998Y28996D01*
X18999D01*
X17000Y26997D01*
Y24997D01*
X18999Y22998D01*
X22998D01*
X24997Y20999D01*
Y18999D01*
X22998Y17000D01*
X18999D01*
X17000Y18999D01*
X28996Y28996D02*
Y17000D01*
X36994D01*
X40992Y28996D02*
X48990D01*
X44991D01*
Y17000D01*
X64984Y28996D02*
Y17000D01*
X70982D01*
X72982Y18999D01*
Y26997D01*
X70982Y28996D01*
X64984D01*
X76981Y17000D02*
X80979D01*
X78980D01*
Y24997D01*
X76981D01*
X86977Y17000D02*
X90976D01*
X88977D01*
Y28996D01*
X86977D01*
X62000Y110999D02*
X69997D01*
X65999Y114997D02*
Y107000D01*
X62000Y82000D02*
X69997D01*
D11*
X139290Y105320D02*
X144368D01*
X141829D01*
Y120555D01*
X139290Y118016D01*
X9843Y127382D02*
Y142618D01*
X17461D01*
X20000Y140078D01*
Y135000D01*
X17461Y132461D01*
X9843D01*
X14922D02*
X20000Y127382D01*
X25078D02*
X30157D01*
X27618D01*
Y142618D01*
X25078Y140078D01*
X87523Y147059D02*
X82444D01*
X84984D01*
Y134363D01*
X82444Y131824D01*
X79905D01*
X77366Y134363D01*
X92601Y131824D02*
X97679D01*
X95140D01*
Y147059D01*
X92601Y144520D01*
X9843Y72618D02*
Y57382D01*
X17461D01*
X20000Y59922D01*
Y70078D01*
X17461Y72618D01*
X9843D01*
X25078Y57382D02*
X30157D01*
X27618D01*
Y72618D01*
X25078Y70078D01*
D12*
X45000Y48000D02*
D03*
M02*
