G04*
G04 #@! TF.GenerationSoftware,Altium Limited,Altium Designer,23.2.1 (34)*
G04*
G04 Layer_Color=32896*
%FSLAX44Y44*%
%MOMM*%
G71*
G04*
G04 #@! TF.SameCoordinates,42A8F1EF-7107-4BB4-9A72-9FAECD8FE37F*
G04*
G04*
G04 #@! TF.FilePolarity,Positive*
G04*
G01*
G75*
%ADD11C,0.2000*%
%ADD12C,0.1524*%
%ADD14C,0.1270*%
D11*
X-31450Y150000D02*
G03*
X-31450Y150000I-1000J0D01*
G01*
X-50050Y195000D02*
G03*
X-50050Y195000I-1000J0D01*
G01*
X-96000Y240000D02*
G03*
X-96000Y240000I-1000J0D01*
G01*
X224000Y165000D02*
G03*
X224000Y165000I-1000J0D01*
G01*
X1000Y183000D02*
G03*
X1000Y183000I-1000J0D01*
G01*
X15000Y-84420D02*
G03*
X15000Y-84420I-1000J0D01*
G01*
D12*
X109760Y119185D02*
X113164D01*
X136836D02*
X140240D01*
Y166683D01*
X109760D02*
X113164D01*
X109760Y119185D02*
Y166683D01*
X136836D02*
X140240D01*
X148464Y259922D02*
Y270078D01*
X143386D01*
X141693Y268386D01*
Y265000D01*
X143386Y263307D01*
X148464D01*
X145078D02*
X141693Y259922D01*
X138307Y268386D02*
X136614Y270078D01*
X133229D01*
X131536Y268386D01*
Y266693D01*
X133229Y265000D01*
X131536Y263307D01*
Y261614D01*
X133229Y259922D01*
X136614D01*
X138307Y261614D01*
Y263307D01*
X136614Y265000D01*
X138307Y266693D01*
Y268386D01*
X136614Y265000D02*
X133229D01*
X110774Y294380D02*
Y304537D01*
X105696D01*
X104003Y302844D01*
Y299458D01*
X105696Y297766D01*
X110774D01*
X107388D02*
X104003Y294380D01*
X100617Y304537D02*
X93846D01*
Y302844D01*
X100617Y296073D01*
Y294380D01*
X35590Y224530D02*
Y234687D01*
X30512D01*
X28819Y232994D01*
Y229608D01*
X30512Y227916D01*
X35590D01*
X32204D02*
X28819Y224530D01*
X18662Y234687D02*
X22048Y232994D01*
X25433Y229608D01*
Y226223D01*
X23740Y224530D01*
X20355D01*
X18662Y226223D01*
Y227916D01*
X20355Y229608D01*
X25433D01*
X-98776Y-60458D02*
Y-50301D01*
X-103854D01*
X-105547Y-51994D01*
Y-55380D01*
X-103854Y-57072D01*
X-98776D01*
X-102162D02*
X-105547Y-60458D01*
X-115704Y-50301D02*
X-108933D01*
Y-55380D01*
X-112318Y-53687D01*
X-114011D01*
X-115704Y-55380D01*
Y-58765D01*
X-114011Y-60458D01*
X-110625D01*
X-108933Y-58765D01*
X-168886Y154922D02*
Y165078D01*
X-173964D01*
X-175657Y163386D01*
Y160000D01*
X-173964Y158307D01*
X-168886D01*
X-172272D02*
X-175657Y154922D01*
X-184121D02*
Y165078D01*
X-179043Y160000D01*
X-185814D01*
X-101536Y-7428D02*
Y2728D01*
X-106614D01*
X-108307Y1036D01*
Y-2350D01*
X-106614Y-4043D01*
X-101536D01*
X-104922D02*
X-108307Y-7428D01*
X-111693Y1036D02*
X-113386Y2728D01*
X-116771D01*
X-118464Y1036D01*
Y-657D01*
X-116771Y-2350D01*
X-115078D01*
X-116771D01*
X-118464Y-4043D01*
Y-5736D01*
X-116771Y-7428D01*
X-113386D01*
X-111693Y-5736D01*
X-176536Y-7428D02*
Y2728D01*
X-181614D01*
X-183307Y1036D01*
Y-2350D01*
X-181614Y-4043D01*
X-176536D01*
X-179922D02*
X-183307Y-7428D01*
X-193464D02*
X-186693D01*
X-193464Y-657D01*
Y1036D01*
X-191771Y2728D01*
X-188386D01*
X-186693Y1036D01*
X104922Y8229D02*
X115078D01*
Y13307D01*
X113386Y15000D01*
X110000D01*
X108307Y13307D01*
Y8229D01*
Y11614D02*
X104922Y15000D01*
Y18386D02*
Y21771D01*
Y20078D01*
X115078D01*
X113386Y18386D01*
X201771Y220078D02*
Y209922D01*
X195000D01*
X191614D02*
X188229D01*
X189922D01*
Y220078D01*
X191614Y218386D01*
X-80136Y230078D02*
Y219922D01*
X-85214D01*
X-86907Y221614D01*
Y228386D01*
X-85214Y230078D01*
X-80136D01*
X-90293Y228386D02*
X-91986Y230078D01*
X-95371D01*
X-97064Y228386D01*
Y226693D01*
X-95371Y225000D01*
X-93678D01*
X-95371D01*
X-97064Y223307D01*
Y221614D01*
X-95371Y219922D01*
X-91986D01*
X-90293Y221614D01*
X-106536Y175078D02*
Y164922D01*
X-111614D01*
X-113307Y166614D01*
Y173386D01*
X-111614Y175078D01*
X-106536D01*
X-123464Y164922D02*
X-116693D01*
X-123464Y171693D01*
Y173386D01*
X-121771Y175078D01*
X-118386D01*
X-116693Y173386D01*
X28986Y5833D02*
Y-4324D01*
X23908D01*
X22215Y-2631D01*
Y4140D01*
X23908Y5833D01*
X28986D01*
X18829Y-4324D02*
X15444D01*
X17136D01*
Y5833D01*
X18829Y4140D01*
X135078Y101319D02*
X136771Y103012D01*
X140157D01*
X141849Y101319D01*
Y94548D01*
X140157Y92855D01*
X136771D01*
X135078Y94548D01*
X131693Y92855D02*
Y103012D01*
X126614D01*
X124922Y101319D01*
Y97934D01*
X126614Y96241D01*
X131693D01*
X128307D02*
X124922Y92855D01*
X121536D02*
X118151D01*
X119843D01*
Y103012D01*
X121536Y101319D01*
X-156849Y209922D02*
X-158542Y208229D01*
X-161928D01*
X-163621Y209922D01*
Y216693D01*
X-161928Y218386D01*
X-158542D01*
X-156849Y216693D01*
X-151771Y211614D02*
X-148386D01*
X-146693Y213307D01*
Y218386D01*
X-151771D01*
X-153464Y216693D01*
X-151771Y215000D01*
X-146693D01*
X-143307Y221771D02*
Y211614D01*
X-138229D01*
X-136536Y213307D01*
Y216693D01*
X-138229Y218386D01*
X-143307D01*
X-133151Y209922D02*
X-131458Y208229D01*
X-128072D01*
X-126379Y209922D01*
Y211614D01*
X-128072Y213307D01*
X-129765D01*
X-128072D01*
X-126379Y215000D01*
Y216693D01*
X-128072Y218386D01*
X-131458D01*
X-133151Y216693D01*
X211849Y140078D02*
X213542Y141771D01*
X216928D01*
X218621Y140078D01*
Y133307D01*
X216928Y131614D01*
X213542D01*
X211849Y133307D01*
X206771Y138386D02*
X203386D01*
X201693Y136693D01*
Y131614D01*
X206771D01*
X208464Y133307D01*
X206771Y135000D01*
X201693D01*
X198307Y128229D02*
Y138386D01*
X193229D01*
X191536Y136693D01*
Y133307D01*
X193229Y131614D01*
X198307D01*
X181379D02*
X188150D01*
X181379Y138386D01*
Y140078D01*
X183072Y141771D01*
X186458D01*
X188150Y140078D01*
X50157Y165078D02*
X51849Y166771D01*
X55235D01*
X56928Y165078D01*
Y158307D01*
X55235Y156614D01*
X51849D01*
X50157Y158307D01*
X45078Y163386D02*
X41693D01*
X40000Y161693D01*
Y156614D01*
X45078D01*
X46771Y158307D01*
X45078Y160000D01*
X40000D01*
X36614Y153229D02*
Y163386D01*
X31536D01*
X29843Y161693D01*
Y158307D01*
X31536Y156614D01*
X36614D01*
X26458D02*
X23072D01*
X24765D01*
Y166771D01*
X26458Y165078D01*
X112803Y268386D02*
X114496Y270078D01*
X117881D01*
X119574Y268386D01*
Y261614D01*
X117881Y259922D01*
X114496D01*
X112803Y261614D01*
X109417Y270078D02*
X102646D01*
Y268386D01*
X109417Y261614D01*
Y259922D01*
X1895Y237820D02*
X3588Y239513D01*
X6973D01*
X8666Y237820D01*
Y231049D01*
X6973Y229356D01*
X3588D01*
X1895Y231049D01*
X-8262Y239513D02*
X-4876Y237820D01*
X-1491Y234434D01*
Y231049D01*
X-3183Y229356D01*
X-6569D01*
X-8262Y231049D01*
Y232742D01*
X-6569Y234434D01*
X-1491D01*
X-149997Y200228D02*
X-148304Y201921D01*
X-144919D01*
X-143226Y200228D01*
Y193457D01*
X-144919Y191764D01*
X-148304D01*
X-149997Y193457D01*
X-160154Y201921D02*
X-153383D01*
Y196842D01*
X-156768Y198535D01*
X-158461D01*
X-160154Y196842D01*
Y193457D01*
X-158461Y191764D01*
X-155076D01*
X-153383Y193457D01*
X161915Y47828D02*
X163608Y49521D01*
X166993D01*
X168686Y47828D01*
Y41057D01*
X166993Y39364D01*
X163608D01*
X161915Y41057D01*
X153451Y39364D02*
Y49521D01*
X158529Y44442D01*
X151758D01*
X211445Y122758D02*
X213138Y124451D01*
X216523D01*
X218216Y122758D01*
Y115987D01*
X216523Y114294D01*
X213138D01*
X211445Y115987D01*
X208059Y122758D02*
X206367Y124451D01*
X202981D01*
X201288Y122758D01*
Y121065D01*
X202981Y119372D01*
X204674D01*
X202981D01*
X201288Y117680D01*
Y115987D01*
X202981Y114294D01*
X206367D01*
X208059Y115987D01*
X188386Y58307D02*
X190078Y56614D01*
Y53229D01*
X188386Y51536D01*
X181614D01*
X179922Y53229D01*
Y56614D01*
X181614Y58307D01*
X179922Y68464D02*
Y61693D01*
X186693Y68464D01*
X188386D01*
X190078Y66771D01*
Y63386D01*
X188386Y61693D01*
X158105Y122758D02*
X159798Y124451D01*
X163183D01*
X164876Y122758D01*
Y115987D01*
X163183Y114294D01*
X159798D01*
X158105Y115987D01*
X154719Y114294D02*
X151334D01*
X153027D01*
Y124451D01*
X154719Y122758D01*
D14*
X-42000Y161000D02*
Y164750D01*
X-98000D02*
X-42000D01*
X-98000Y161000D02*
Y164750D01*
Y135250D02*
Y139000D01*
Y135250D02*
X-42000D01*
Y139000D01*
X-60600Y206000D02*
Y209750D01*
X-116600D02*
X-60600D01*
X-116600Y206000D02*
Y209750D01*
Y180250D02*
Y184000D01*
Y180250D02*
X-60600D01*
Y184000D01*
X-128800Y254000D02*
X-121200D01*
X-128800Y226000D02*
X-121200D01*
X191200Y151000D02*
X198800D01*
X191200Y179000D02*
X198800D01*
X14000Y151200D02*
Y158800D01*
X-14000Y151200D02*
Y158800D01*
X27800Y-67070D02*
Y-23770D01*
X2200Y-67070D02*
Y-23770D01*
X4300D01*
X25700D02*
X27800D01*
X2200Y-67070D02*
X4300D01*
X25700D02*
X27800D01*
M02*
