G04*
G04 #@! TF.GenerationSoftware,Altium Limited,Altium Designer,23.2.1 (34)*
G04*
G04 Layer_Color=128*
%FSLAX44Y44*%
%MOMM*%
G71*
G04*
G04 #@! TF.SameCoordinates,42A8F1EF-7107-4BB4-9A72-9FAECD8FE37F*
G04*
G04*
G04 #@! TF.FilePolarity,Positive*
G04*
G01*
G75*
%ADD17R,1.4500X1.1500*%
%ADD56R,1.7018X1.8796*%
%ADD57R,2.3300X1.5600*%
%ADD58R,1.6000X2.7000*%
%ADD59R,1.0400X1.0200*%
%ADD60R,1.2000X1.4700*%
%ADD61R,2.7000X1.6000*%
%ADD62R,1.0200X1.0400*%
%ADD63R,1.5000X2.1200*%
%ADD64R,1.1500X1.4500*%
D17*
X160000Y6110D02*
D03*
Y23890D02*
D03*
X185000Y98890D02*
D03*
Y81110D02*
D03*
X0Y196110D02*
D03*
Y213890D02*
D03*
X210000Y98890D02*
D03*
Y81110D02*
D03*
X160000Y98890D02*
D03*
Y81110D02*
D03*
D56*
X125000Y165000D02*
D03*
Y120867D02*
D03*
D57*
X-48600Y150000D02*
D03*
X-91400D02*
D03*
X-67200Y195000D02*
D03*
X-110000D02*
D03*
D58*
Y240000D02*
D03*
X-140000D02*
D03*
X180000Y165000D02*
D03*
X210000D02*
D03*
D59*
X149700Y245000D02*
D03*
X135000D02*
D03*
X-135000Y155000D02*
D03*
X-149700D02*
D03*
X-120000Y-75000D02*
D03*
X-105300D02*
D03*
X100300Y280000D02*
D03*
X115000D02*
D03*
D60*
X191400Y195000D02*
D03*
X208600D02*
D03*
D61*
X0Y140000D02*
D03*
Y170000D02*
D03*
D62*
X135000Y7650D02*
D03*
Y22350D02*
D03*
X-155000Y0D02*
D03*
Y-14700D02*
D03*
X-140000Y0D02*
D03*
Y-14700D02*
D03*
X25000Y210000D02*
D03*
Y195300D02*
D03*
D63*
X15000Y-24270D02*
D03*
Y-66570D02*
D03*
D64*
X-152780Y175000D02*
D03*
X-135000D02*
D03*
X97220Y245000D02*
D03*
X115000D02*
D03*
M02*
