G04*
G04 #@! TF.GenerationSoftware,Altium Limited,Altium Designer,23.2.1 (34)*
G04*
G04 Layer_Color=8388736*
%FSLAX44Y44*%
%MOMM*%
G71*
G04*
G04 #@! TF.SameCoordinates,42A8F1EF-7107-4BB4-9A72-9FAECD8FE37F*
G04*
G04*
G04 #@! TF.FilePolarity,Negative*
G04*
G01*
G75*
%ADD22R,1.0033X0.5588*%
%ADD27R,0.6760X2.2760*%
%ADD28R,1.5260X1.2260*%
%ADD29R,0.9904X0.3808*%
%ADD30R,0.4760X1.9260*%
%ADD31R,1.7010X0.9760*%
%ADD32R,1.7660X1.3760*%
%ADD33R,2.5760X5.1760*%
%ADD34C,17.8760*%
G04:AMPARAMS|DCode=35|XSize=1.546mm|YSize=0.5306mm|CornerRadius=0.0948mm|HoleSize=0mm|Usage=FLASHONLY|Rotation=180.000|XOffset=0mm|YOffset=0mm|HoleType=Round|Shape=RoundedRectangle|*
%AMROUNDEDRECTD35*
21,1,1.5460,0.3410,0,0,180.0*
21,1,1.3564,0.5306,0,0,180.0*
1,1,0.1897,-0.6782,0.1705*
1,1,0.1897,0.6782,0.1705*
1,1,0.1897,0.6782,-0.1705*
1,1,0.1897,-0.6782,-0.1705*
%
%ADD35ROUNDEDRECTD35*%
%ADD36R,1.8540X1.8540*%
%ADD37C,1.8540*%
%ADD38C,0.5000*%
%ADD39O,5.0760X2.5760*%
%ADD40O,4.5760X2.3260*%
%ADD41O,2.3260X4.5760*%
%ADD42C,0.5760*%
G36*
X103976Y87699D02*
X104002Y87697D01*
X104028Y87694D01*
X104054Y87689D01*
X104079Y87683D01*
X104104Y87676D01*
X104129Y87667D01*
X104153Y87657D01*
X104177Y87646D01*
X104200Y87633D01*
X104222Y87619D01*
X104244Y87605D01*
X104265Y87589D01*
X104285Y87572D01*
X104304Y87554D01*
X104322Y87535D01*
X104339Y87515D01*
X104354Y87494D01*
X104369Y87472D01*
X104383Y87450D01*
X104396Y87427D01*
X104407Y87403D01*
X104417Y87379D01*
X104425Y87354D01*
X104433Y87329D01*
X104439Y87304D01*
X104444Y87278D01*
X104447Y87252D01*
X104449Y87226D01*
X104450Y87200D01*
Y80800D01*
X104449Y80774D01*
X104447Y80748D01*
X104444Y80722D01*
X104439Y80696D01*
X104433Y80671D01*
X104425Y80646D01*
X104417Y80621D01*
X104407Y80597D01*
X104396Y80573D01*
X104383Y80550D01*
X104369Y80528D01*
X104354Y80506D01*
X104339Y80485D01*
X104322Y80465D01*
X104304Y80446D01*
X104285Y80428D01*
X104265Y80411D01*
X104244Y80395D01*
X104222Y80381D01*
X104200Y80367D01*
X104177Y80354D01*
X104153Y80343D01*
X104129Y80333D01*
X104104Y80324D01*
X104079Y80317D01*
X104054Y80311D01*
X104028Y80306D01*
X104002Y80303D01*
X103976Y80301D01*
X103950Y80300D01*
X101050D01*
X101024Y80301D01*
X100998Y80303D01*
X100972Y80306D01*
X100946Y80311D01*
X100921Y80317D01*
X100896Y80324D01*
X100871Y80333D01*
X100847Y80343D01*
X100823Y80354D01*
X100800Y80367D01*
X100778Y80381D01*
X100756Y80395D01*
X100735Y80411D01*
X100715Y80428D01*
X100696Y80446D01*
X100678Y80465D01*
X100661Y80485D01*
X100646Y80506D01*
X100631Y80528D01*
X100617Y80550D01*
X100604Y80573D01*
X100593Y80597D01*
X100583Y80621D01*
X100575Y80646D01*
X100567Y80671D01*
X100561Y80696D01*
X100556Y80722D01*
X100553Y80748D01*
X100551Y80774D01*
X100550Y80800D01*
Y87200D01*
X100551Y87226D01*
X100553Y87252D01*
X100556Y87278D01*
X100561Y87304D01*
X100567Y87329D01*
X100575Y87354D01*
X100583Y87379D01*
X100593Y87403D01*
X100604Y87427D01*
X100617Y87450D01*
X100631Y87472D01*
X100646Y87494D01*
X100661Y87515D01*
X100678Y87535D01*
X100696Y87554D01*
X100715Y87572D01*
X100735Y87589D01*
X100756Y87605D01*
X100778Y87619D01*
X100800Y87633D01*
X100823Y87646D01*
X100847Y87657D01*
X100871Y87667D01*
X100896Y87676D01*
X100921Y87683D01*
X100946Y87689D01*
X100972Y87694D01*
X100998Y87697D01*
X101024Y87699D01*
X101050Y87700D01*
X103950D01*
X103976Y87699D01*
D02*
G37*
G36*
X98976D02*
X99002Y87697D01*
X99028Y87694D01*
X99054Y87689D01*
X99079Y87683D01*
X99104Y87676D01*
X99129Y87667D01*
X99153Y87657D01*
X99177Y87646D01*
X99200Y87633D01*
X99222Y87619D01*
X99244Y87605D01*
X99265Y87589D01*
X99285Y87572D01*
X99304Y87554D01*
X99322Y87535D01*
X99339Y87515D01*
X99354Y87494D01*
X99369Y87472D01*
X99383Y87450D01*
X99396Y87427D01*
X99407Y87403D01*
X99417Y87379D01*
X99425Y87354D01*
X99433Y87329D01*
X99439Y87304D01*
X99444Y87278D01*
X99447Y87252D01*
X99449Y87226D01*
X99450Y87200D01*
Y80800D01*
X99449Y80774D01*
X99447Y80748D01*
X99444Y80722D01*
X99439Y80696D01*
X99433Y80671D01*
X99425Y80646D01*
X99417Y80621D01*
X99407Y80597D01*
X99396Y80573D01*
X99383Y80550D01*
X99369Y80528D01*
X99354Y80506D01*
X99339Y80485D01*
X99322Y80465D01*
X99304Y80446D01*
X99285Y80428D01*
X99265Y80411D01*
X99244Y80395D01*
X99222Y80381D01*
X99200Y80367D01*
X99177Y80354D01*
X99153Y80343D01*
X99129Y80333D01*
X99104Y80324D01*
X99079Y80317D01*
X99054Y80311D01*
X99028Y80306D01*
X99002Y80303D01*
X98976Y80301D01*
X98950Y80300D01*
X96050D01*
X96024Y80301D01*
X95998Y80303D01*
X95972Y80306D01*
X95946Y80311D01*
X95921Y80317D01*
X95896Y80324D01*
X95871Y80333D01*
X95847Y80343D01*
X95823Y80354D01*
X95800Y80367D01*
X95778Y80381D01*
X95756Y80395D01*
X95735Y80411D01*
X95716Y80428D01*
X95696Y80446D01*
X95678Y80465D01*
X95661Y80485D01*
X95646Y80506D01*
X95631Y80528D01*
X95617Y80550D01*
X95604Y80573D01*
X95593Y80597D01*
X95583Y80621D01*
X95575Y80646D01*
X95567Y80671D01*
X95561Y80696D01*
X95556Y80722D01*
X95553Y80748D01*
X95551Y80774D01*
X95550Y80800D01*
Y87200D01*
X95551Y87226D01*
X95553Y87252D01*
X95556Y87278D01*
X95561Y87304D01*
X95567Y87329D01*
X95575Y87354D01*
X95583Y87379D01*
X95593Y87403D01*
X95604Y87427D01*
X95617Y87450D01*
X95631Y87472D01*
X95646Y87494D01*
X95661Y87515D01*
X95678Y87535D01*
X95696Y87554D01*
X95716Y87572D01*
X95735Y87589D01*
X95756Y87605D01*
X95778Y87619D01*
X95800Y87633D01*
X95823Y87646D01*
X95847Y87657D01*
X95871Y87667D01*
X95896Y87676D01*
X95921Y87683D01*
X95946Y87689D01*
X95972Y87694D01*
X95998Y87697D01*
X96024Y87699D01*
X96050Y87700D01*
X98950D01*
X98976Y87699D01*
D02*
G37*
G36*
X93976D02*
X94002Y87697D01*
X94028Y87694D01*
X94054Y87689D01*
X94079Y87683D01*
X94104Y87676D01*
X94129Y87667D01*
X94153Y87657D01*
X94177Y87646D01*
X94200Y87633D01*
X94222Y87619D01*
X94244Y87605D01*
X94265Y87589D01*
X94285Y87572D01*
X94304Y87554D01*
X94322Y87535D01*
X94339Y87515D01*
X94354Y87494D01*
X94369Y87472D01*
X94383Y87450D01*
X94396Y87427D01*
X94407Y87403D01*
X94417Y87379D01*
X94425Y87354D01*
X94433Y87329D01*
X94439Y87304D01*
X94444Y87278D01*
X94447Y87252D01*
X94449Y87226D01*
X94450Y87200D01*
Y80800D01*
X94449Y80774D01*
X94447Y80748D01*
X94444Y80722D01*
X94439Y80696D01*
X94433Y80671D01*
X94425Y80646D01*
X94417Y80621D01*
X94407Y80597D01*
X94396Y80573D01*
X94383Y80550D01*
X94369Y80528D01*
X94354Y80506D01*
X94339Y80485D01*
X94322Y80465D01*
X94304Y80446D01*
X94285Y80428D01*
X94265Y80411D01*
X94244Y80395D01*
X94222Y80381D01*
X94200Y80367D01*
X94177Y80354D01*
X94153Y80343D01*
X94129Y80333D01*
X94104Y80324D01*
X94079Y80317D01*
X94054Y80311D01*
X94028Y80306D01*
X94002Y80303D01*
X93976Y80301D01*
X93950Y80300D01*
X91050D01*
X91024Y80301D01*
X90998Y80303D01*
X90972Y80306D01*
X90946Y80311D01*
X90921Y80317D01*
X90896Y80324D01*
X90871Y80333D01*
X90847Y80343D01*
X90823Y80354D01*
X90800Y80367D01*
X90778Y80381D01*
X90756Y80395D01*
X90735Y80411D01*
X90715Y80428D01*
X90696Y80446D01*
X90678Y80465D01*
X90661Y80485D01*
X90646Y80506D01*
X90631Y80528D01*
X90617Y80550D01*
X90604Y80573D01*
X90593Y80597D01*
X90583Y80621D01*
X90575Y80646D01*
X90567Y80671D01*
X90561Y80696D01*
X90556Y80722D01*
X90553Y80748D01*
X90551Y80774D01*
X90550Y80800D01*
Y87200D01*
X90551Y87226D01*
X90553Y87252D01*
X90556Y87278D01*
X90561Y87304D01*
X90567Y87329D01*
X90575Y87354D01*
X90583Y87379D01*
X90593Y87403D01*
X90604Y87427D01*
X90617Y87450D01*
X90631Y87472D01*
X90646Y87494D01*
X90661Y87515D01*
X90678Y87535D01*
X90696Y87554D01*
X90715Y87572D01*
X90735Y87589D01*
X90756Y87605D01*
X90778Y87619D01*
X90800Y87633D01*
X90823Y87646D01*
X90847Y87657D01*
X90871Y87667D01*
X90896Y87676D01*
X90921Y87683D01*
X90946Y87689D01*
X90972Y87694D01*
X90998Y87697D01*
X91024Y87699D01*
X91050Y87700D01*
X93950D01*
X93976Y87699D01*
D02*
G37*
G36*
X88976D02*
X89002Y87697D01*
X89028Y87694D01*
X89054Y87689D01*
X89079Y87683D01*
X89104Y87676D01*
X89129Y87667D01*
X89153Y87657D01*
X89177Y87646D01*
X89200Y87633D01*
X89222Y87619D01*
X89244Y87605D01*
X89265Y87589D01*
X89285Y87572D01*
X89304Y87554D01*
X89322Y87535D01*
X89339Y87515D01*
X89354Y87494D01*
X89369Y87472D01*
X89383Y87450D01*
X89396Y87427D01*
X89407Y87403D01*
X89417Y87379D01*
X89425Y87354D01*
X89433Y87329D01*
X89439Y87304D01*
X89444Y87278D01*
X89447Y87252D01*
X89449Y87226D01*
X89450Y87200D01*
Y80800D01*
X89449Y80774D01*
X89447Y80748D01*
X89444Y80722D01*
X89439Y80696D01*
X89433Y80671D01*
X89425Y80646D01*
X89417Y80621D01*
X89407Y80597D01*
X89396Y80573D01*
X89383Y80550D01*
X89369Y80528D01*
X89354Y80506D01*
X89339Y80485D01*
X89322Y80465D01*
X89304Y80446D01*
X89285Y80428D01*
X89265Y80411D01*
X89244Y80395D01*
X89222Y80381D01*
X89200Y80367D01*
X89177Y80354D01*
X89153Y80343D01*
X89129Y80333D01*
X89104Y80324D01*
X89079Y80317D01*
X89054Y80311D01*
X89028Y80306D01*
X89002Y80303D01*
X88976Y80301D01*
X88950Y80300D01*
X86050D01*
X86024Y80301D01*
X85998Y80303D01*
X85972Y80306D01*
X85946Y80311D01*
X85921Y80317D01*
X85896Y80324D01*
X85871Y80333D01*
X85847Y80343D01*
X85823Y80354D01*
X85800Y80367D01*
X85778Y80381D01*
X85756Y80395D01*
X85735Y80411D01*
X85715Y80428D01*
X85696Y80446D01*
X85678Y80465D01*
X85661Y80485D01*
X85646Y80506D01*
X85631Y80528D01*
X85617Y80550D01*
X85604Y80573D01*
X85593Y80597D01*
X85583Y80621D01*
X85575Y80646D01*
X85567Y80671D01*
X85561Y80696D01*
X85556Y80722D01*
X85553Y80748D01*
X85551Y80774D01*
X85550Y80800D01*
Y87200D01*
X85551Y87226D01*
X85553Y87252D01*
X85556Y87278D01*
X85561Y87304D01*
X85567Y87329D01*
X85575Y87354D01*
X85583Y87379D01*
X85593Y87403D01*
X85604Y87427D01*
X85617Y87450D01*
X85631Y87472D01*
X85646Y87494D01*
X85661Y87515D01*
X85678Y87535D01*
X85696Y87554D01*
X85715Y87572D01*
X85735Y87589D01*
X85756Y87605D01*
X85778Y87619D01*
X85800Y87633D01*
X85823Y87646D01*
X85847Y87657D01*
X85871Y87667D01*
X85896Y87676D01*
X85921Y87683D01*
X85946Y87689D01*
X85972Y87694D01*
X85998Y87697D01*
X86024Y87699D01*
X86050Y87700D01*
X88950D01*
X88976Y87699D01*
D02*
G37*
G36*
X83976D02*
X84002Y87697D01*
X84028Y87694D01*
X84054Y87689D01*
X84079Y87683D01*
X84104Y87676D01*
X84129Y87667D01*
X84153Y87657D01*
X84177Y87646D01*
X84200Y87633D01*
X84222Y87619D01*
X84244Y87605D01*
X84265Y87589D01*
X84285Y87572D01*
X84304Y87554D01*
X84322Y87535D01*
X84339Y87515D01*
X84354Y87494D01*
X84369Y87472D01*
X84383Y87450D01*
X84396Y87427D01*
X84407Y87403D01*
X84417Y87379D01*
X84425Y87354D01*
X84433Y87329D01*
X84439Y87304D01*
X84444Y87278D01*
X84447Y87252D01*
X84449Y87226D01*
X84450Y87200D01*
Y80800D01*
X84449Y80774D01*
X84447Y80748D01*
X84444Y80722D01*
X84439Y80696D01*
X84433Y80671D01*
X84425Y80646D01*
X84417Y80621D01*
X84407Y80597D01*
X84396Y80573D01*
X84383Y80550D01*
X84369Y80528D01*
X84354Y80506D01*
X84339Y80485D01*
X84322Y80465D01*
X84304Y80446D01*
X84285Y80428D01*
X84265Y80411D01*
X84244Y80395D01*
X84222Y80381D01*
X84200Y80367D01*
X84177Y80354D01*
X84153Y80343D01*
X84129Y80333D01*
X84104Y80324D01*
X84079Y80317D01*
X84054Y80311D01*
X84028Y80306D01*
X84002Y80303D01*
X83976Y80301D01*
X83950Y80300D01*
X81050D01*
X81024Y80301D01*
X80998Y80303D01*
X80972Y80306D01*
X80946Y80311D01*
X80921Y80317D01*
X80896Y80324D01*
X80871Y80333D01*
X80847Y80343D01*
X80823Y80354D01*
X80800Y80367D01*
X80778Y80381D01*
X80756Y80395D01*
X80735Y80411D01*
X80715Y80428D01*
X80696Y80446D01*
X80678Y80465D01*
X80661Y80485D01*
X80646Y80506D01*
X80631Y80528D01*
X80617Y80550D01*
X80604Y80573D01*
X80593Y80597D01*
X80583Y80621D01*
X80575Y80646D01*
X80567Y80671D01*
X80561Y80696D01*
X80556Y80722D01*
X80553Y80748D01*
X80551Y80774D01*
X80550Y80800D01*
Y87200D01*
X80551Y87226D01*
X80553Y87252D01*
X80556Y87278D01*
X80561Y87304D01*
X80567Y87329D01*
X80575Y87354D01*
X80583Y87379D01*
X80593Y87403D01*
X80604Y87427D01*
X80617Y87450D01*
X80631Y87472D01*
X80646Y87494D01*
X80661Y87515D01*
X80678Y87535D01*
X80696Y87554D01*
X80715Y87572D01*
X80735Y87589D01*
X80756Y87605D01*
X80778Y87619D01*
X80800Y87633D01*
X80823Y87646D01*
X80847Y87657D01*
X80871Y87667D01*
X80896Y87676D01*
X80921Y87683D01*
X80946Y87689D01*
X80972Y87694D01*
X80998Y87697D01*
X81024Y87699D01*
X81050Y87700D01*
X83950D01*
X83976Y87699D01*
D02*
G37*
G36*
X78976D02*
X79002Y87697D01*
X79028Y87694D01*
X79054Y87689D01*
X79079Y87683D01*
X79104Y87676D01*
X79129Y87667D01*
X79153Y87657D01*
X79177Y87646D01*
X79200Y87633D01*
X79222Y87619D01*
X79244Y87605D01*
X79265Y87589D01*
X79285Y87572D01*
X79303Y87554D01*
X79322Y87535D01*
X79339Y87515D01*
X79355Y87494D01*
X79369Y87472D01*
X79383Y87450D01*
X79395Y87427D01*
X79407Y87403D01*
X79417Y87379D01*
X79426Y87354D01*
X79433Y87329D01*
X79439Y87304D01*
X79444Y87278D01*
X79447Y87252D01*
X79449Y87226D01*
X79450Y87200D01*
Y80800D01*
X79449Y80774D01*
X79447Y80748D01*
X79444Y80722D01*
X79439Y80696D01*
X79433Y80671D01*
X79426Y80646D01*
X79417Y80621D01*
X79407Y80597D01*
X79395Y80573D01*
X79383Y80550D01*
X79369Y80528D01*
X79355Y80506D01*
X79339Y80485D01*
X79322Y80465D01*
X79303Y80446D01*
X79285Y80428D01*
X79265Y80411D01*
X79244Y80395D01*
X79222Y80381D01*
X79200Y80367D01*
X79177Y80354D01*
X79153Y80343D01*
X79129Y80333D01*
X79104Y80324D01*
X79079Y80317D01*
X79054Y80311D01*
X79028Y80306D01*
X79002Y80303D01*
X78976Y80301D01*
X78950Y80300D01*
X76050D01*
X76024Y80301D01*
X75998Y80303D01*
X75972Y80306D01*
X75946Y80311D01*
X75921Y80317D01*
X75896Y80324D01*
X75871Y80333D01*
X75847Y80343D01*
X75823Y80354D01*
X75800Y80367D01*
X75778Y80381D01*
X75756Y80395D01*
X75735Y80411D01*
X75715Y80428D01*
X75696Y80446D01*
X75678Y80465D01*
X75661Y80485D01*
X75645Y80506D01*
X75631Y80528D01*
X75617Y80550D01*
X75605Y80573D01*
X75593Y80597D01*
X75583Y80621D01*
X75574Y80646D01*
X75567Y80671D01*
X75561Y80696D01*
X75556Y80722D01*
X75553Y80748D01*
X75551Y80774D01*
X75550Y80800D01*
Y87200D01*
X75551Y87226D01*
X75553Y87252D01*
X75556Y87278D01*
X75561Y87304D01*
X75567Y87329D01*
X75574Y87354D01*
X75583Y87379D01*
X75593Y87403D01*
X75605Y87427D01*
X75617Y87450D01*
X75631Y87472D01*
X75645Y87494D01*
X75661Y87515D01*
X75678Y87535D01*
X75696Y87554D01*
X75715Y87572D01*
X75735Y87589D01*
X75756Y87605D01*
X75778Y87619D01*
X75800Y87633D01*
X75823Y87646D01*
X75847Y87657D01*
X75871Y87667D01*
X75896Y87676D01*
X75921Y87683D01*
X75946Y87689D01*
X75972Y87694D01*
X75998Y87697D01*
X76024Y87699D01*
X76050Y87700D01*
X78950D01*
X78976Y87699D01*
D02*
G37*
G36*
X73976D02*
X74002Y87697D01*
X74028Y87694D01*
X74054Y87689D01*
X74079Y87683D01*
X74104Y87676D01*
X74129Y87667D01*
X74153Y87657D01*
X74177Y87646D01*
X74200Y87633D01*
X74222Y87619D01*
X74244Y87605D01*
X74265Y87589D01*
X74285Y87572D01*
X74304Y87554D01*
X74322Y87535D01*
X74339Y87515D01*
X74355Y87494D01*
X74369Y87472D01*
X74383Y87450D01*
X74395Y87427D01*
X74407Y87403D01*
X74417Y87379D01*
X74426Y87354D01*
X74433Y87329D01*
X74439Y87304D01*
X74444Y87278D01*
X74447Y87252D01*
X74449Y87226D01*
X74450Y87200D01*
Y80800D01*
X74449Y80774D01*
X74447Y80748D01*
X74444Y80722D01*
X74439Y80696D01*
X74433Y80671D01*
X74426Y80646D01*
X74417Y80621D01*
X74407Y80597D01*
X74395Y80573D01*
X74383Y80550D01*
X74369Y80528D01*
X74355Y80506D01*
X74339Y80485D01*
X74322Y80465D01*
X74304Y80446D01*
X74285Y80428D01*
X74265Y80411D01*
X74244Y80395D01*
X74222Y80381D01*
X74200Y80367D01*
X74177Y80354D01*
X74153Y80343D01*
X74129Y80333D01*
X74104Y80324D01*
X74079Y80317D01*
X74054Y80311D01*
X74028Y80306D01*
X74002Y80303D01*
X73976Y80301D01*
X73950Y80300D01*
X71050D01*
X71024Y80301D01*
X70998Y80303D01*
X70972Y80306D01*
X70946Y80311D01*
X70921Y80317D01*
X70896Y80324D01*
X70871Y80333D01*
X70847Y80343D01*
X70823Y80354D01*
X70800Y80367D01*
X70778Y80381D01*
X70756Y80395D01*
X70735Y80411D01*
X70715Y80428D01*
X70697Y80446D01*
X70678Y80465D01*
X70661Y80485D01*
X70645Y80506D01*
X70631Y80528D01*
X70617Y80550D01*
X70605Y80573D01*
X70593Y80597D01*
X70583Y80621D01*
X70574Y80646D01*
X70567Y80671D01*
X70561Y80696D01*
X70556Y80722D01*
X70553Y80748D01*
X70551Y80774D01*
X70550Y80800D01*
Y87200D01*
X70551Y87226D01*
X70553Y87252D01*
X70556Y87278D01*
X70561Y87304D01*
X70567Y87329D01*
X70574Y87354D01*
X70583Y87379D01*
X70593Y87403D01*
X70605Y87427D01*
X70617Y87450D01*
X70631Y87472D01*
X70645Y87494D01*
X70661Y87515D01*
X70678Y87535D01*
X70697Y87554D01*
X70715Y87572D01*
X70735Y87589D01*
X70756Y87605D01*
X70778Y87619D01*
X70800Y87633D01*
X70823Y87646D01*
X70847Y87657D01*
X70871Y87667D01*
X70896Y87676D01*
X70921Y87683D01*
X70946Y87689D01*
X70972Y87694D01*
X70998Y87697D01*
X71024Y87699D01*
X71050Y87700D01*
X73950D01*
X73976Y87699D01*
D02*
G37*
G36*
X68976D02*
X69002Y87697D01*
X69028Y87694D01*
X69054Y87689D01*
X69079Y87683D01*
X69104Y87676D01*
X69129Y87667D01*
X69153Y87657D01*
X69177Y87646D01*
X69200Y87633D01*
X69222Y87619D01*
X69244Y87605D01*
X69265Y87589D01*
X69285Y87572D01*
X69304Y87554D01*
X69322Y87535D01*
X69339Y87515D01*
X69355Y87494D01*
X69369Y87472D01*
X69383Y87450D01*
X69395Y87427D01*
X69407Y87403D01*
X69417Y87379D01*
X69426Y87354D01*
X69433Y87329D01*
X69439Y87304D01*
X69444Y87278D01*
X69447Y87252D01*
X69449Y87226D01*
X69450Y87200D01*
Y80800D01*
X69449Y80774D01*
X69447Y80748D01*
X69444Y80722D01*
X69439Y80696D01*
X69433Y80671D01*
X69426Y80646D01*
X69417Y80621D01*
X69407Y80597D01*
X69395Y80573D01*
X69383Y80550D01*
X69369Y80528D01*
X69355Y80506D01*
X69339Y80485D01*
X69322Y80465D01*
X69304Y80446D01*
X69285Y80428D01*
X69265Y80411D01*
X69244Y80395D01*
X69222Y80381D01*
X69200Y80367D01*
X69177Y80354D01*
X69153Y80343D01*
X69129Y80333D01*
X69104Y80324D01*
X69079Y80317D01*
X69054Y80311D01*
X69028Y80306D01*
X69002Y80303D01*
X68976Y80301D01*
X68950Y80300D01*
X66050D01*
X66024Y80301D01*
X65998Y80303D01*
X65972Y80306D01*
X65946Y80311D01*
X65921Y80317D01*
X65896Y80324D01*
X65871Y80333D01*
X65847Y80343D01*
X65823Y80354D01*
X65800Y80367D01*
X65778Y80381D01*
X65756Y80395D01*
X65735Y80411D01*
X65715Y80428D01*
X65697Y80446D01*
X65678Y80465D01*
X65661Y80485D01*
X65645Y80506D01*
X65631Y80528D01*
X65617Y80550D01*
X65605Y80573D01*
X65593Y80597D01*
X65583Y80621D01*
X65574Y80646D01*
X65567Y80671D01*
X65561Y80696D01*
X65556Y80722D01*
X65553Y80748D01*
X65551Y80774D01*
X65550Y80800D01*
Y87200D01*
X65551Y87226D01*
X65553Y87252D01*
X65556Y87278D01*
X65561Y87304D01*
X65567Y87329D01*
X65574Y87354D01*
X65583Y87379D01*
X65593Y87403D01*
X65605Y87427D01*
X65617Y87450D01*
X65631Y87472D01*
X65645Y87494D01*
X65661Y87515D01*
X65678Y87535D01*
X65697Y87554D01*
X65715Y87572D01*
X65735Y87589D01*
X65756Y87605D01*
X65778Y87619D01*
X65800Y87633D01*
X65823Y87646D01*
X65847Y87657D01*
X65871Y87667D01*
X65896Y87676D01*
X65921Y87683D01*
X65946Y87689D01*
X65972Y87694D01*
X65998Y87697D01*
X66024Y87699D01*
X66050Y87700D01*
X68950D01*
X68976Y87699D01*
D02*
G37*
G36*
X112226Y79449D02*
X112252Y79447D01*
X112278Y79444D01*
X112304Y79439D01*
X112329Y79433D01*
X112354Y79426D01*
X112379Y79417D01*
X112403Y79407D01*
X112427Y79395D01*
X112450Y79383D01*
X112472Y79369D01*
X112494Y79355D01*
X112515Y79339D01*
X112535Y79322D01*
X112554Y79303D01*
X112572Y79285D01*
X112589Y79265D01*
X112605Y79244D01*
X112619Y79222D01*
X112633Y79200D01*
X112646Y79177D01*
X112657Y79153D01*
X112667Y79129D01*
X112676Y79104D01*
X112683Y79079D01*
X112689Y79054D01*
X112694Y79028D01*
X112697Y79002D01*
X112699Y78976D01*
X112700Y78950D01*
Y76050D01*
X112699Y76024D01*
X112697Y75998D01*
X112694Y75972D01*
X112689Y75946D01*
X112683Y75921D01*
X112676Y75896D01*
X112667Y75871D01*
X112657Y75847D01*
X112646Y75823D01*
X112633Y75800D01*
X112619Y75778D01*
X112605Y75756D01*
X112589Y75735D01*
X112572Y75715D01*
X112554Y75696D01*
X112535Y75678D01*
X112515Y75661D01*
X112494Y75645D01*
X112472Y75631D01*
X112450Y75617D01*
X112427Y75605D01*
X112403Y75593D01*
X112379Y75583D01*
X112354Y75574D01*
X112329Y75567D01*
X112304Y75561D01*
X112278Y75556D01*
X112252Y75553D01*
X112226Y75551D01*
X112200Y75550D01*
X105800D01*
X105774Y75551D01*
X105748Y75553D01*
X105722Y75556D01*
X105696Y75561D01*
X105671Y75567D01*
X105646Y75574D01*
X105621Y75583D01*
X105597Y75593D01*
X105573Y75605D01*
X105550Y75617D01*
X105528Y75631D01*
X105506Y75645D01*
X105485Y75661D01*
X105465Y75678D01*
X105446Y75696D01*
X105428Y75715D01*
X105411Y75735D01*
X105395Y75756D01*
X105381Y75778D01*
X105367Y75800D01*
X105354Y75823D01*
X105343Y75847D01*
X105333Y75871D01*
X105324Y75896D01*
X105317Y75921D01*
X105311Y75946D01*
X105306Y75972D01*
X105303Y75998D01*
X105301Y76024D01*
X105300Y76050D01*
Y78950D01*
X105301Y78976D01*
X105303Y79002D01*
X105306Y79028D01*
X105311Y79054D01*
X105317Y79079D01*
X105324Y79104D01*
X105333Y79129D01*
X105343Y79153D01*
X105354Y79177D01*
X105367Y79200D01*
X105381Y79222D01*
X105395Y79244D01*
X105411Y79265D01*
X105428Y79285D01*
X105446Y79303D01*
X105465Y79322D01*
X105485Y79339D01*
X105506Y79355D01*
X105528Y79369D01*
X105550Y79383D01*
X105573Y79395D01*
X105597Y79407D01*
X105621Y79417D01*
X105646Y79426D01*
X105671Y79433D01*
X105696Y79439D01*
X105722Y79444D01*
X105748Y79447D01*
X105774Y79449D01*
X105800Y79450D01*
X112200D01*
X112226Y79449D01*
D02*
G37*
G36*
X64226D02*
X64252Y79447D01*
X64278Y79444D01*
X64304Y79439D01*
X64329Y79433D01*
X64355Y79426D01*
X64379Y79417D01*
X64403Y79407D01*
X64427Y79395D01*
X64450Y79383D01*
X64472Y79369D01*
X64494Y79355D01*
X64515Y79339D01*
X64535Y79322D01*
X64554Y79303D01*
X64572Y79285D01*
X64589Y79265D01*
X64605Y79244D01*
X64619Y79222D01*
X64633Y79200D01*
X64646Y79177D01*
X64657Y79153D01*
X64667Y79129D01*
X64675Y79104D01*
X64683Y79079D01*
X64689Y79054D01*
X64694Y79028D01*
X64697Y79002D01*
X64699Y78976D01*
X64700Y78950D01*
Y76050D01*
X64699Y76024D01*
X64697Y75998D01*
X64694Y75972D01*
X64689Y75946D01*
X64683Y75921D01*
X64675Y75896D01*
X64667Y75871D01*
X64657Y75847D01*
X64646Y75823D01*
X64633Y75800D01*
X64619Y75778D01*
X64605Y75756D01*
X64589Y75735D01*
X64572Y75715D01*
X64554Y75696D01*
X64535Y75678D01*
X64515Y75661D01*
X64494Y75645D01*
X64472Y75631D01*
X64450Y75617D01*
X64427Y75605D01*
X64403Y75593D01*
X64379Y75583D01*
X64355Y75574D01*
X64329Y75567D01*
X64304Y75561D01*
X64278Y75556D01*
X64252Y75553D01*
X64226Y75551D01*
X64200Y75550D01*
X57800D01*
X57774Y75551D01*
X57748Y75553D01*
X57722Y75556D01*
X57696Y75561D01*
X57671Y75567D01*
X57646Y75574D01*
X57621Y75583D01*
X57597Y75593D01*
X57573Y75605D01*
X57550Y75617D01*
X57528Y75631D01*
X57506Y75645D01*
X57485Y75661D01*
X57465Y75678D01*
X57446Y75696D01*
X57428Y75715D01*
X57411Y75735D01*
X57396Y75756D01*
X57381Y75778D01*
X57367Y75800D01*
X57354Y75823D01*
X57343Y75847D01*
X57333Y75871D01*
X57325Y75896D01*
X57317Y75921D01*
X57311Y75946D01*
X57306Y75972D01*
X57303Y75998D01*
X57301Y76024D01*
X57300Y76050D01*
Y78950D01*
X57301Y78976D01*
X57303Y79002D01*
X57306Y79028D01*
X57311Y79054D01*
X57317Y79079D01*
X57325Y79104D01*
X57333Y79129D01*
X57343Y79153D01*
X57354Y79177D01*
X57367Y79200D01*
X57381Y79222D01*
X57396Y79244D01*
X57411Y79265D01*
X57428Y79285D01*
X57446Y79303D01*
X57465Y79322D01*
X57485Y79339D01*
X57506Y79355D01*
X57528Y79369D01*
X57550Y79383D01*
X57573Y79395D01*
X57597Y79407D01*
X57621Y79417D01*
X57646Y79426D01*
X57671Y79433D01*
X57696Y79439D01*
X57722Y79444D01*
X57748Y79447D01*
X57774Y79449D01*
X57800Y79450D01*
X64200D01*
X64226Y79449D01*
D02*
G37*
G36*
X112226Y74449D02*
X112252Y74447D01*
X112278Y74444D01*
X112304Y74439D01*
X112329Y74433D01*
X112354Y74426D01*
X112379Y74417D01*
X112403Y74407D01*
X112427Y74395D01*
X112450Y74383D01*
X112472Y74369D01*
X112494Y74355D01*
X112515Y74339D01*
X112535Y74322D01*
X112554Y74304D01*
X112572Y74285D01*
X112589Y74265D01*
X112605Y74244D01*
X112619Y74222D01*
X112633Y74200D01*
X112646Y74177D01*
X112657Y74153D01*
X112667Y74129D01*
X112676Y74104D01*
X112683Y74079D01*
X112689Y74054D01*
X112694Y74028D01*
X112697Y74002D01*
X112699Y73976D01*
X112700Y73950D01*
Y71050D01*
X112699Y71024D01*
X112697Y70998D01*
X112694Y70972D01*
X112689Y70946D01*
X112683Y70921D01*
X112676Y70896D01*
X112667Y70871D01*
X112657Y70847D01*
X112646Y70823D01*
X112633Y70800D01*
X112619Y70778D01*
X112605Y70756D01*
X112589Y70735D01*
X112572Y70715D01*
X112554Y70697D01*
X112535Y70678D01*
X112515Y70661D01*
X112494Y70645D01*
X112472Y70631D01*
X112450Y70617D01*
X112427Y70605D01*
X112403Y70593D01*
X112379Y70583D01*
X112354Y70574D01*
X112329Y70567D01*
X112304Y70561D01*
X112278Y70556D01*
X112252Y70553D01*
X112226Y70551D01*
X112200Y70550D01*
X105800D01*
X105774Y70551D01*
X105748Y70553D01*
X105722Y70556D01*
X105696Y70561D01*
X105671Y70567D01*
X105646Y70574D01*
X105621Y70583D01*
X105597Y70593D01*
X105573Y70605D01*
X105550Y70617D01*
X105528Y70631D01*
X105506Y70645D01*
X105485Y70661D01*
X105465Y70678D01*
X105446Y70697D01*
X105428Y70715D01*
X105411Y70735D01*
X105395Y70756D01*
X105381Y70778D01*
X105367Y70800D01*
X105354Y70823D01*
X105343Y70847D01*
X105333Y70871D01*
X105324Y70896D01*
X105317Y70921D01*
X105311Y70946D01*
X105306Y70972D01*
X105303Y70998D01*
X105301Y71024D01*
X105300Y71050D01*
Y73950D01*
X105301Y73976D01*
X105303Y74002D01*
X105306Y74028D01*
X105311Y74054D01*
X105317Y74079D01*
X105324Y74104D01*
X105333Y74129D01*
X105343Y74153D01*
X105354Y74177D01*
X105367Y74200D01*
X105381Y74222D01*
X105395Y74244D01*
X105411Y74265D01*
X105428Y74285D01*
X105446Y74304D01*
X105465Y74322D01*
X105485Y74339D01*
X105506Y74355D01*
X105528Y74369D01*
X105550Y74383D01*
X105573Y74395D01*
X105597Y74407D01*
X105621Y74417D01*
X105646Y74426D01*
X105671Y74433D01*
X105696Y74439D01*
X105722Y74444D01*
X105748Y74447D01*
X105774Y74449D01*
X105800Y74450D01*
X112200D01*
X112226Y74449D01*
D02*
G37*
G36*
X64226D02*
X64252Y74447D01*
X64278Y74444D01*
X64304Y74439D01*
X64329Y74433D01*
X64355Y74426D01*
X64379Y74417D01*
X64403Y74407D01*
X64427Y74395D01*
X64450Y74383D01*
X64472Y74369D01*
X64494Y74355D01*
X64515Y74339D01*
X64535Y74322D01*
X64554Y74304D01*
X64572Y74285D01*
X64589Y74265D01*
X64605Y74244D01*
X64619Y74222D01*
X64633Y74200D01*
X64646Y74177D01*
X64657Y74153D01*
X64667Y74129D01*
X64675Y74104D01*
X64683Y74079D01*
X64689Y74054D01*
X64694Y74028D01*
X64697Y74002D01*
X64699Y73976D01*
X64700Y73950D01*
Y71050D01*
X64699Y71024D01*
X64697Y70998D01*
X64694Y70972D01*
X64689Y70946D01*
X64683Y70921D01*
X64675Y70896D01*
X64667Y70871D01*
X64657Y70847D01*
X64646Y70823D01*
X64633Y70800D01*
X64619Y70778D01*
X64605Y70756D01*
X64589Y70735D01*
X64572Y70715D01*
X64554Y70697D01*
X64535Y70678D01*
X64515Y70661D01*
X64494Y70645D01*
X64472Y70631D01*
X64450Y70617D01*
X64427Y70605D01*
X64403Y70593D01*
X64379Y70583D01*
X64355Y70574D01*
X64329Y70567D01*
X64304Y70561D01*
X64278Y70556D01*
X64252Y70553D01*
X64226Y70551D01*
X64200Y70550D01*
X57800D01*
X57774Y70551D01*
X57748Y70553D01*
X57722Y70556D01*
X57696Y70561D01*
X57671Y70567D01*
X57646Y70574D01*
X57621Y70583D01*
X57597Y70593D01*
X57573Y70605D01*
X57550Y70617D01*
X57528Y70631D01*
X57506Y70645D01*
X57485Y70661D01*
X57465Y70678D01*
X57446Y70697D01*
X57428Y70715D01*
X57411Y70735D01*
X57396Y70756D01*
X57381Y70778D01*
X57367Y70800D01*
X57354Y70823D01*
X57343Y70847D01*
X57333Y70871D01*
X57325Y70896D01*
X57317Y70921D01*
X57311Y70946D01*
X57306Y70972D01*
X57303Y70998D01*
X57301Y71024D01*
X57300Y71050D01*
Y73950D01*
X57301Y73976D01*
X57303Y74002D01*
X57306Y74028D01*
X57311Y74054D01*
X57317Y74079D01*
X57325Y74104D01*
X57333Y74129D01*
X57343Y74153D01*
X57354Y74177D01*
X57367Y74200D01*
X57381Y74222D01*
X57396Y74244D01*
X57411Y74265D01*
X57428Y74285D01*
X57446Y74304D01*
X57465Y74322D01*
X57485Y74339D01*
X57506Y74355D01*
X57528Y74369D01*
X57550Y74383D01*
X57573Y74395D01*
X57597Y74407D01*
X57621Y74417D01*
X57646Y74426D01*
X57671Y74433D01*
X57696Y74439D01*
X57722Y74444D01*
X57748Y74447D01*
X57774Y74449D01*
X57800Y74450D01*
X64200D01*
X64226Y74449D01*
D02*
G37*
G36*
X112226Y69449D02*
X112252Y69447D01*
X112278Y69444D01*
X112304Y69439D01*
X112329Y69433D01*
X112354Y69426D01*
X112379Y69417D01*
X112403Y69407D01*
X112427Y69395D01*
X112450Y69383D01*
X112472Y69369D01*
X112494Y69355D01*
X112515Y69339D01*
X112535Y69322D01*
X112554Y69304D01*
X112572Y69285D01*
X112589Y69265D01*
X112605Y69244D01*
X112619Y69222D01*
X112633Y69200D01*
X112646Y69177D01*
X112657Y69153D01*
X112667Y69129D01*
X112676Y69104D01*
X112683Y69079D01*
X112689Y69054D01*
X112694Y69028D01*
X112697Y69002D01*
X112699Y68976D01*
X112700Y68950D01*
Y66050D01*
X112699Y66024D01*
X112697Y65998D01*
X112694Y65972D01*
X112689Y65946D01*
X112683Y65921D01*
X112676Y65896D01*
X112667Y65871D01*
X112657Y65847D01*
X112646Y65823D01*
X112633Y65800D01*
X112619Y65778D01*
X112605Y65756D01*
X112589Y65735D01*
X112572Y65715D01*
X112554Y65697D01*
X112535Y65678D01*
X112515Y65661D01*
X112494Y65645D01*
X112472Y65631D01*
X112450Y65617D01*
X112427Y65605D01*
X112403Y65593D01*
X112379Y65583D01*
X112354Y65574D01*
X112329Y65567D01*
X112304Y65561D01*
X112278Y65556D01*
X112252Y65553D01*
X112226Y65551D01*
X112200Y65550D01*
X105800D01*
X105774Y65551D01*
X105748Y65553D01*
X105722Y65556D01*
X105696Y65561D01*
X105671Y65567D01*
X105646Y65574D01*
X105621Y65583D01*
X105597Y65593D01*
X105573Y65605D01*
X105550Y65617D01*
X105528Y65631D01*
X105506Y65645D01*
X105485Y65661D01*
X105465Y65678D01*
X105446Y65697D01*
X105428Y65715D01*
X105411Y65735D01*
X105395Y65756D01*
X105381Y65778D01*
X105367Y65800D01*
X105354Y65823D01*
X105343Y65847D01*
X105333Y65871D01*
X105324Y65896D01*
X105317Y65921D01*
X105311Y65946D01*
X105306Y65972D01*
X105303Y65998D01*
X105301Y66024D01*
X105300Y66050D01*
Y68950D01*
X105301Y68976D01*
X105303Y69002D01*
X105306Y69028D01*
X105311Y69054D01*
X105317Y69079D01*
X105324Y69104D01*
X105333Y69129D01*
X105343Y69153D01*
X105354Y69177D01*
X105367Y69200D01*
X105381Y69222D01*
X105395Y69244D01*
X105411Y69265D01*
X105428Y69285D01*
X105446Y69304D01*
X105465Y69322D01*
X105485Y69339D01*
X105506Y69355D01*
X105528Y69369D01*
X105550Y69383D01*
X105573Y69395D01*
X105597Y69407D01*
X105621Y69417D01*
X105646Y69426D01*
X105671Y69433D01*
X105696Y69439D01*
X105722Y69444D01*
X105748Y69447D01*
X105774Y69449D01*
X105800Y69450D01*
X112200D01*
X112226Y69449D01*
D02*
G37*
G36*
X64226D02*
X64252Y69447D01*
X64278Y69444D01*
X64304Y69439D01*
X64329Y69433D01*
X64355Y69426D01*
X64379Y69417D01*
X64403Y69407D01*
X64427Y69395D01*
X64450Y69383D01*
X64472Y69369D01*
X64494Y69355D01*
X64515Y69339D01*
X64535Y69322D01*
X64554Y69304D01*
X64572Y69285D01*
X64589Y69265D01*
X64605Y69244D01*
X64619Y69222D01*
X64633Y69200D01*
X64646Y69177D01*
X64657Y69153D01*
X64667Y69129D01*
X64675Y69104D01*
X64683Y69079D01*
X64689Y69054D01*
X64694Y69028D01*
X64697Y69002D01*
X64699Y68976D01*
X64700Y68950D01*
Y66050D01*
X64699Y66024D01*
X64697Y65998D01*
X64694Y65972D01*
X64689Y65946D01*
X64683Y65921D01*
X64675Y65896D01*
X64667Y65871D01*
X64657Y65847D01*
X64646Y65823D01*
X64633Y65800D01*
X64619Y65778D01*
X64605Y65756D01*
X64589Y65735D01*
X64572Y65715D01*
X64554Y65697D01*
X64535Y65678D01*
X64515Y65661D01*
X64494Y65645D01*
X64472Y65631D01*
X64450Y65617D01*
X64427Y65605D01*
X64403Y65593D01*
X64379Y65583D01*
X64355Y65574D01*
X64329Y65567D01*
X64304Y65561D01*
X64278Y65556D01*
X64252Y65553D01*
X64226Y65551D01*
X64200Y65550D01*
X57800D01*
X57774Y65551D01*
X57748Y65553D01*
X57722Y65556D01*
X57696Y65561D01*
X57671Y65567D01*
X57646Y65574D01*
X57621Y65583D01*
X57597Y65593D01*
X57573Y65605D01*
X57550Y65617D01*
X57528Y65631D01*
X57506Y65645D01*
X57485Y65661D01*
X57465Y65678D01*
X57446Y65697D01*
X57428Y65715D01*
X57411Y65735D01*
X57396Y65756D01*
X57381Y65778D01*
X57367Y65800D01*
X57354Y65823D01*
X57343Y65847D01*
X57333Y65871D01*
X57325Y65896D01*
X57317Y65921D01*
X57311Y65946D01*
X57306Y65972D01*
X57303Y65998D01*
X57301Y66024D01*
X57300Y66050D01*
Y68950D01*
X57301Y68976D01*
X57303Y69002D01*
X57306Y69028D01*
X57311Y69054D01*
X57317Y69079D01*
X57325Y69104D01*
X57333Y69129D01*
X57343Y69153D01*
X57354Y69177D01*
X57367Y69200D01*
X57381Y69222D01*
X57396Y69244D01*
X57411Y69265D01*
X57428Y69285D01*
X57446Y69304D01*
X57465Y69322D01*
X57485Y69339D01*
X57506Y69355D01*
X57528Y69369D01*
X57550Y69383D01*
X57573Y69395D01*
X57597Y69407D01*
X57621Y69417D01*
X57646Y69426D01*
X57671Y69433D01*
X57696Y69439D01*
X57722Y69444D01*
X57748Y69447D01*
X57774Y69449D01*
X57800Y69450D01*
X64200D01*
X64226Y69449D01*
D02*
G37*
G36*
X112226Y64449D02*
X112252Y64447D01*
X112278Y64444D01*
X112304Y64439D01*
X112329Y64433D01*
X112354Y64426D01*
X112379Y64417D01*
X112403Y64407D01*
X112427Y64395D01*
X112450Y64383D01*
X112472Y64369D01*
X112494Y64355D01*
X112515Y64339D01*
X112535Y64322D01*
X112554Y64304D01*
X112572Y64285D01*
X112589Y64265D01*
X112605Y64244D01*
X112619Y64222D01*
X112633Y64200D01*
X112646Y64177D01*
X112657Y64153D01*
X112667Y64129D01*
X112676Y64104D01*
X112683Y64079D01*
X112689Y64054D01*
X112694Y64028D01*
X112697Y64002D01*
X112699Y63976D01*
X112700Y63950D01*
Y61050D01*
X112699Y61024D01*
X112697Y60998D01*
X112694Y60972D01*
X112689Y60946D01*
X112683Y60921D01*
X112676Y60896D01*
X112667Y60871D01*
X112657Y60847D01*
X112646Y60823D01*
X112633Y60800D01*
X112619Y60778D01*
X112605Y60756D01*
X112589Y60735D01*
X112572Y60715D01*
X112554Y60696D01*
X112535Y60678D01*
X112515Y60661D01*
X112494Y60645D01*
X112472Y60631D01*
X112450Y60617D01*
X112427Y60605D01*
X112403Y60593D01*
X112379Y60583D01*
X112354Y60574D01*
X112329Y60567D01*
X112304Y60561D01*
X112278Y60556D01*
X112252Y60553D01*
X112226Y60551D01*
X112200Y60550D01*
X105800D01*
X105774Y60551D01*
X105748Y60553D01*
X105722Y60556D01*
X105696Y60561D01*
X105671Y60567D01*
X105646Y60574D01*
X105621Y60583D01*
X105597Y60593D01*
X105573Y60605D01*
X105550Y60617D01*
X105528Y60631D01*
X105506Y60645D01*
X105485Y60661D01*
X105465Y60678D01*
X105446Y60696D01*
X105428Y60715D01*
X105411Y60735D01*
X105395Y60756D01*
X105381Y60778D01*
X105367Y60800D01*
X105354Y60823D01*
X105343Y60847D01*
X105333Y60871D01*
X105324Y60896D01*
X105317Y60921D01*
X105311Y60946D01*
X105306Y60972D01*
X105303Y60998D01*
X105301Y61024D01*
X105300Y61050D01*
Y63950D01*
X105301Y63976D01*
X105303Y64002D01*
X105306Y64028D01*
X105311Y64054D01*
X105317Y64079D01*
X105324Y64104D01*
X105333Y64129D01*
X105343Y64153D01*
X105354Y64177D01*
X105367Y64200D01*
X105381Y64222D01*
X105395Y64244D01*
X105411Y64265D01*
X105428Y64285D01*
X105446Y64304D01*
X105465Y64322D01*
X105485Y64339D01*
X105506Y64355D01*
X105528Y64369D01*
X105550Y64383D01*
X105573Y64395D01*
X105597Y64407D01*
X105621Y64417D01*
X105646Y64426D01*
X105671Y64433D01*
X105696Y64439D01*
X105722Y64444D01*
X105748Y64447D01*
X105774Y64449D01*
X105800Y64450D01*
X112200D01*
X112226Y64449D01*
D02*
G37*
G36*
X64226D02*
X64252Y64447D01*
X64278Y64444D01*
X64304Y64439D01*
X64329Y64433D01*
X64355Y64426D01*
X64379Y64417D01*
X64403Y64407D01*
X64427Y64395D01*
X64450Y64383D01*
X64472Y64369D01*
X64494Y64355D01*
X64515Y64339D01*
X64535Y64322D01*
X64554Y64304D01*
X64572Y64285D01*
X64589Y64265D01*
X64605Y64244D01*
X64619Y64222D01*
X64633Y64200D01*
X64646Y64177D01*
X64657Y64153D01*
X64667Y64129D01*
X64675Y64104D01*
X64683Y64079D01*
X64689Y64054D01*
X64694Y64028D01*
X64697Y64002D01*
X64699Y63976D01*
X64700Y63950D01*
Y61050D01*
X64699Y61024D01*
X64697Y60998D01*
X64694Y60972D01*
X64689Y60946D01*
X64683Y60921D01*
X64675Y60896D01*
X64667Y60871D01*
X64657Y60847D01*
X64646Y60823D01*
X64633Y60800D01*
X64619Y60778D01*
X64605Y60756D01*
X64589Y60735D01*
X64572Y60715D01*
X64554Y60696D01*
X64535Y60678D01*
X64515Y60661D01*
X64494Y60645D01*
X64472Y60631D01*
X64450Y60617D01*
X64427Y60605D01*
X64403Y60593D01*
X64379Y60583D01*
X64355Y60574D01*
X64329Y60567D01*
X64304Y60561D01*
X64278Y60556D01*
X64252Y60553D01*
X64226Y60551D01*
X64200Y60550D01*
X57800D01*
X57774Y60551D01*
X57748Y60553D01*
X57722Y60556D01*
X57696Y60561D01*
X57671Y60567D01*
X57646Y60574D01*
X57621Y60583D01*
X57597Y60593D01*
X57573Y60605D01*
X57550Y60617D01*
X57528Y60631D01*
X57506Y60645D01*
X57485Y60661D01*
X57465Y60678D01*
X57446Y60696D01*
X57428Y60715D01*
X57411Y60735D01*
X57396Y60756D01*
X57381Y60778D01*
X57367Y60800D01*
X57354Y60823D01*
X57343Y60847D01*
X57333Y60871D01*
X57325Y60896D01*
X57317Y60921D01*
X57311Y60946D01*
X57306Y60972D01*
X57303Y60998D01*
X57301Y61024D01*
X57300Y61050D01*
Y63950D01*
X57301Y63976D01*
X57303Y64002D01*
X57306Y64028D01*
X57311Y64054D01*
X57317Y64079D01*
X57325Y64104D01*
X57333Y64129D01*
X57343Y64153D01*
X57354Y64177D01*
X57367Y64200D01*
X57381Y64222D01*
X57396Y64244D01*
X57411Y64265D01*
X57428Y64285D01*
X57446Y64304D01*
X57465Y64322D01*
X57485Y64339D01*
X57506Y64355D01*
X57528Y64369D01*
X57550Y64383D01*
X57573Y64395D01*
X57597Y64407D01*
X57621Y64417D01*
X57646Y64426D01*
X57671Y64433D01*
X57696Y64439D01*
X57722Y64444D01*
X57748Y64447D01*
X57774Y64449D01*
X57800Y64450D01*
X64200D01*
X64226Y64449D01*
D02*
G37*
G36*
X112226Y59449D02*
X112252Y59447D01*
X112278Y59444D01*
X112304Y59439D01*
X112329Y59433D01*
X112354Y59426D01*
X112379Y59417D01*
X112403Y59407D01*
X112427Y59395D01*
X112450Y59383D01*
X112472Y59369D01*
X112494Y59355D01*
X112515Y59339D01*
X112535Y59322D01*
X112554Y59304D01*
X112572Y59285D01*
X112589Y59265D01*
X112605Y59244D01*
X112619Y59222D01*
X112633Y59200D01*
X112646Y59177D01*
X112657Y59153D01*
X112667Y59129D01*
X112676Y59104D01*
X112683Y59079D01*
X112689Y59054D01*
X112694Y59028D01*
X112697Y59002D01*
X112699Y58976D01*
X112700Y58950D01*
Y56050D01*
X112699Y56024D01*
X112697Y55998D01*
X112694Y55972D01*
X112689Y55946D01*
X112683Y55921D01*
X112676Y55896D01*
X112667Y55871D01*
X112657Y55847D01*
X112646Y55823D01*
X112633Y55800D01*
X112619Y55778D01*
X112605Y55756D01*
X112589Y55735D01*
X112572Y55715D01*
X112554Y55697D01*
X112535Y55678D01*
X112515Y55661D01*
X112494Y55645D01*
X112472Y55631D01*
X112450Y55617D01*
X112427Y55605D01*
X112403Y55593D01*
X112379Y55583D01*
X112354Y55574D01*
X112329Y55567D01*
X112304Y55561D01*
X112278Y55556D01*
X112252Y55553D01*
X112226Y55551D01*
X112200Y55550D01*
X105800D01*
X105774Y55551D01*
X105748Y55553D01*
X105722Y55556D01*
X105696Y55561D01*
X105671Y55567D01*
X105646Y55574D01*
X105621Y55583D01*
X105597Y55593D01*
X105573Y55605D01*
X105550Y55617D01*
X105528Y55631D01*
X105506Y55645D01*
X105485Y55661D01*
X105465Y55678D01*
X105446Y55697D01*
X105428Y55715D01*
X105411Y55735D01*
X105395Y55756D01*
X105381Y55778D01*
X105367Y55800D01*
X105354Y55823D01*
X105343Y55847D01*
X105333Y55871D01*
X105324Y55896D01*
X105317Y55921D01*
X105311Y55946D01*
X105306Y55972D01*
X105303Y55998D01*
X105301Y56024D01*
X105300Y56050D01*
Y58950D01*
X105301Y58976D01*
X105303Y59002D01*
X105306Y59028D01*
X105311Y59054D01*
X105317Y59079D01*
X105324Y59104D01*
X105333Y59129D01*
X105343Y59153D01*
X105354Y59177D01*
X105367Y59200D01*
X105381Y59222D01*
X105395Y59244D01*
X105411Y59265D01*
X105428Y59285D01*
X105446Y59304D01*
X105465Y59322D01*
X105485Y59339D01*
X105506Y59355D01*
X105528Y59369D01*
X105550Y59383D01*
X105573Y59395D01*
X105597Y59407D01*
X105621Y59417D01*
X105646Y59426D01*
X105671Y59433D01*
X105696Y59439D01*
X105722Y59444D01*
X105748Y59447D01*
X105774Y59449D01*
X105800Y59450D01*
X112200D01*
X112226Y59449D01*
D02*
G37*
G36*
X64226D02*
X64252Y59447D01*
X64278Y59444D01*
X64304Y59439D01*
X64329Y59433D01*
X64355Y59426D01*
X64379Y59417D01*
X64403Y59407D01*
X64427Y59395D01*
X64450Y59383D01*
X64472Y59369D01*
X64494Y59355D01*
X64515Y59339D01*
X64535Y59322D01*
X64554Y59304D01*
X64572Y59285D01*
X64589Y59265D01*
X64605Y59244D01*
X64619Y59222D01*
X64633Y59200D01*
X64646Y59177D01*
X64657Y59153D01*
X64667Y59129D01*
X64675Y59104D01*
X64683Y59079D01*
X64689Y59054D01*
X64694Y59028D01*
X64697Y59002D01*
X64699Y58976D01*
X64700Y58950D01*
Y56050D01*
X64699Y56024D01*
X64697Y55998D01*
X64694Y55972D01*
X64689Y55946D01*
X64683Y55921D01*
X64675Y55896D01*
X64667Y55871D01*
X64657Y55847D01*
X64646Y55823D01*
X64633Y55800D01*
X64619Y55778D01*
X64605Y55756D01*
X64589Y55735D01*
X64572Y55715D01*
X64554Y55697D01*
X64535Y55678D01*
X64515Y55661D01*
X64494Y55645D01*
X64472Y55631D01*
X64450Y55617D01*
X64427Y55605D01*
X64403Y55593D01*
X64379Y55583D01*
X64355Y55574D01*
X64329Y55567D01*
X64304Y55561D01*
X64278Y55556D01*
X64252Y55553D01*
X64226Y55551D01*
X64200Y55550D01*
X57800D01*
X57774Y55551D01*
X57748Y55553D01*
X57722Y55556D01*
X57696Y55561D01*
X57671Y55567D01*
X57646Y55574D01*
X57621Y55583D01*
X57597Y55593D01*
X57573Y55605D01*
X57550Y55617D01*
X57528Y55631D01*
X57506Y55645D01*
X57485Y55661D01*
X57465Y55678D01*
X57446Y55697D01*
X57428Y55715D01*
X57411Y55735D01*
X57396Y55756D01*
X57381Y55778D01*
X57367Y55800D01*
X57354Y55823D01*
X57343Y55847D01*
X57333Y55871D01*
X57325Y55896D01*
X57317Y55921D01*
X57311Y55946D01*
X57306Y55972D01*
X57303Y55998D01*
X57301Y56024D01*
X57300Y56050D01*
Y58950D01*
X57301Y58976D01*
X57303Y59002D01*
X57306Y59028D01*
X57311Y59054D01*
X57317Y59079D01*
X57325Y59104D01*
X57333Y59129D01*
X57343Y59153D01*
X57354Y59177D01*
X57367Y59200D01*
X57381Y59222D01*
X57396Y59244D01*
X57411Y59265D01*
X57428Y59285D01*
X57446Y59304D01*
X57465Y59322D01*
X57485Y59339D01*
X57506Y59355D01*
X57528Y59369D01*
X57550Y59383D01*
X57573Y59395D01*
X57597Y59407D01*
X57621Y59417D01*
X57646Y59426D01*
X57671Y59433D01*
X57696Y59439D01*
X57722Y59444D01*
X57748Y59447D01*
X57774Y59449D01*
X57800Y59450D01*
X64200D01*
X64226Y59449D01*
D02*
G37*
G36*
X112226Y54449D02*
X112252Y54447D01*
X112278Y54444D01*
X112304Y54439D01*
X112329Y54433D01*
X112354Y54426D01*
X112379Y54417D01*
X112403Y54407D01*
X112427Y54395D01*
X112450Y54383D01*
X112472Y54369D01*
X112494Y54355D01*
X112515Y54339D01*
X112535Y54322D01*
X112554Y54303D01*
X112572Y54285D01*
X112589Y54265D01*
X112605Y54244D01*
X112619Y54222D01*
X112633Y54200D01*
X112646Y54177D01*
X112657Y54153D01*
X112667Y54129D01*
X112676Y54104D01*
X112683Y54079D01*
X112689Y54054D01*
X112694Y54028D01*
X112697Y54002D01*
X112699Y53976D01*
X112700Y53950D01*
Y51050D01*
X112699Y51024D01*
X112697Y50998D01*
X112694Y50972D01*
X112689Y50946D01*
X112683Y50921D01*
X112676Y50896D01*
X112667Y50871D01*
X112657Y50847D01*
X112646Y50823D01*
X112633Y50800D01*
X112619Y50778D01*
X112605Y50756D01*
X112589Y50735D01*
X112572Y50715D01*
X112554Y50696D01*
X112535Y50678D01*
X112515Y50661D01*
X112494Y50645D01*
X112472Y50631D01*
X112450Y50617D01*
X112427Y50605D01*
X112403Y50593D01*
X112379Y50583D01*
X112354Y50574D01*
X112329Y50567D01*
X112304Y50561D01*
X112278Y50556D01*
X112252Y50553D01*
X112226Y50551D01*
X112200Y50550D01*
X105800D01*
X105774Y50551D01*
X105748Y50553D01*
X105722Y50556D01*
X105696Y50561D01*
X105671Y50567D01*
X105646Y50574D01*
X105621Y50583D01*
X105597Y50593D01*
X105573Y50605D01*
X105550Y50617D01*
X105528Y50631D01*
X105506Y50645D01*
X105485Y50661D01*
X105465Y50678D01*
X105446Y50696D01*
X105428Y50715D01*
X105411Y50735D01*
X105395Y50756D01*
X105381Y50778D01*
X105367Y50800D01*
X105354Y50823D01*
X105343Y50847D01*
X105333Y50871D01*
X105324Y50896D01*
X105317Y50921D01*
X105311Y50946D01*
X105306Y50972D01*
X105303Y50998D01*
X105301Y51024D01*
X105300Y51050D01*
Y53950D01*
X105301Y53976D01*
X105303Y54002D01*
X105306Y54028D01*
X105311Y54054D01*
X105317Y54079D01*
X105324Y54104D01*
X105333Y54129D01*
X105343Y54153D01*
X105354Y54177D01*
X105367Y54200D01*
X105381Y54222D01*
X105395Y54244D01*
X105411Y54265D01*
X105428Y54285D01*
X105446Y54303D01*
X105465Y54322D01*
X105485Y54339D01*
X105506Y54355D01*
X105528Y54369D01*
X105550Y54383D01*
X105573Y54395D01*
X105597Y54407D01*
X105621Y54417D01*
X105646Y54426D01*
X105671Y54433D01*
X105696Y54439D01*
X105722Y54444D01*
X105748Y54447D01*
X105774Y54449D01*
X105800Y54450D01*
X112200D01*
X112226Y54449D01*
D02*
G37*
G36*
X64226D02*
X64252Y54447D01*
X64278Y54444D01*
X64304Y54439D01*
X64329Y54433D01*
X64355Y54426D01*
X64379Y54417D01*
X64403Y54407D01*
X64427Y54395D01*
X64450Y54383D01*
X64472Y54369D01*
X64494Y54355D01*
X64515Y54339D01*
X64535Y54322D01*
X64554Y54303D01*
X64572Y54285D01*
X64589Y54265D01*
X64605Y54244D01*
X64619Y54222D01*
X64633Y54200D01*
X64646Y54177D01*
X64657Y54153D01*
X64667Y54129D01*
X64675Y54104D01*
X64683Y54079D01*
X64689Y54054D01*
X64694Y54028D01*
X64697Y54002D01*
X64699Y53976D01*
X64700Y53950D01*
Y51050D01*
X64699Y51024D01*
X64697Y50998D01*
X64694Y50972D01*
X64689Y50946D01*
X64683Y50921D01*
X64675Y50896D01*
X64667Y50871D01*
X64657Y50847D01*
X64646Y50823D01*
X64633Y50800D01*
X64619Y50778D01*
X64605Y50756D01*
X64589Y50735D01*
X64572Y50715D01*
X64554Y50696D01*
X64535Y50678D01*
X64515Y50661D01*
X64494Y50645D01*
X64472Y50631D01*
X64450Y50617D01*
X64427Y50605D01*
X64403Y50593D01*
X64379Y50583D01*
X64355Y50574D01*
X64329Y50567D01*
X64304Y50561D01*
X64278Y50556D01*
X64252Y50553D01*
X64226Y50551D01*
X64200Y50550D01*
X57800D01*
X57774Y50551D01*
X57748Y50553D01*
X57722Y50556D01*
X57696Y50561D01*
X57671Y50567D01*
X57646Y50574D01*
X57621Y50583D01*
X57597Y50593D01*
X57573Y50605D01*
X57550Y50617D01*
X57528Y50631D01*
X57506Y50645D01*
X57485Y50661D01*
X57465Y50678D01*
X57446Y50696D01*
X57428Y50715D01*
X57411Y50735D01*
X57396Y50756D01*
X57381Y50778D01*
X57367Y50800D01*
X57354Y50823D01*
X57343Y50847D01*
X57333Y50871D01*
X57325Y50896D01*
X57317Y50921D01*
X57311Y50946D01*
X57306Y50972D01*
X57303Y50998D01*
X57301Y51024D01*
X57300Y51050D01*
Y53950D01*
X57301Y53976D01*
X57303Y54002D01*
X57306Y54028D01*
X57311Y54054D01*
X57317Y54079D01*
X57325Y54104D01*
X57333Y54129D01*
X57343Y54153D01*
X57354Y54177D01*
X57367Y54200D01*
X57381Y54222D01*
X57396Y54244D01*
X57411Y54265D01*
X57428Y54285D01*
X57446Y54303D01*
X57465Y54322D01*
X57485Y54339D01*
X57506Y54355D01*
X57528Y54369D01*
X57550Y54383D01*
X57573Y54395D01*
X57597Y54407D01*
X57621Y54417D01*
X57646Y54426D01*
X57671Y54433D01*
X57696Y54439D01*
X57722Y54444D01*
X57748Y54447D01*
X57774Y54449D01*
X57800Y54450D01*
X64200D01*
X64226Y54449D01*
D02*
G37*
G36*
X112226Y49449D02*
X112252Y49447D01*
X112278Y49444D01*
X112304Y49439D01*
X112329Y49433D01*
X112354Y49426D01*
X112379Y49417D01*
X112403Y49407D01*
X112427Y49395D01*
X112450Y49383D01*
X112472Y49369D01*
X112494Y49355D01*
X112515Y49339D01*
X112535Y49322D01*
X112554Y49304D01*
X112572Y49285D01*
X112589Y49265D01*
X112605Y49244D01*
X112619Y49222D01*
X112633Y49200D01*
X112646Y49177D01*
X112657Y49153D01*
X112667Y49129D01*
X112676Y49104D01*
X112683Y49079D01*
X112689Y49054D01*
X112694Y49028D01*
X112697Y49002D01*
X112699Y48976D01*
X112700Y48950D01*
Y46050D01*
X112699Y46024D01*
X112697Y45998D01*
X112694Y45972D01*
X112689Y45946D01*
X112683Y45921D01*
X112676Y45896D01*
X112667Y45871D01*
X112657Y45847D01*
X112646Y45823D01*
X112633Y45800D01*
X112619Y45778D01*
X112605Y45756D01*
X112589Y45735D01*
X112572Y45715D01*
X112554Y45697D01*
X112535Y45678D01*
X112515Y45661D01*
X112494Y45645D01*
X112472Y45631D01*
X112450Y45617D01*
X112427Y45605D01*
X112403Y45593D01*
X112379Y45583D01*
X112354Y45574D01*
X112329Y45567D01*
X112304Y45561D01*
X112278Y45556D01*
X112252Y45553D01*
X112226Y45551D01*
X112200Y45550D01*
X105800D01*
X105774Y45551D01*
X105748Y45553D01*
X105722Y45556D01*
X105696Y45561D01*
X105671Y45567D01*
X105646Y45574D01*
X105621Y45583D01*
X105597Y45593D01*
X105573Y45605D01*
X105550Y45617D01*
X105528Y45631D01*
X105506Y45645D01*
X105485Y45661D01*
X105465Y45678D01*
X105446Y45697D01*
X105428Y45715D01*
X105411Y45735D01*
X105395Y45756D01*
X105381Y45778D01*
X105367Y45800D01*
X105354Y45823D01*
X105343Y45847D01*
X105333Y45871D01*
X105324Y45896D01*
X105317Y45921D01*
X105311Y45946D01*
X105306Y45972D01*
X105303Y45998D01*
X105301Y46024D01*
X105300Y46050D01*
Y48950D01*
X105301Y48976D01*
X105303Y49002D01*
X105306Y49028D01*
X105311Y49054D01*
X105317Y49079D01*
X105324Y49104D01*
X105333Y49129D01*
X105343Y49153D01*
X105354Y49177D01*
X105367Y49200D01*
X105381Y49222D01*
X105395Y49244D01*
X105411Y49265D01*
X105428Y49285D01*
X105446Y49304D01*
X105465Y49322D01*
X105485Y49339D01*
X105506Y49355D01*
X105528Y49369D01*
X105550Y49383D01*
X105573Y49395D01*
X105597Y49407D01*
X105621Y49417D01*
X105646Y49426D01*
X105671Y49433D01*
X105696Y49439D01*
X105722Y49444D01*
X105748Y49447D01*
X105774Y49449D01*
X105800Y49450D01*
X112200D01*
X112226Y49449D01*
D02*
G37*
G36*
X64226D02*
X64252Y49447D01*
X64278Y49444D01*
X64304Y49439D01*
X64329Y49433D01*
X64355Y49426D01*
X64379Y49417D01*
X64403Y49407D01*
X64427Y49395D01*
X64450Y49383D01*
X64472Y49369D01*
X64494Y49355D01*
X64515Y49339D01*
X64535Y49322D01*
X64554Y49304D01*
X64572Y49285D01*
X64589Y49265D01*
X64605Y49244D01*
X64619Y49222D01*
X64633Y49200D01*
X64646Y49177D01*
X64657Y49153D01*
X64667Y49129D01*
X64675Y49104D01*
X64683Y49079D01*
X64689Y49054D01*
X64694Y49028D01*
X64697Y49002D01*
X64699Y48976D01*
X64700Y48950D01*
Y46050D01*
X64699Y46024D01*
X64697Y45998D01*
X64694Y45972D01*
X64689Y45946D01*
X64683Y45921D01*
X64675Y45896D01*
X64667Y45871D01*
X64657Y45847D01*
X64646Y45823D01*
X64633Y45800D01*
X64619Y45778D01*
X64605Y45756D01*
X64589Y45735D01*
X64572Y45715D01*
X64554Y45697D01*
X64535Y45678D01*
X64515Y45661D01*
X64494Y45645D01*
X64472Y45631D01*
X64450Y45617D01*
X64427Y45605D01*
X64403Y45593D01*
X64379Y45583D01*
X64355Y45574D01*
X64329Y45567D01*
X64304Y45561D01*
X64278Y45556D01*
X64252Y45553D01*
X64226Y45551D01*
X64200Y45550D01*
X57800D01*
X57774Y45551D01*
X57748Y45553D01*
X57722Y45556D01*
X57696Y45561D01*
X57671Y45567D01*
X57646Y45574D01*
X57621Y45583D01*
X57597Y45593D01*
X57573Y45605D01*
X57550Y45617D01*
X57528Y45631D01*
X57506Y45645D01*
X57485Y45661D01*
X57465Y45678D01*
X57446Y45697D01*
X57428Y45715D01*
X57411Y45735D01*
X57396Y45756D01*
X57381Y45778D01*
X57367Y45800D01*
X57354Y45823D01*
X57343Y45847D01*
X57333Y45871D01*
X57325Y45896D01*
X57317Y45921D01*
X57311Y45946D01*
X57306Y45972D01*
X57303Y45998D01*
X57301Y46024D01*
X57300Y46050D01*
Y48950D01*
X57301Y48976D01*
X57303Y49002D01*
X57306Y49028D01*
X57311Y49054D01*
X57317Y49079D01*
X57325Y49104D01*
X57333Y49129D01*
X57343Y49153D01*
X57354Y49177D01*
X57367Y49200D01*
X57381Y49222D01*
X57396Y49244D01*
X57411Y49265D01*
X57428Y49285D01*
X57446Y49304D01*
X57465Y49322D01*
X57485Y49339D01*
X57506Y49355D01*
X57528Y49369D01*
X57550Y49383D01*
X57573Y49395D01*
X57597Y49407D01*
X57621Y49417D01*
X57646Y49426D01*
X57671Y49433D01*
X57696Y49439D01*
X57722Y49444D01*
X57748Y49447D01*
X57774Y49449D01*
X57800Y49450D01*
X64200D01*
X64226Y49449D01*
D02*
G37*
G36*
X102950Y42050D02*
X67050D01*
Y77950D01*
X102950D01*
Y42050D01*
D02*
G37*
G36*
X112226Y44449D02*
X112252Y44447D01*
X112278Y44444D01*
X112304Y44439D01*
X112329Y44433D01*
X112354Y44426D01*
X112379Y44417D01*
X112403Y44407D01*
X112427Y44395D01*
X112450Y44383D01*
X112472Y44369D01*
X112494Y44355D01*
X112515Y44339D01*
X112535Y44322D01*
X112554Y44304D01*
X112572Y44285D01*
X112589Y44265D01*
X112605Y44244D01*
X112619Y44222D01*
X112633Y44200D01*
X112646Y44177D01*
X112657Y44153D01*
X112667Y44129D01*
X112676Y44104D01*
X112683Y44079D01*
X112689Y44054D01*
X112694Y44028D01*
X112697Y44002D01*
X112699Y43976D01*
X112700Y43950D01*
Y41050D01*
X112699Y41024D01*
X112697Y40998D01*
X112694Y40972D01*
X112689Y40946D01*
X112683Y40921D01*
X112676Y40896D01*
X112667Y40871D01*
X112657Y40847D01*
X112646Y40823D01*
X112633Y40800D01*
X112619Y40778D01*
X112605Y40756D01*
X112589Y40735D01*
X112572Y40715D01*
X112554Y40697D01*
X112535Y40678D01*
X112515Y40661D01*
X112494Y40645D01*
X112472Y40631D01*
X112450Y40617D01*
X112427Y40605D01*
X112403Y40593D01*
X112379Y40583D01*
X112354Y40574D01*
X112329Y40567D01*
X112304Y40561D01*
X112278Y40556D01*
X112252Y40553D01*
X112226Y40551D01*
X112200Y40550D01*
X105800D01*
X105774Y40551D01*
X105748Y40553D01*
X105722Y40556D01*
X105696Y40561D01*
X105671Y40567D01*
X105646Y40574D01*
X105621Y40583D01*
X105597Y40593D01*
X105573Y40605D01*
X105550Y40617D01*
X105528Y40631D01*
X105506Y40645D01*
X105485Y40661D01*
X105465Y40678D01*
X105446Y40697D01*
X105428Y40715D01*
X105411Y40735D01*
X105395Y40756D01*
X105381Y40778D01*
X105367Y40800D01*
X105354Y40823D01*
X105343Y40847D01*
X105333Y40871D01*
X105324Y40896D01*
X105317Y40921D01*
X105311Y40946D01*
X105306Y40972D01*
X105303Y40998D01*
X105301Y41024D01*
X105300Y41050D01*
Y43950D01*
X105301Y43976D01*
X105303Y44002D01*
X105306Y44028D01*
X105311Y44054D01*
X105317Y44079D01*
X105324Y44104D01*
X105333Y44129D01*
X105343Y44153D01*
X105354Y44177D01*
X105367Y44200D01*
X105381Y44222D01*
X105395Y44244D01*
X105411Y44265D01*
X105428Y44285D01*
X105446Y44304D01*
X105465Y44322D01*
X105485Y44339D01*
X105506Y44355D01*
X105528Y44369D01*
X105550Y44383D01*
X105573Y44395D01*
X105597Y44407D01*
X105621Y44417D01*
X105646Y44426D01*
X105671Y44433D01*
X105696Y44439D01*
X105722Y44444D01*
X105748Y44447D01*
X105774Y44449D01*
X105800Y44450D01*
X112200D01*
X112226Y44449D01*
D02*
G37*
G36*
X64226D02*
X64252Y44447D01*
X64278Y44444D01*
X64304Y44439D01*
X64329Y44433D01*
X64355Y44426D01*
X64379Y44417D01*
X64403Y44407D01*
X64427Y44395D01*
X64450Y44383D01*
X64472Y44369D01*
X64494Y44355D01*
X64515Y44339D01*
X64535Y44322D01*
X64554Y44304D01*
X64572Y44285D01*
X64589Y44265D01*
X64605Y44244D01*
X64619Y44222D01*
X64633Y44200D01*
X64646Y44177D01*
X64657Y44153D01*
X64667Y44129D01*
X64675Y44104D01*
X64683Y44079D01*
X64689Y44054D01*
X64694Y44028D01*
X64697Y44002D01*
X64699Y43976D01*
X64700Y43950D01*
Y41050D01*
X64699Y41024D01*
X64697Y40998D01*
X64694Y40972D01*
X64689Y40946D01*
X64683Y40921D01*
X64675Y40896D01*
X64667Y40871D01*
X64657Y40847D01*
X64646Y40823D01*
X64633Y40800D01*
X64619Y40778D01*
X64605Y40756D01*
X64589Y40735D01*
X64572Y40715D01*
X64554Y40697D01*
X64535Y40678D01*
X64515Y40661D01*
X64494Y40645D01*
X64472Y40631D01*
X64450Y40617D01*
X64427Y40605D01*
X64403Y40593D01*
X64379Y40583D01*
X64355Y40574D01*
X64329Y40567D01*
X64304Y40561D01*
X64278Y40556D01*
X64252Y40553D01*
X64226Y40551D01*
X64200Y40550D01*
X57800D01*
X57774Y40551D01*
X57748Y40553D01*
X57722Y40556D01*
X57696Y40561D01*
X57671Y40567D01*
X57646Y40574D01*
X57621Y40583D01*
X57597Y40593D01*
X57573Y40605D01*
X57550Y40617D01*
X57528Y40631D01*
X57506Y40645D01*
X57485Y40661D01*
X57465Y40678D01*
X57446Y40697D01*
X57428Y40715D01*
X57411Y40735D01*
X57396Y40756D01*
X57381Y40778D01*
X57367Y40800D01*
X57354Y40823D01*
X57343Y40847D01*
X57333Y40871D01*
X57325Y40896D01*
X57317Y40921D01*
X57311Y40946D01*
X57306Y40972D01*
X57303Y40998D01*
X57301Y41024D01*
X57300Y41050D01*
Y43950D01*
X57301Y43976D01*
X57303Y44002D01*
X57306Y44028D01*
X57311Y44054D01*
X57317Y44079D01*
X57325Y44104D01*
X57333Y44129D01*
X57343Y44153D01*
X57354Y44177D01*
X57367Y44200D01*
X57381Y44222D01*
X57396Y44244D01*
X57411Y44265D01*
X57428Y44285D01*
X57446Y44304D01*
X57465Y44322D01*
X57485Y44339D01*
X57506Y44355D01*
X57528Y44369D01*
X57550Y44383D01*
X57573Y44395D01*
X57597Y44407D01*
X57621Y44417D01*
X57646Y44426D01*
X57671Y44433D01*
X57696Y44439D01*
X57722Y44444D01*
X57748Y44447D01*
X57774Y44449D01*
X57800Y44450D01*
X64200D01*
X64226Y44449D01*
D02*
G37*
G36*
X103976Y39699D02*
X104002Y39697D01*
X104028Y39694D01*
X104054Y39689D01*
X104079Y39683D01*
X104104Y39676D01*
X104129Y39667D01*
X104153Y39657D01*
X104177Y39646D01*
X104200Y39633D01*
X104222Y39619D01*
X104244Y39604D01*
X104265Y39589D01*
X104285Y39572D01*
X104304Y39554D01*
X104322Y39535D01*
X104339Y39515D01*
X104354Y39494D01*
X104369Y39472D01*
X104383Y39450D01*
X104396Y39427D01*
X104407Y39403D01*
X104417Y39379D01*
X104425Y39355D01*
X104433Y39329D01*
X104439Y39304D01*
X104444Y39278D01*
X104447Y39252D01*
X104449Y39226D01*
X104450Y39200D01*
Y32800D01*
X104449Y32774D01*
X104447Y32748D01*
X104444Y32722D01*
X104439Y32696D01*
X104433Y32671D01*
X104425Y32645D01*
X104417Y32621D01*
X104407Y32597D01*
X104396Y32573D01*
X104383Y32550D01*
X104369Y32528D01*
X104354Y32506D01*
X104339Y32485D01*
X104322Y32465D01*
X104304Y32446D01*
X104285Y32428D01*
X104265Y32411D01*
X104244Y32396D01*
X104222Y32381D01*
X104200Y32367D01*
X104177Y32355D01*
X104153Y32343D01*
X104129Y32333D01*
X104104Y32325D01*
X104079Y32317D01*
X104054Y32311D01*
X104028Y32306D01*
X104002Y32303D01*
X103976Y32301D01*
X103950Y32300D01*
X101050D01*
X101024Y32301D01*
X100998Y32303D01*
X100972Y32306D01*
X100946Y32311D01*
X100921Y32317D01*
X100896Y32325D01*
X100871Y32333D01*
X100847Y32343D01*
X100823Y32355D01*
X100800Y32367D01*
X100778Y32381D01*
X100756Y32396D01*
X100735Y32411D01*
X100715Y32428D01*
X100696Y32446D01*
X100678Y32465D01*
X100661Y32485D01*
X100646Y32506D01*
X100631Y32528D01*
X100617Y32550D01*
X100604Y32573D01*
X100593Y32597D01*
X100583Y32621D01*
X100575Y32645D01*
X100567Y32671D01*
X100561Y32696D01*
X100556Y32722D01*
X100553Y32748D01*
X100551Y32774D01*
X100550Y32800D01*
Y39200D01*
X100551Y39226D01*
X100553Y39252D01*
X100556Y39278D01*
X100561Y39304D01*
X100567Y39329D01*
X100575Y39355D01*
X100583Y39379D01*
X100593Y39403D01*
X100604Y39427D01*
X100617Y39450D01*
X100631Y39472D01*
X100646Y39494D01*
X100661Y39515D01*
X100678Y39535D01*
X100696Y39554D01*
X100715Y39572D01*
X100735Y39589D01*
X100756Y39604D01*
X100778Y39619D01*
X100800Y39633D01*
X100823Y39646D01*
X100847Y39657D01*
X100871Y39667D01*
X100896Y39676D01*
X100921Y39683D01*
X100946Y39689D01*
X100972Y39694D01*
X100998Y39697D01*
X101024Y39699D01*
X101050Y39700D01*
X103950D01*
X103976Y39699D01*
D02*
G37*
G36*
X98976D02*
X99002Y39697D01*
X99028Y39694D01*
X99054Y39689D01*
X99079Y39683D01*
X99104Y39676D01*
X99129Y39667D01*
X99153Y39657D01*
X99177Y39646D01*
X99200Y39633D01*
X99222Y39619D01*
X99244Y39604D01*
X99265Y39589D01*
X99285Y39572D01*
X99304Y39554D01*
X99322Y39535D01*
X99339Y39515D01*
X99354Y39494D01*
X99369Y39472D01*
X99383Y39450D01*
X99396Y39427D01*
X99407Y39403D01*
X99417Y39379D01*
X99425Y39355D01*
X99433Y39329D01*
X99439Y39304D01*
X99444Y39278D01*
X99447Y39252D01*
X99449Y39226D01*
X99450Y39200D01*
Y32800D01*
X99449Y32774D01*
X99447Y32748D01*
X99444Y32722D01*
X99439Y32696D01*
X99433Y32671D01*
X99425Y32645D01*
X99417Y32621D01*
X99407Y32597D01*
X99396Y32573D01*
X99383Y32550D01*
X99369Y32528D01*
X99354Y32506D01*
X99339Y32485D01*
X99322Y32465D01*
X99304Y32446D01*
X99285Y32428D01*
X99265Y32411D01*
X99244Y32396D01*
X99222Y32381D01*
X99200Y32367D01*
X99177Y32355D01*
X99153Y32343D01*
X99129Y32333D01*
X99104Y32325D01*
X99079Y32317D01*
X99054Y32311D01*
X99028Y32306D01*
X99002Y32303D01*
X98976Y32301D01*
X98950Y32300D01*
X96050D01*
X96024Y32301D01*
X95998Y32303D01*
X95972Y32306D01*
X95946Y32311D01*
X95921Y32317D01*
X95896Y32325D01*
X95871Y32333D01*
X95847Y32343D01*
X95823Y32355D01*
X95800Y32367D01*
X95778Y32381D01*
X95756Y32396D01*
X95735Y32411D01*
X95716Y32428D01*
X95696Y32446D01*
X95678Y32465D01*
X95661Y32485D01*
X95646Y32506D01*
X95631Y32528D01*
X95617Y32550D01*
X95604Y32573D01*
X95593Y32597D01*
X95583Y32621D01*
X95575Y32645D01*
X95567Y32671D01*
X95561Y32696D01*
X95556Y32722D01*
X95553Y32748D01*
X95551Y32774D01*
X95550Y32800D01*
Y39200D01*
X95551Y39226D01*
X95553Y39252D01*
X95556Y39278D01*
X95561Y39304D01*
X95567Y39329D01*
X95575Y39355D01*
X95583Y39379D01*
X95593Y39403D01*
X95604Y39427D01*
X95617Y39450D01*
X95631Y39472D01*
X95646Y39494D01*
X95661Y39515D01*
X95678Y39535D01*
X95696Y39554D01*
X95716Y39572D01*
X95735Y39589D01*
X95756Y39604D01*
X95778Y39619D01*
X95800Y39633D01*
X95823Y39646D01*
X95847Y39657D01*
X95871Y39667D01*
X95896Y39676D01*
X95921Y39683D01*
X95946Y39689D01*
X95972Y39694D01*
X95998Y39697D01*
X96024Y39699D01*
X96050Y39700D01*
X98950D01*
X98976Y39699D01*
D02*
G37*
G36*
X93976D02*
X94002Y39697D01*
X94028Y39694D01*
X94054Y39689D01*
X94079Y39683D01*
X94104Y39676D01*
X94129Y39667D01*
X94153Y39657D01*
X94177Y39646D01*
X94200Y39633D01*
X94222Y39619D01*
X94244Y39604D01*
X94265Y39589D01*
X94285Y39572D01*
X94304Y39554D01*
X94322Y39535D01*
X94339Y39515D01*
X94354Y39494D01*
X94369Y39472D01*
X94383Y39450D01*
X94396Y39427D01*
X94407Y39403D01*
X94417Y39379D01*
X94425Y39355D01*
X94433Y39329D01*
X94439Y39304D01*
X94444Y39278D01*
X94447Y39252D01*
X94449Y39226D01*
X94450Y39200D01*
Y32800D01*
X94449Y32774D01*
X94447Y32748D01*
X94444Y32722D01*
X94439Y32696D01*
X94433Y32671D01*
X94425Y32645D01*
X94417Y32621D01*
X94407Y32597D01*
X94396Y32573D01*
X94383Y32550D01*
X94369Y32528D01*
X94354Y32506D01*
X94339Y32485D01*
X94322Y32465D01*
X94304Y32446D01*
X94285Y32428D01*
X94265Y32411D01*
X94244Y32396D01*
X94222Y32381D01*
X94200Y32367D01*
X94177Y32355D01*
X94153Y32343D01*
X94129Y32333D01*
X94104Y32325D01*
X94079Y32317D01*
X94054Y32311D01*
X94028Y32306D01*
X94002Y32303D01*
X93976Y32301D01*
X93950Y32300D01*
X91050D01*
X91024Y32301D01*
X90998Y32303D01*
X90972Y32306D01*
X90946Y32311D01*
X90921Y32317D01*
X90896Y32325D01*
X90871Y32333D01*
X90847Y32343D01*
X90823Y32355D01*
X90800Y32367D01*
X90778Y32381D01*
X90756Y32396D01*
X90735Y32411D01*
X90715Y32428D01*
X90696Y32446D01*
X90678Y32465D01*
X90661Y32485D01*
X90646Y32506D01*
X90631Y32528D01*
X90617Y32550D01*
X90604Y32573D01*
X90593Y32597D01*
X90583Y32621D01*
X90575Y32645D01*
X90567Y32671D01*
X90561Y32696D01*
X90556Y32722D01*
X90553Y32748D01*
X90551Y32774D01*
X90550Y32800D01*
Y39200D01*
X90551Y39226D01*
X90553Y39252D01*
X90556Y39278D01*
X90561Y39304D01*
X90567Y39329D01*
X90575Y39355D01*
X90583Y39379D01*
X90593Y39403D01*
X90604Y39427D01*
X90617Y39450D01*
X90631Y39472D01*
X90646Y39494D01*
X90661Y39515D01*
X90678Y39535D01*
X90696Y39554D01*
X90715Y39572D01*
X90735Y39589D01*
X90756Y39604D01*
X90778Y39619D01*
X90800Y39633D01*
X90823Y39646D01*
X90847Y39657D01*
X90871Y39667D01*
X90896Y39676D01*
X90921Y39683D01*
X90946Y39689D01*
X90972Y39694D01*
X90998Y39697D01*
X91024Y39699D01*
X91050Y39700D01*
X93950D01*
X93976Y39699D01*
D02*
G37*
G36*
X88976D02*
X89002Y39697D01*
X89028Y39694D01*
X89054Y39689D01*
X89079Y39683D01*
X89104Y39676D01*
X89129Y39667D01*
X89153Y39657D01*
X89177Y39646D01*
X89200Y39633D01*
X89222Y39619D01*
X89244Y39604D01*
X89265Y39589D01*
X89285Y39572D01*
X89304Y39554D01*
X89322Y39535D01*
X89339Y39515D01*
X89354Y39494D01*
X89369Y39472D01*
X89383Y39450D01*
X89396Y39427D01*
X89407Y39403D01*
X89417Y39379D01*
X89425Y39355D01*
X89433Y39329D01*
X89439Y39304D01*
X89444Y39278D01*
X89447Y39252D01*
X89449Y39226D01*
X89450Y39200D01*
Y32800D01*
X89449Y32774D01*
X89447Y32748D01*
X89444Y32722D01*
X89439Y32696D01*
X89433Y32671D01*
X89425Y32645D01*
X89417Y32621D01*
X89407Y32597D01*
X89396Y32573D01*
X89383Y32550D01*
X89369Y32528D01*
X89354Y32506D01*
X89339Y32485D01*
X89322Y32465D01*
X89304Y32446D01*
X89285Y32428D01*
X89265Y32411D01*
X89244Y32396D01*
X89222Y32381D01*
X89200Y32367D01*
X89177Y32355D01*
X89153Y32343D01*
X89129Y32333D01*
X89104Y32325D01*
X89079Y32317D01*
X89054Y32311D01*
X89028Y32306D01*
X89002Y32303D01*
X88976Y32301D01*
X88950Y32300D01*
X86050D01*
X86024Y32301D01*
X85998Y32303D01*
X85972Y32306D01*
X85946Y32311D01*
X85921Y32317D01*
X85896Y32325D01*
X85871Y32333D01*
X85847Y32343D01*
X85823Y32355D01*
X85800Y32367D01*
X85778Y32381D01*
X85756Y32396D01*
X85735Y32411D01*
X85715Y32428D01*
X85696Y32446D01*
X85678Y32465D01*
X85661Y32485D01*
X85646Y32506D01*
X85631Y32528D01*
X85617Y32550D01*
X85604Y32573D01*
X85593Y32597D01*
X85583Y32621D01*
X85575Y32645D01*
X85567Y32671D01*
X85561Y32696D01*
X85556Y32722D01*
X85553Y32748D01*
X85551Y32774D01*
X85550Y32800D01*
Y39200D01*
X85551Y39226D01*
X85553Y39252D01*
X85556Y39278D01*
X85561Y39304D01*
X85567Y39329D01*
X85575Y39355D01*
X85583Y39379D01*
X85593Y39403D01*
X85604Y39427D01*
X85617Y39450D01*
X85631Y39472D01*
X85646Y39494D01*
X85661Y39515D01*
X85678Y39535D01*
X85696Y39554D01*
X85715Y39572D01*
X85735Y39589D01*
X85756Y39604D01*
X85778Y39619D01*
X85800Y39633D01*
X85823Y39646D01*
X85847Y39657D01*
X85871Y39667D01*
X85896Y39676D01*
X85921Y39683D01*
X85946Y39689D01*
X85972Y39694D01*
X85998Y39697D01*
X86024Y39699D01*
X86050Y39700D01*
X88950D01*
X88976Y39699D01*
D02*
G37*
G36*
X83976D02*
X84002Y39697D01*
X84028Y39694D01*
X84054Y39689D01*
X84079Y39683D01*
X84104Y39676D01*
X84129Y39667D01*
X84153Y39657D01*
X84177Y39646D01*
X84200Y39633D01*
X84222Y39619D01*
X84244Y39604D01*
X84265Y39589D01*
X84285Y39572D01*
X84304Y39554D01*
X84322Y39535D01*
X84339Y39515D01*
X84354Y39494D01*
X84369Y39472D01*
X84383Y39450D01*
X84396Y39427D01*
X84407Y39403D01*
X84417Y39379D01*
X84425Y39355D01*
X84433Y39329D01*
X84439Y39304D01*
X84444Y39278D01*
X84447Y39252D01*
X84449Y39226D01*
X84450Y39200D01*
Y32800D01*
X84449Y32774D01*
X84447Y32748D01*
X84444Y32722D01*
X84439Y32696D01*
X84433Y32671D01*
X84425Y32645D01*
X84417Y32621D01*
X84407Y32597D01*
X84396Y32573D01*
X84383Y32550D01*
X84369Y32528D01*
X84354Y32506D01*
X84339Y32485D01*
X84322Y32465D01*
X84304Y32446D01*
X84285Y32428D01*
X84265Y32411D01*
X84244Y32396D01*
X84222Y32381D01*
X84200Y32367D01*
X84177Y32355D01*
X84153Y32343D01*
X84129Y32333D01*
X84104Y32325D01*
X84079Y32317D01*
X84054Y32311D01*
X84028Y32306D01*
X84002Y32303D01*
X83976Y32301D01*
X83950Y32300D01*
X81050D01*
X81024Y32301D01*
X80998Y32303D01*
X80972Y32306D01*
X80946Y32311D01*
X80921Y32317D01*
X80896Y32325D01*
X80871Y32333D01*
X80847Y32343D01*
X80823Y32355D01*
X80800Y32367D01*
X80778Y32381D01*
X80756Y32396D01*
X80735Y32411D01*
X80715Y32428D01*
X80696Y32446D01*
X80678Y32465D01*
X80661Y32485D01*
X80646Y32506D01*
X80631Y32528D01*
X80617Y32550D01*
X80604Y32573D01*
X80593Y32597D01*
X80583Y32621D01*
X80575Y32645D01*
X80567Y32671D01*
X80561Y32696D01*
X80556Y32722D01*
X80553Y32748D01*
X80551Y32774D01*
X80550Y32800D01*
Y39200D01*
X80551Y39226D01*
X80553Y39252D01*
X80556Y39278D01*
X80561Y39304D01*
X80567Y39329D01*
X80575Y39355D01*
X80583Y39379D01*
X80593Y39403D01*
X80604Y39427D01*
X80617Y39450D01*
X80631Y39472D01*
X80646Y39494D01*
X80661Y39515D01*
X80678Y39535D01*
X80696Y39554D01*
X80715Y39572D01*
X80735Y39589D01*
X80756Y39604D01*
X80778Y39619D01*
X80800Y39633D01*
X80823Y39646D01*
X80847Y39657D01*
X80871Y39667D01*
X80896Y39676D01*
X80921Y39683D01*
X80946Y39689D01*
X80972Y39694D01*
X80998Y39697D01*
X81024Y39699D01*
X81050Y39700D01*
X83950D01*
X83976Y39699D01*
D02*
G37*
G36*
X78976D02*
X79002Y39697D01*
X79028Y39694D01*
X79054Y39689D01*
X79079Y39683D01*
X79104Y39676D01*
X79129Y39667D01*
X79153Y39657D01*
X79177Y39646D01*
X79200Y39633D01*
X79222Y39619D01*
X79244Y39604D01*
X79265Y39589D01*
X79285Y39572D01*
X79303Y39554D01*
X79322Y39535D01*
X79339Y39515D01*
X79355Y39494D01*
X79369Y39472D01*
X79383Y39450D01*
X79395Y39427D01*
X79407Y39403D01*
X79417Y39379D01*
X79426Y39355D01*
X79433Y39329D01*
X79439Y39304D01*
X79444Y39278D01*
X79447Y39252D01*
X79449Y39226D01*
X79450Y39200D01*
Y32800D01*
X79449Y32774D01*
X79447Y32748D01*
X79444Y32722D01*
X79439Y32696D01*
X79433Y32671D01*
X79426Y32645D01*
X79417Y32621D01*
X79407Y32597D01*
X79395Y32573D01*
X79383Y32550D01*
X79369Y32528D01*
X79355Y32506D01*
X79339Y32485D01*
X79322Y32465D01*
X79303Y32446D01*
X79285Y32428D01*
X79265Y32411D01*
X79244Y32396D01*
X79222Y32381D01*
X79200Y32367D01*
X79177Y32355D01*
X79153Y32343D01*
X79129Y32333D01*
X79104Y32325D01*
X79079Y32317D01*
X79054Y32311D01*
X79028Y32306D01*
X79002Y32303D01*
X78976Y32301D01*
X78950Y32300D01*
X76050D01*
X76024Y32301D01*
X75998Y32303D01*
X75972Y32306D01*
X75946Y32311D01*
X75921Y32317D01*
X75896Y32325D01*
X75871Y32333D01*
X75847Y32343D01*
X75823Y32355D01*
X75800Y32367D01*
X75778Y32381D01*
X75756Y32396D01*
X75735Y32411D01*
X75715Y32428D01*
X75696Y32446D01*
X75678Y32465D01*
X75661Y32485D01*
X75645Y32506D01*
X75631Y32528D01*
X75617Y32550D01*
X75605Y32573D01*
X75593Y32597D01*
X75583Y32621D01*
X75574Y32645D01*
X75567Y32671D01*
X75561Y32696D01*
X75556Y32722D01*
X75553Y32748D01*
X75551Y32774D01*
X75550Y32800D01*
Y39200D01*
X75551Y39226D01*
X75553Y39252D01*
X75556Y39278D01*
X75561Y39304D01*
X75567Y39329D01*
X75574Y39355D01*
X75583Y39379D01*
X75593Y39403D01*
X75605Y39427D01*
X75617Y39450D01*
X75631Y39472D01*
X75645Y39494D01*
X75661Y39515D01*
X75678Y39535D01*
X75696Y39554D01*
X75715Y39572D01*
X75735Y39589D01*
X75756Y39604D01*
X75778Y39619D01*
X75800Y39633D01*
X75823Y39646D01*
X75847Y39657D01*
X75871Y39667D01*
X75896Y39676D01*
X75921Y39683D01*
X75946Y39689D01*
X75972Y39694D01*
X75998Y39697D01*
X76024Y39699D01*
X76050Y39700D01*
X78950D01*
X78976Y39699D01*
D02*
G37*
G36*
X73976D02*
X74002Y39697D01*
X74028Y39694D01*
X74054Y39689D01*
X74079Y39683D01*
X74104Y39676D01*
X74129Y39667D01*
X74153Y39657D01*
X74177Y39646D01*
X74200Y39633D01*
X74222Y39619D01*
X74244Y39604D01*
X74265Y39589D01*
X74285Y39572D01*
X74304Y39554D01*
X74322Y39535D01*
X74339Y39515D01*
X74355Y39494D01*
X74369Y39472D01*
X74383Y39450D01*
X74395Y39427D01*
X74407Y39403D01*
X74417Y39379D01*
X74426Y39355D01*
X74433Y39329D01*
X74439Y39304D01*
X74444Y39278D01*
X74447Y39252D01*
X74449Y39226D01*
X74450Y39200D01*
Y32800D01*
X74449Y32774D01*
X74447Y32748D01*
X74444Y32722D01*
X74439Y32696D01*
X74433Y32671D01*
X74426Y32645D01*
X74417Y32621D01*
X74407Y32597D01*
X74395Y32573D01*
X74383Y32550D01*
X74369Y32528D01*
X74355Y32506D01*
X74339Y32485D01*
X74322Y32465D01*
X74304Y32446D01*
X74285Y32428D01*
X74265Y32411D01*
X74244Y32396D01*
X74222Y32381D01*
X74200Y32367D01*
X74177Y32355D01*
X74153Y32343D01*
X74129Y32333D01*
X74104Y32325D01*
X74079Y32317D01*
X74054Y32311D01*
X74028Y32306D01*
X74002Y32303D01*
X73976Y32301D01*
X73950Y32300D01*
X71050D01*
X71024Y32301D01*
X70998Y32303D01*
X70972Y32306D01*
X70946Y32311D01*
X70921Y32317D01*
X70896Y32325D01*
X70871Y32333D01*
X70847Y32343D01*
X70823Y32355D01*
X70800Y32367D01*
X70778Y32381D01*
X70756Y32396D01*
X70735Y32411D01*
X70715Y32428D01*
X70697Y32446D01*
X70678Y32465D01*
X70661Y32485D01*
X70645Y32506D01*
X70631Y32528D01*
X70617Y32550D01*
X70605Y32573D01*
X70593Y32597D01*
X70583Y32621D01*
X70574Y32645D01*
X70567Y32671D01*
X70561Y32696D01*
X70556Y32722D01*
X70553Y32748D01*
X70551Y32774D01*
X70550Y32800D01*
Y39200D01*
X70551Y39226D01*
X70553Y39252D01*
X70556Y39278D01*
X70561Y39304D01*
X70567Y39329D01*
X70574Y39355D01*
X70583Y39379D01*
X70593Y39403D01*
X70605Y39427D01*
X70617Y39450D01*
X70631Y39472D01*
X70645Y39494D01*
X70661Y39515D01*
X70678Y39535D01*
X70697Y39554D01*
X70715Y39572D01*
X70735Y39589D01*
X70756Y39604D01*
X70778Y39619D01*
X70800Y39633D01*
X70823Y39646D01*
X70847Y39657D01*
X70871Y39667D01*
X70896Y39676D01*
X70921Y39683D01*
X70946Y39689D01*
X70972Y39694D01*
X70998Y39697D01*
X71024Y39699D01*
X71050Y39700D01*
X73950D01*
X73976Y39699D01*
D02*
G37*
G36*
X68976D02*
X69002Y39697D01*
X69028Y39694D01*
X69054Y39689D01*
X69079Y39683D01*
X69104Y39676D01*
X69129Y39667D01*
X69153Y39657D01*
X69177Y39646D01*
X69200Y39633D01*
X69222Y39619D01*
X69244Y39604D01*
X69265Y39589D01*
X69285Y39572D01*
X69304Y39554D01*
X69322Y39535D01*
X69339Y39515D01*
X69355Y39494D01*
X69369Y39472D01*
X69383Y39450D01*
X69395Y39427D01*
X69407Y39403D01*
X69417Y39379D01*
X69426Y39355D01*
X69433Y39329D01*
X69439Y39304D01*
X69444Y39278D01*
X69447Y39252D01*
X69449Y39226D01*
X69450Y39200D01*
Y32800D01*
X69449Y32774D01*
X69447Y32748D01*
X69444Y32722D01*
X69439Y32696D01*
X69433Y32671D01*
X69426Y32645D01*
X69417Y32621D01*
X69407Y32597D01*
X69395Y32573D01*
X69383Y32550D01*
X69369Y32528D01*
X69355Y32506D01*
X69339Y32485D01*
X69322Y32465D01*
X69304Y32446D01*
X69285Y32428D01*
X69265Y32411D01*
X69244Y32396D01*
X69222Y32381D01*
X69200Y32367D01*
X69177Y32355D01*
X69153Y32343D01*
X69129Y32333D01*
X69104Y32325D01*
X69079Y32317D01*
X69054Y32311D01*
X69028Y32306D01*
X69002Y32303D01*
X68976Y32301D01*
X68950Y32300D01*
X66050D01*
X66024Y32301D01*
X65998Y32303D01*
X65972Y32306D01*
X65946Y32311D01*
X65921Y32317D01*
X65896Y32325D01*
X65871Y32333D01*
X65847Y32343D01*
X65823Y32355D01*
X65800Y32367D01*
X65778Y32381D01*
X65756Y32396D01*
X65735Y32411D01*
X65715Y32428D01*
X65697Y32446D01*
X65678Y32465D01*
X65661Y32485D01*
X65645Y32506D01*
X65631Y32528D01*
X65617Y32550D01*
X65605Y32573D01*
X65593Y32597D01*
X65583Y32621D01*
X65574Y32645D01*
X65567Y32671D01*
X65561Y32696D01*
X65556Y32722D01*
X65553Y32748D01*
X65551Y32774D01*
X65550Y32800D01*
Y39200D01*
X65551Y39226D01*
X65553Y39252D01*
X65556Y39278D01*
X65561Y39304D01*
X65567Y39329D01*
X65574Y39355D01*
X65583Y39379D01*
X65593Y39403D01*
X65605Y39427D01*
X65617Y39450D01*
X65631Y39472D01*
X65645Y39494D01*
X65661Y39515D01*
X65678Y39535D01*
X65697Y39554D01*
X65715Y39572D01*
X65735Y39589D01*
X65756Y39604D01*
X65778Y39619D01*
X65800Y39633D01*
X65823Y39646D01*
X65847Y39657D01*
X65871Y39667D01*
X65896Y39676D01*
X65921Y39683D01*
X65946Y39689D01*
X65972Y39694D01*
X65998Y39697D01*
X66024Y39699D01*
X66050Y39700D01*
X68950D01*
X68976Y39699D01*
D02*
G37*
D22*
X140000Y214500D02*
D03*
Y205000D02*
D03*
Y195500D02*
D03*
X167051D02*
D03*
Y205000D02*
D03*
Y214500D02*
D03*
D27*
X-153250Y126000D02*
D03*
X-178650Y34000D02*
D03*
X-140550Y126000D02*
D03*
X-165950D02*
D03*
X-178650D02*
D03*
X-165950Y34000D02*
D03*
X-191350D02*
D03*
X-204050D02*
D03*
Y126000D02*
D03*
X-229450Y34000D02*
D03*
X-191350Y126000D02*
D03*
X-216750D02*
D03*
Y34000D02*
D03*
X-229450Y126000D02*
D03*
X-153250Y34000D02*
D03*
X-140550D02*
D03*
D28*
X50000Y291110D02*
D03*
Y308890D02*
D03*
D29*
X-53356Y310500D02*
D03*
Y304000D02*
D03*
Y297500D02*
D03*
Y291000D02*
D03*
Y284500D02*
D03*
Y278000D02*
D03*
Y271500D02*
D03*
Y265000D02*
D03*
Y258500D02*
D03*
Y252000D02*
D03*
Y245500D02*
D03*
Y239000D02*
D03*
Y232500D02*
D03*
Y226000D02*
D03*
X5000D02*
D03*
Y232500D02*
D03*
Y239000D02*
D03*
Y245500D02*
D03*
Y252000D02*
D03*
Y258500D02*
D03*
Y265000D02*
D03*
Y271500D02*
D03*
Y278000D02*
D03*
Y284500D02*
D03*
Y291000D02*
D03*
Y297500D02*
D03*
Y304000D02*
D03*
Y310500D02*
D03*
D30*
X-104300Y276650D02*
D03*
X-110800D02*
D03*
X-117300D02*
D03*
X-123800D02*
D03*
X-130300D02*
D03*
D31*
X-85175Y281400D02*
D03*
X-149425D02*
D03*
D32*
X-84600Y305000D02*
D03*
X-150000D02*
D03*
D33*
X-119500Y-185000D02*
D03*
X109500D02*
D03*
D34*
X-5000D02*
D03*
D35*
X53500Y195250D02*
D03*
Y201750D02*
D03*
Y208250D02*
D03*
Y214750D02*
D03*
X96500D02*
D03*
Y208250D02*
D03*
Y201750D02*
D03*
Y195250D02*
D03*
D36*
X199200Y-279000D02*
D03*
X-250000Y-279000D02*
D03*
D37*
X199200Y-253600D02*
D03*
Y-228200D02*
D03*
Y-202800D02*
D03*
Y-177400D02*
D03*
Y-152000D02*
D03*
Y-126600D02*
D03*
Y-101200D02*
D03*
Y-75800D02*
D03*
Y-50400D02*
D03*
Y-25000D02*
D03*
Y400D02*
D03*
X-250000Y400D02*
D03*
Y-25000D02*
D03*
Y-50400D02*
D03*
Y-75800D02*
D03*
Y-101200D02*
D03*
Y-126600D02*
D03*
Y-152000D02*
D03*
Y-177400D02*
D03*
Y-202800D02*
D03*
Y-228200D02*
D03*
Y-253600D02*
D03*
D38*
X-97300Y283500D02*
D03*
X-137300D02*
D03*
D39*
X-215000Y185000D02*
D03*
D40*
Y245000D02*
D03*
D41*
X-262000Y215000D02*
D03*
D42*
X200000Y115000D02*
D03*
X155000Y50000D02*
D03*
X130000Y-230000D02*
D03*
X170000Y-255000D02*
D03*
X160000Y-280000D02*
D03*
X-120000Y-140000D02*
D03*
X180000Y195000D02*
D03*
X86810Y98686D02*
D03*
X120007Y8448D02*
D03*
X40000Y72810D02*
D03*
X20000Y70000D02*
D03*
X-115000Y260000D02*
D03*
X-105000D02*
D03*
X-30000Y290000D02*
D03*
X-153250Y142920D02*
D03*
X100000Y145000D02*
D03*
X0Y55000D02*
D03*
X65000Y10000D02*
D03*
X-40000Y0D02*
D03*
X-135000Y260000D02*
D03*
X-10000Y255000D02*
D03*
X-40000Y245000D02*
D03*
X-165000Y140000D02*
D03*
X-255000Y145000D02*
D03*
X-145000Y15000D02*
D03*
X-180000Y10000D02*
D03*
X124543Y31024D02*
D03*
X50000Y80064D02*
D03*
X75000Y10000D02*
D03*
X50000Y25000D02*
D03*
X115000D02*
D03*
X45000Y35000D02*
D03*
X-85000Y250000D02*
D03*
X-135000Y210000D02*
D03*
X125000Y40000D02*
D03*
X105000Y25000D02*
D03*
X85000Y10000D02*
D03*
X-30000Y30000D02*
D03*
Y40000D02*
D03*
X135000Y75000D02*
D03*
X125000Y66168D02*
D03*
X100000Y95000D02*
D03*
X-20000Y40000D02*
D03*
X16760Y36760D02*
D03*
X45000Y45000D02*
D03*
X35000Y23072D02*
D03*
X69521Y17048D02*
D03*
X-40000Y27048D02*
D03*
X-50000D02*
D03*
X-8240Y61760D02*
D03*
X-65000Y30000D02*
D03*
X-25000Y90000D02*
D03*
X-75000Y35000D02*
D03*
X-35000Y95000D02*
D03*
X-135000Y15000D02*
D03*
X84229Y119229D02*
D03*
X25000Y130000D02*
D03*
X-20001Y124999D02*
D03*
X-125000Y110000D02*
D03*
X-45000Y215000D02*
D03*
X-65000Y248976D02*
D03*
X-30000Y255000D02*
D03*
X-20000Y264750D02*
D03*
X65000Y245000D02*
D03*
X130000Y195000D02*
D03*
X115000Y215000D02*
D03*
Y230000D02*
D03*
X40000Y202040D02*
D03*
X35000Y195000D02*
D03*
Y210000D02*
D03*
Y230000D02*
D03*
X25000Y235000D02*
D03*
X-115000Y150000D02*
D03*
M02*
