G04*
G04 #@! TF.GenerationSoftware,Altium Limited,Altium Designer,23.2.1 (34)*
G04*
G04 Layer_Physical_Order=2*
G04 Layer_Color=16711680*
%FSLAX44Y44*%
%MOMM*%
G71*
G04*
G04 #@! TF.SameCoordinates,42A8F1EF-7107-4BB4-9A72-9FAECD8FE37F*
G04*
G04*
G04 #@! TF.FilePolarity,Positive*
G04*
G01*
G75*
%ADD17R,1.4500X1.1500*%
%ADD38C,0.5000*%
%ADD45C,0.3048*%
%ADD46C,0.3810*%
%ADD47C,0.5080*%
%ADD48C,0.2540*%
%ADD49R,1.7780X1.7780*%
%ADD50C,1.7780*%
%ADD51O,5.0000X2.5000*%
%ADD52O,4.5000X2.2500*%
%ADD53O,2.2500X4.5000*%
%ADD54C,0.4000*%
%ADD55C,0.4064*%
%ADD56R,1.7018X1.8796*%
%ADD57R,2.3300X1.5600*%
%ADD58R,1.6000X2.7000*%
%ADD59R,1.0400X1.0200*%
%ADD60R,1.2000X1.4700*%
%ADD61R,2.7000X1.6000*%
%ADD62R,1.0200X1.0400*%
%ADD63R,1.5000X2.1200*%
%ADD64R,1.1500X1.4500*%
G36*
X220000Y181770D02*
X220000Y180500D01*
X218730Y180500D01*
X214629D01*
Y185650D01*
X216600D01*
Y204350D01*
X214629D01*
Y280000D01*
X214277Y281771D01*
X213273Y283273D01*
X213273Y283273D01*
X203273Y293273D01*
X201771Y294277D01*
X200000Y294629D01*
X200000Y294629D01*
X103276D01*
X101504Y294277D01*
X100003Y293273D01*
X100003Y293273D01*
X97027Y290297D01*
X96023Y288796D01*
X95686Y287100D01*
X93100D01*
Y272900D01*
X95671D01*
Y267217D01*
X93621Y265167D01*
X92618Y263666D01*
X92265Y261894D01*
X92265Y261894D01*
Y254250D01*
X89470D01*
Y249629D01*
X66917D01*
X18980Y297566D01*
X17479Y298569D01*
X15707Y298922D01*
X15707Y298922D01*
X-115707D01*
X-115707Y298922D01*
X-117479Y298569D01*
X-118981Y297566D01*
X-131225Y285322D01*
X-132723Y285620D01*
X-133027Y286355D01*
X-134445Y287773D01*
X-136298Y288540D01*
X-138302D01*
X-140155Y287773D01*
X-141573Y286355D01*
X-142340Y284503D01*
Y282498D01*
X-141573Y280645D01*
X-140155Y279227D01*
X-139378Y278906D01*
X-138901Y277333D01*
X-139277Y276771D01*
X-139629Y275000D01*
X-139629Y275000D01*
Y260000D01*
X-139500Y259352D01*
Y259105D01*
X-139406Y258877D01*
X-139277Y258229D01*
X-138909Y257679D01*
X-138815Y257451D01*
X-138640Y257276D01*
X-138636Y257270D01*
X-138750Y257051D01*
Y241250D01*
X-129500D01*
Y256000D01*
X-130703D01*
X-131364Y257270D01*
X-131360Y257276D01*
X-131185Y257451D01*
X-131091Y257679D01*
X-130723Y258229D01*
X-130595Y258877D01*
X-130500Y259105D01*
Y259352D01*
X-130371Y260000D01*
Y273083D01*
X-113790Y289664D01*
X-98908D01*
X-98656Y288394D01*
X-100155Y287773D01*
X-101573Y286355D01*
X-102340Y284503D01*
Y282498D01*
X-101573Y280645D01*
X-100155Y279227D01*
X-98302Y278460D01*
X-96298D01*
X-94445Y279227D01*
X-93027Y280645D01*
X-92260Y282498D01*
Y284503D01*
X-93027Y286355D01*
X-94445Y287773D01*
X-95944Y288394D01*
X-95692Y289664D01*
X-34562D01*
X-34500Y289352D01*
Y289105D01*
X-34406Y288877D01*
X-34277Y288229D01*
X-33909Y287679D01*
X-33815Y287451D01*
X-33640Y287276D01*
X-33273Y286727D01*
X-32724Y286360D01*
X-32549Y286185D01*
X-32321Y286091D01*
X-31771Y285723D01*
X-31123Y285595D01*
X-30895Y285500D01*
X-30648D01*
X-30000Y285371D01*
X-29352Y285500D01*
X-29105D01*
X-28877Y285595D01*
X-28229Y285723D01*
X-27679Y286091D01*
X-27451Y286185D01*
X-27276Y286360D01*
X-26727Y286727D01*
X-26360Y287276D01*
X-26185Y287451D01*
X-26091Y287679D01*
X-25723Y288229D01*
X-25594Y288877D01*
X-25500Y289105D01*
Y289352D01*
X-25438Y289664D01*
X13790D01*
X61727Y241727D01*
X61727Y241727D01*
X62277Y241360D01*
X62451Y241185D01*
X62679Y241091D01*
X63229Y240723D01*
X63877Y240594D01*
X64105Y240500D01*
X64352D01*
X65000Y240371D01*
X65000Y240371D01*
X89470D01*
Y235750D01*
X104970D01*
Y254250D01*
X101523D01*
Y259977D01*
X103573Y262027D01*
X104577Y263529D01*
X104929Y265300D01*
X104929Y265300D01*
Y272900D01*
X107500D01*
Y272900D01*
X107800D01*
Y272900D01*
X111407D01*
Y254250D01*
X107250D01*
Y235750D01*
X111407D01*
Y232771D01*
X111185Y232549D01*
X110500Y230895D01*
Y229105D01*
X111185Y227451D01*
X112451Y226185D01*
X114105Y225500D01*
X115895D01*
X117549Y226185D01*
X118815Y227451D01*
X119500Y229105D01*
Y230895D01*
X118815Y232549D01*
X118593Y232771D01*
Y235750D01*
X122750D01*
Y241407D01*
X127800D01*
Y237900D01*
X142200D01*
Y237900D01*
X142500D01*
Y237900D01*
X146107D01*
Y218593D01*
X117771D01*
X117549Y218815D01*
X115895Y219500D01*
X114105D01*
X112451Y218815D01*
X111185Y217549D01*
X110500Y215895D01*
Y214105D01*
X110699Y213625D01*
X109993Y212569D01*
X48993D01*
X36821Y224741D01*
X37069Y225986D01*
X37549Y226185D01*
X38815Y227451D01*
X39500Y229105D01*
Y230895D01*
X38815Y232549D01*
X38593Y232771D01*
Y252984D01*
X38319Y254359D01*
X37541Y255524D01*
X19750Y273315D01*
X18585Y274093D01*
X17210Y274367D01*
X-104226D01*
X-105601Y274093D01*
X-106767Y273315D01*
X-115581Y264500D01*
X-115895D01*
X-117549Y263815D01*
X-118815Y262549D01*
X-119500Y260895D01*
Y259105D01*
X-118815Y257451D01*
X-118134Y256770D01*
X-118660Y255500D01*
X-120000D01*
Y224500D01*
X-114629D01*
Y204800D01*
X-123650D01*
Y185200D01*
X-96350D01*
Y204800D01*
X-105371D01*
Y224500D01*
X-100000D01*
Y235371D01*
X-89629D01*
Y220000D01*
X-89629Y220000D01*
X-89277Y218229D01*
X-88273Y216727D01*
X-83273Y211727D01*
X-81771Y210723D01*
X-80000Y210371D01*
X-80000Y210371D01*
X-45000D01*
X-44352Y210500D01*
X-44105D01*
X-43877Y210594D01*
X-43229Y210723D01*
X-42679Y211091D01*
X-42451Y211185D01*
X-42277Y211360D01*
X-41727Y211727D01*
X-41360Y212276D01*
X-41185Y212451D01*
X-41091Y212679D01*
X-40723Y213229D01*
X-40595Y213877D01*
X-40500Y214105D01*
Y214352D01*
X-40371Y215000D01*
X-40500Y215648D01*
Y215895D01*
X-40595Y216123D01*
X-40723Y216771D01*
X-41091Y217321D01*
X-41185Y217549D01*
X-41360Y217724D01*
X-41727Y218273D01*
X-42277Y218640D01*
X-42451Y218815D01*
X-42679Y218909D01*
X-43229Y219277D01*
X-43877Y219406D01*
X-44105Y219500D01*
X-44352D01*
X-45000Y219629D01*
X-78083D01*
X-80371Y221917D01*
Y240000D01*
Y250000D01*
X-80500Y250648D01*
Y250895D01*
X-80595Y251123D01*
X-80723Y251771D01*
X-81091Y252321D01*
X-81185Y252549D01*
X-81360Y252724D01*
X-81727Y253273D01*
X-82276Y253640D01*
X-82451Y253815D01*
X-82679Y253909D01*
X-83229Y254277D01*
X-83877Y254406D01*
X-84105Y254500D01*
X-84352D01*
X-85000Y254629D01*
X-85648Y254500D01*
X-85895D01*
X-86123Y254406D01*
X-86771Y254277D01*
X-87321Y253909D01*
X-87549Y253815D01*
X-87724Y253640D01*
X-88273Y253273D01*
X-88640Y252724D01*
X-88815Y252549D01*
X-88909Y252321D01*
X-89277Y251771D01*
X-89406Y251123D01*
X-89500Y250895D01*
Y250648D01*
X-89629Y250000D01*
Y244629D01*
X-100000D01*
Y255500D01*
X-99124Y256407D01*
X-66488D01*
X-64827Y254746D01*
X-65353Y253476D01*
X-65895D01*
X-67549Y252791D01*
X-68815Y251525D01*
X-69500Y249871D01*
Y248081D01*
X-68815Y246427D01*
X-67549Y245161D01*
X-65895Y244476D01*
X-65581D01*
X-42839Y221733D01*
X-41673Y220954D01*
X-40298Y220681D01*
X-9250D01*
Y206140D01*
X9250D01*
Y208873D01*
X10520Y209399D01*
X12459Y207459D01*
X13625Y206681D01*
X15000Y206407D01*
X17900D01*
Y202800D01*
X17900D01*
Y202500D01*
X17900D01*
Y188100D01*
X20371D01*
Y181917D01*
X18083Y179629D01*
X15500D01*
Y180000D01*
X4629D01*
Y188360D01*
X9250D01*
Y203860D01*
X-9250D01*
Y199567D01*
X-48288D01*
X-48600Y199629D01*
X-53550D01*
Y204800D01*
X-80850D01*
Y185200D01*
X-53550D01*
X-53229Y184063D01*
Y159800D01*
X-62250D01*
Y140200D01*
X-34950D01*
Y159800D01*
X-43971D01*
Y190309D01*
X-9250D01*
Y188360D01*
X-4629D01*
Y180000D01*
X-15500D01*
Y160000D01*
X-13224D01*
X-12738Y158827D01*
X-19565Y152000D01*
X-20343Y150835D01*
X-20617Y149460D01*
Y130540D01*
X-20505Y129976D01*
X-20896Y129499D01*
X-22550Y128813D01*
X-23816Y127548D01*
X-24501Y125894D01*
Y125580D01*
X-36488Y113593D01*
X-122229D01*
X-122451Y113815D01*
X-124105Y114500D01*
X-125895D01*
X-127549Y113815D01*
X-128815Y112549D01*
X-129500Y110895D01*
Y109105D01*
X-128815Y107451D01*
X-127549Y106185D01*
X-125895Y105500D01*
X-124105D01*
X-122451Y106185D01*
X-122229Y106407D01*
X-35000D01*
X-33625Y106680D01*
X-32459Y107459D01*
X-19420Y120499D01*
X-19106D01*
X-17452Y121184D01*
X-16186Y122450D01*
X-15988Y122929D01*
X-14742Y123177D01*
X14562Y93874D01*
X15727Y93095D01*
X17102Y92821D01*
X77098D01*
X84878Y85040D01*
X84392Y83867D01*
X52561D01*
X52549Y83879D01*
X50895Y84564D01*
X49105D01*
X47451Y83879D01*
X46185Y82613D01*
X45500Y80959D01*
Y79169D01*
X46120Y77673D01*
X45638Y76403D01*
X42771D01*
X42549Y76625D01*
X40895Y77310D01*
X39105D01*
X37451Y76625D01*
X36185Y75359D01*
X35500Y73705D01*
Y71915D01*
X36133Y70387D01*
X35670Y69117D01*
X25964D01*
X24500Y70581D01*
Y70895D01*
X23815Y72549D01*
X22549Y73815D01*
X20895Y74500D01*
X19105D01*
X17451Y73815D01*
X16185Y72549D01*
X15500Y70895D01*
Y69105D01*
X16185Y67451D01*
X17451Y66185D01*
X19105Y65500D01*
X19419D01*
X21935Y62983D01*
X23101Y62204D01*
X24476Y61931D01*
X62477D01*
X63250Y60923D01*
X63250Y60922D01*
Y59078D01*
X63727Y57298D01*
X64649Y55702D01*
X65952Y54399D01*
X67548Y53477D01*
X67750Y53423D01*
Y60000D01*
X72181D01*
Y59226D01*
X72454Y57851D01*
X72750Y57408D01*
Y53423D01*
X72952Y53477D01*
X74548Y54399D01*
X75034Y54885D01*
X77983Y51935D01*
X79149Y51157D01*
X79201Y51146D01*
X79619Y49768D01*
X79399Y49548D01*
X78477Y47952D01*
X78000Y46172D01*
Y44411D01*
X75670D01*
X71771Y48311D01*
X70605Y49089D01*
X69230Y49363D01*
X53772D01*
X52495Y49617D01*
X47864D01*
X46489Y49344D01*
X46406Y49288D01*
X45895Y49500D01*
X44105D01*
X42451Y48815D01*
X41185Y47549D01*
X40500Y45895D01*
Y44105D01*
X41185Y42451D01*
X42451Y41185D01*
X43686Y40673D01*
Y39327D01*
X42451Y38815D01*
X41185Y37549D01*
X40500Y35895D01*
Y34105D01*
X41185Y32451D01*
X42451Y31185D01*
X44105Y30500D01*
X45895D01*
X47549Y31185D01*
X48144Y31781D01*
X75576D01*
X77493Y29863D01*
X76967Y28593D01*
X52771D01*
X52549Y28815D01*
X50895Y29500D01*
X49105D01*
X47451Y28815D01*
X46185Y27549D01*
X45500Y25895D01*
Y24105D01*
X46185Y22451D01*
X46725Y21911D01*
X46199Y20641D01*
X40007D01*
X39301Y21697D01*
X39500Y22177D01*
Y23967D01*
X38815Y25621D01*
X37549Y26887D01*
X35895Y27572D01*
X34105D01*
X32451Y26887D01*
X32229Y26665D01*
X-15062D01*
X-19495Y31098D01*
Y33089D01*
X-19544Y33332D01*
X-19145Y33721D01*
X-18393Y34058D01*
X-17469Y33440D01*
X-16094Y33167D01*
X13989D01*
X14210Y32945D01*
X15864Y32260D01*
X17655D01*
X19309Y32945D01*
X20575Y34211D01*
X21260Y35865D01*
Y37655D01*
X20575Y39309D01*
X19309Y40574D01*
X17655Y41260D01*
X15864D01*
X14210Y40574D01*
X13989Y40353D01*
X-14606D01*
X-15749Y41496D01*
X-16185Y42549D01*
X-17451Y43815D01*
X-19105Y44500D01*
X-20895D01*
X-22549Y43815D01*
X-23815Y42549D01*
X-24327Y41314D01*
X-25673D01*
X-26185Y42549D01*
X-27451Y43815D01*
X-29105Y44500D01*
X-30895D01*
X-32549Y43815D01*
X-33815Y42549D01*
X-34500Y40895D01*
Y39105D01*
X-33815Y37451D01*
X-32549Y36185D01*
X-31314Y35673D01*
Y34327D01*
X-32549Y33815D01*
X-33815Y32549D01*
X-34500Y30895D01*
Y29105D01*
X-33815Y27451D01*
X-33219Y26856D01*
Y26261D01*
X-32946Y24886D01*
X-32167Y23721D01*
X-23310Y14863D01*
X-23813Y13593D01*
X-52031D01*
X-63179Y24741D01*
X-62931Y25986D01*
X-62451Y26185D01*
X-61185Y27451D01*
X-60500Y29105D01*
Y30895D01*
X-61185Y32549D01*
X-61407Y32771D01*
Y48512D01*
X-24419Y85500D01*
X-24105D01*
X-22451Y86185D01*
X-21185Y87451D01*
X-20500Y89105D01*
Y90895D01*
X-21185Y92549D01*
X-22451Y93815D01*
X-24105Y94500D01*
X-25895D01*
X-27549Y93815D01*
X-28815Y92549D01*
X-29500Y90895D01*
Y90581D01*
X-67541Y52541D01*
X-68320Y51375D01*
X-68593Y50000D01*
Y32771D01*
X-68815Y32549D01*
X-69500Y30895D01*
Y29105D01*
X-69842Y28593D01*
X-134891D01*
X-136266Y28320D01*
X-137432Y27541D01*
X-145473Y19500D01*
X-145895D01*
X-147549Y18815D01*
X-147771Y18593D01*
X-153215D01*
X-154590Y18319D01*
X-155755Y17541D01*
X-157541Y15755D01*
X-158320Y14590D01*
X-158593Y13214D01*
Y7200D01*
X-162100D01*
Y-7200D01*
X-162100D01*
Y-7500D01*
X-162100D01*
Y-10071D01*
X-165107D01*
X-165371Y-9807D01*
Y83083D01*
X-131727Y116727D01*
X-131727Y116727D01*
X-130723Y118229D01*
X-130371Y120000D01*
Y142920D01*
Y147900D01*
X-127800D01*
Y162100D01*
X-130371D01*
Y165750D01*
X-127250D01*
Y184250D01*
X-130371D01*
Y195000D01*
Y210000D01*
X-130500Y210648D01*
Y210895D01*
X-130595Y211123D01*
X-130723Y211771D01*
X-131091Y212321D01*
X-131185Y212549D01*
X-131360Y212724D01*
X-131727Y213273D01*
X-132276Y213640D01*
X-132451Y213815D01*
X-132679Y213909D01*
X-133229Y214277D01*
X-133877Y214406D01*
X-134105Y214500D01*
X-134352D01*
X-135000Y214629D01*
X-135648Y214500D01*
X-135895D01*
X-136123Y214406D01*
X-136771Y214277D01*
X-137321Y213909D01*
X-137549Y213815D01*
X-137724Y213640D01*
X-138273Y213273D01*
X-138640Y212724D01*
X-138815Y212549D01*
X-138909Y212321D01*
X-139277Y211771D01*
X-139406Y211123D01*
X-139500Y210895D01*
Y210648D01*
X-139629Y210000D01*
Y199629D01*
X-168050D01*
X-169821Y199277D01*
X-171323Y198273D01*
X-171323Y198273D01*
X-174299Y195297D01*
X-175302Y193796D01*
X-175655Y192024D01*
X-175655Y192024D01*
Y149893D01*
X-175919Y149629D01*
X-255000D01*
X-255648Y149500D01*
X-255895D01*
X-256123Y149405D01*
X-256771Y149277D01*
X-257321Y148909D01*
X-257549Y148815D01*
X-257724Y148640D01*
X-258273Y148273D01*
X-258640Y147724D01*
X-258815Y147549D01*
X-258909Y147321D01*
X-259277Y146771D01*
X-259406Y146123D01*
X-259500Y145895D01*
Y145648D01*
X-259629Y145000D01*
X-259500Y144352D01*
Y144105D01*
X-259406Y143877D01*
X-259277Y143229D01*
X-258909Y142679D01*
X-258815Y142451D01*
X-258640Y142276D01*
X-258273Y141727D01*
X-257724Y141360D01*
X-257549Y141185D01*
X-257321Y141091D01*
X-256771Y140723D01*
X-256123Y140594D01*
X-255895Y140500D01*
X-255648D01*
X-255000Y140371D01*
X-174002D01*
X-174002Y140371D01*
X-172230Y140723D01*
X-170728Y141727D01*
X-170390Y142065D01*
X-169313Y141346D01*
X-169500Y140895D01*
Y139105D01*
X-168815Y137451D01*
X-167549Y136185D01*
X-165895Y135500D01*
X-164105D01*
X-162451Y136185D01*
X-161185Y137451D01*
X-160500Y139105D01*
Y140895D01*
X-161033Y142183D01*
Y148885D01*
X-158512Y151407D01*
X-156900D01*
Y147900D01*
X-156293D01*
X-155961Y147116D01*
X-155904Y146630D01*
X-155974Y146560D01*
X-156523Y146193D01*
X-156890Y145644D01*
X-157065Y145469D01*
X-157159Y145241D01*
X-157527Y144691D01*
X-157656Y144043D01*
X-157750Y143815D01*
Y143568D01*
X-157879Y142920D01*
X-157750Y142272D01*
Y142025D01*
X-157656Y141797D01*
X-157527Y141149D01*
X-157159Y140599D01*
X-157065Y140371D01*
X-156890Y140197D01*
X-156523Y139647D01*
X-155974Y139280D01*
X-155799Y139105D01*
X-155571Y139011D01*
X-155021Y138643D01*
X-154373Y138514D01*
X-154145Y138420D01*
X-153898D01*
X-153250Y138291D01*
X-139629D01*
Y121917D01*
X-173273Y88273D01*
X-174277Y86771D01*
X-174629Y85000D01*
X-174629Y85000D01*
Y12111D01*
X-175899Y11858D01*
X-176185Y12549D01*
X-177451Y13815D01*
X-179105Y14500D01*
X-180895D01*
X-182549Y13815D01*
X-183815Y12549D01*
X-184333Y11297D01*
X-187815Y7815D01*
X-188678Y6524D01*
X-188981Y5000D01*
Y-72768D01*
X-188678Y-74292D01*
X-187815Y-75584D01*
X-185583Y-77815D01*
X-184292Y-78678D01*
X-182768Y-78981D01*
X-127200D01*
Y-82100D01*
X-123982D01*
Y-137853D01*
X-124500Y-139105D01*
Y-140895D01*
X-123815Y-142549D01*
X-122549Y-143815D01*
X-120895Y-144500D01*
X-119105D01*
X-117451Y-143815D01*
X-116185Y-142549D01*
X-115500Y-140895D01*
Y-139105D01*
X-116018Y-137853D01*
Y-82998D01*
X-115120Y-82100D01*
X-112800Y-82100D01*
X-111530Y-82100D01*
X-98100D01*
Y-78593D01*
X-30000D01*
X-28625Y-78320D01*
X-27459Y-77541D01*
X-18512Y-68593D01*
X5500D01*
Y-79170D01*
X24500D01*
Y-53970D01*
X5500D01*
Y-61407D01*
X-20000D01*
X-21375Y-61680D01*
X-22541Y-62459D01*
X-31488Y-71407D01*
X-98100D01*
Y-67900D01*
X-111530D01*
X-112500Y-67900D01*
X-113770Y-67900D01*
X-127200D01*
Y-71019D01*
X-181019D01*
Y3351D01*
X-178703Y5667D01*
X-177451Y6185D01*
X-176185Y7451D01*
X-175899Y8142D01*
X-174629Y7889D01*
Y-11724D01*
X-174629Y-11724D01*
X-174277Y-13496D01*
X-173273Y-14997D01*
X-170297Y-17973D01*
X-170297Y-17973D01*
X-168796Y-18977D01*
X-167024Y-19329D01*
X-162100D01*
Y-21900D01*
X-147900D01*
Y-21900D01*
X-147100D01*
Y-21900D01*
X-132900D01*
Y-19329D01*
X-77261D01*
X-55671Y-40919D01*
X-55671Y-40919D01*
X-54170Y-41922D01*
X-52398Y-42275D01*
X-52398Y-42275D01*
X-23837D01*
X-23837Y-42275D01*
X-22066Y-41922D01*
X-20564Y-40919D01*
X-16604Y-36959D01*
X10040D01*
X10040Y-36959D01*
X10487Y-36870D01*
X24500D01*
Y-12229D01*
X79883D01*
X81258Y-11955D01*
X82424Y-11177D01*
X88565Y-5036D01*
X89344Y-3870D01*
X89617Y-2495D01*
Y7025D01*
X90848Y7590D01*
X101407Y-2969D01*
Y-278214D01*
X101680Y-279590D01*
X102459Y-280755D01*
X104245Y-282541D01*
X105410Y-283319D01*
X106785Y-283593D01*
X157229D01*
X157451Y-283815D01*
X159105Y-284500D01*
X160895D01*
X162549Y-283815D01*
X163815Y-282549D01*
X164500Y-280895D01*
Y-279105D01*
X163815Y-277451D01*
X162549Y-276185D01*
X160895Y-275500D01*
X159105D01*
X157451Y-276185D01*
X157229Y-276407D01*
X108593D01*
Y-3033D01*
X109863Y-2507D01*
X111407Y-4051D01*
Y-253214D01*
X111680Y-254590D01*
X112459Y-255755D01*
X114245Y-257541D01*
X115410Y-258319D01*
X116785Y-258593D01*
X167229D01*
X167451Y-258815D01*
X169105Y-259500D01*
X170895D01*
X172549Y-258815D01*
X173815Y-257549D01*
X174500Y-255895D01*
Y-254105D01*
X173815Y-252451D01*
X172549Y-251185D01*
X170895Y-250500D01*
X169105D01*
X167451Y-251185D01*
X167229Y-251407D01*
X118593D01*
Y-5398D01*
X119766Y-4912D01*
X121407Y-6553D01*
Y-227524D01*
X121680Y-228899D01*
X122459Y-230064D01*
X124562Y-232167D01*
X125728Y-232946D01*
X126794Y-233158D01*
X127451Y-233815D01*
X129105Y-234500D01*
X130895D01*
X132549Y-233815D01*
X133815Y-232549D01*
X134500Y-230895D01*
Y-229105D01*
X133815Y-227451D01*
X132549Y-226185D01*
X130895Y-225500D01*
X129105D01*
X128593Y-225158D01*
Y-5064D01*
X128320Y-3689D01*
X127541Y-2524D01*
X122230Y2787D01*
X122756Y4057D01*
X127900D01*
Y450D01*
X142100D01*
Y4057D01*
X150750D01*
Y-1640D01*
X169250D01*
Y13860D01*
X150750D01*
Y11243D01*
X142100D01*
Y14850D01*
X142100D01*
Y15150D01*
X142100D01*
Y29550D01*
X139629D01*
Y75000D01*
Y88083D01*
X145807Y94261D01*
X150750D01*
Y91140D01*
X169250D01*
Y94261D01*
X175750D01*
Y91140D01*
X194250D01*
Y94261D01*
X200750D01*
Y91140D01*
X218563Y91140D01*
X219388Y89978D01*
X219141Y89360D01*
X211250D01*
Y81110D01*
Y72860D01*
X218730D01*
X219750Y72860D01*
X220000Y71694D01*
Y-295000D01*
X-270000D01*
Y188365D01*
X-268911Y189018D01*
X-268249Y188664D01*
X-265186Y187735D01*
X-264500Y187668D01*
Y215000D01*
Y242332D01*
X-265186Y242265D01*
X-268249Y241336D01*
X-268911Y240982D01*
X-270000Y241635D01*
Y315000D01*
X220000D01*
Y181770D01*
D02*
G37*
G36*
X-139629Y184250D02*
X-142750D01*
Y165750D01*
X-139629D01*
Y162100D01*
X-142200D01*
Y162100D01*
X-142500D01*
Y162100D01*
X-156900D01*
Y158593D01*
X-160000D01*
X-161375Y158320D01*
X-162541Y157541D01*
X-165224Y154858D01*
X-166397Y155344D01*
Y190107D01*
X-166133Y190371D01*
X-139629D01*
Y184250D01*
D02*
G37*
%LPC*%
G36*
X-203750Y261329D02*
X-212500D01*
Y247500D01*
X-187668D01*
X-187735Y248186D01*
X-188664Y251249D01*
X-190173Y254072D01*
X-192204Y256546D01*
X-194678Y258577D01*
X-197501Y260086D01*
X-200564Y261015D01*
X-203750Y261329D01*
D02*
G37*
G36*
X-217500D02*
X-226250D01*
X-229436Y261015D01*
X-232499Y260086D01*
X-235322Y258577D01*
X-237796Y256546D01*
X-239827Y254072D01*
X-241336Y251249D01*
X-242265Y248186D01*
X-242332Y247500D01*
X-217500D01*
Y261329D01*
D02*
G37*
G36*
X-141250Y256000D02*
X-150500D01*
Y241250D01*
X-141250D01*
Y256000D01*
D02*
G37*
G36*
X-187668Y242500D02*
X-212500D01*
Y228671D01*
X-203750D01*
X-200564Y228985D01*
X-197501Y229914D01*
X-194678Y231423D01*
X-192204Y233454D01*
X-190173Y235928D01*
X-188664Y238751D01*
X-187735Y241814D01*
X-187668Y242500D01*
D02*
G37*
G36*
X-217500D02*
X-242332D01*
X-242265Y241814D01*
X-241336Y238751D01*
X-239827Y235928D01*
X-237796Y233454D01*
X-235322Y231423D01*
X-232499Y229914D01*
X-229436Y228985D01*
X-226250Y228671D01*
X-217500D01*
Y242500D01*
D02*
G37*
G36*
X-129500Y238750D02*
X-138750D01*
Y224000D01*
X-129500D01*
Y238750D01*
D02*
G37*
G36*
X-141250D02*
X-150500D01*
Y224000D01*
X-141250D01*
Y238750D01*
D02*
G37*
G36*
X-259500Y242332D02*
Y217500D01*
X-245671D01*
Y226250D01*
X-245985Y229436D01*
X-246914Y232499D01*
X-248423Y235322D01*
X-250454Y237796D01*
X-252928Y239827D01*
X-255751Y241336D01*
X-258814Y242265D01*
X-259500Y242332D01*
D02*
G37*
G36*
X-245671Y212500D02*
X-259500D01*
Y187668D01*
X-258814Y187735D01*
X-255751Y188664D01*
X-252928Y190173D01*
X-250454Y192204D01*
X-248423Y194678D01*
X-246914Y197501D01*
X-245985Y200564D01*
X-245671Y203750D01*
Y212500D01*
D02*
G37*
G36*
X-202500Y199625D02*
X-227500D01*
X-231285Y199127D01*
X-234813Y197666D01*
X-237841Y195341D01*
X-240166Y192313D01*
X-241627Y188785D01*
X-242125Y185000D01*
X-241627Y181215D01*
X-240166Y177687D01*
X-237841Y174659D01*
X-234813Y172334D01*
X-231285Y170873D01*
X-227500Y170375D01*
X-202500D01*
X-198715Y170873D01*
X-195187Y172334D01*
X-192159Y174659D01*
X-189834Y177687D01*
X-188373Y181215D01*
X-187875Y185000D01*
X-188373Y188785D01*
X-189834Y192313D01*
X-192159Y195341D01*
X-195187Y197666D01*
X-198715Y199127D01*
X-202500Y199625D01*
D02*
G37*
G36*
X-77750Y159800D02*
X-105050D01*
Y154629D01*
X-115000D01*
X-115648Y154500D01*
X-115895D01*
X-116123Y154406D01*
X-116771Y154277D01*
X-117321Y153909D01*
X-117549Y153815D01*
X-117724Y153640D01*
X-118273Y153273D01*
X-118640Y152724D01*
X-118815Y152549D01*
X-118909Y152321D01*
X-119277Y151771D01*
X-119406Y151123D01*
X-119500Y150895D01*
Y150648D01*
X-119629Y150000D01*
X-119500Y149352D01*
Y149105D01*
X-119406Y148877D01*
X-119277Y148229D01*
X-118909Y147679D01*
X-118815Y147451D01*
X-118640Y147276D01*
X-118273Y146727D01*
X-117724Y146360D01*
X-117549Y146185D01*
X-117321Y146091D01*
X-116771Y145723D01*
X-116123Y145595D01*
X-115895Y145500D01*
X-115648D01*
X-115000Y145371D01*
X-105050D01*
Y140200D01*
X-77750D01*
Y159800D01*
D02*
G37*
G36*
X194750Y89360D02*
X186250D01*
Y82360D01*
X194750D01*
Y89360D01*
D02*
G37*
G36*
X169750D02*
X161250D01*
Y82360D01*
X169750D01*
Y89360D01*
D02*
G37*
G36*
X208750D02*
X200250D01*
Y82360D01*
X208750D01*
Y89360D01*
D02*
G37*
G36*
X183750D02*
X175250D01*
Y82360D01*
X183750D01*
Y89360D01*
D02*
G37*
G36*
X158750D02*
X150250D01*
Y82360D01*
X158750D01*
Y89360D01*
D02*
G37*
G36*
X194750Y79860D02*
X186250D01*
Y72860D01*
X194750D01*
Y79860D01*
D02*
G37*
G36*
X183750D02*
X175250D01*
Y72860D01*
X183750D01*
Y79860D01*
D02*
G37*
G36*
X169750D02*
X161250D01*
Y72860D01*
X169750D01*
Y79860D01*
D02*
G37*
G36*
X158750D02*
X150250D01*
Y72860D01*
X158750D01*
Y79860D01*
D02*
G37*
G36*
X208750D02*
X200250D01*
Y72860D01*
X208750D01*
Y79860D01*
D02*
G37*
G36*
X-7345Y66260D02*
X-9136D01*
X-10790Y65574D01*
X-11011Y65353D01*
X-33240D01*
X-34615Y65079D01*
X-35781Y64300D01*
X-52541Y47541D01*
X-53320Y46375D01*
X-53593Y45000D01*
Y29819D01*
X-53815Y29597D01*
X-54500Y27943D01*
Y26153D01*
X-53815Y24499D01*
X-52549Y23233D01*
X-50895Y22548D01*
X-49105D01*
X-47451Y23233D01*
X-46185Y24499D01*
X-45673Y25735D01*
X-44327D01*
X-43815Y24499D01*
X-42549Y23233D01*
X-40895Y22548D01*
X-39105D01*
X-37451Y23233D01*
X-36185Y24499D01*
X-35500Y26153D01*
Y27943D01*
X-36185Y29597D01*
X-36407Y29819D01*
Y43512D01*
X-28512Y51407D01*
X-2771D01*
X-2549Y51185D01*
X-895Y50500D01*
X895D01*
X2549Y51185D01*
X3815Y52451D01*
X4500Y54105D01*
Y55895D01*
X3815Y57549D01*
X2549Y58815D01*
X895Y59500D01*
X-895D01*
X-2549Y58815D01*
X-3289Y59069D01*
X-3932Y60402D01*
X-3740Y60865D01*
Y62655D01*
X-4426Y64309D01*
X-5691Y65574D01*
X-7345Y66260D01*
D02*
G37*
G36*
X-34105Y99500D02*
X-35895D01*
X-37549Y98815D01*
X-38815Y97549D01*
X-39500Y95895D01*
Y95581D01*
X-77541Y57541D01*
X-78320Y56375D01*
X-78593Y55000D01*
Y37771D01*
X-78815Y37549D01*
X-79500Y35895D01*
Y34105D01*
X-78815Y32451D01*
X-77549Y31185D01*
X-75895Y30500D01*
X-74105D01*
X-72451Y31185D01*
X-71185Y32451D01*
X-70500Y34105D01*
Y35895D01*
X-71185Y37549D01*
X-71407Y37771D01*
Y53512D01*
X-34419Y90500D01*
X-34105D01*
X-32451Y91185D01*
X-31185Y92451D01*
X-30500Y94105D01*
Y95895D01*
X-31185Y97549D01*
X-32451Y98815D01*
X-34105Y99500D01*
D02*
G37*
G36*
X158750Y32140D02*
X150250D01*
Y25140D01*
X158750D01*
Y32140D01*
D02*
G37*
G36*
X169750Y22640D02*
X161250D01*
Y15640D01*
X169750D01*
Y22640D01*
D02*
G37*
G36*
X158750D02*
X150250D01*
Y15640D01*
X158750D01*
Y22640D01*
D02*
G37*
G36*
X-247500Y14110D02*
Y2900D01*
X-236290D01*
X-237057Y5761D01*
X-238885Y8929D01*
X-241471Y11515D01*
X-244639Y13343D01*
X-247500Y14110D01*
D02*
G37*
G36*
X-252500D02*
X-255361Y13343D01*
X-258529Y11515D01*
X-261115Y8929D01*
X-262943Y5761D01*
X-263710Y2900D01*
X-252500D01*
Y14110D01*
D02*
G37*
G36*
X200634Y11290D02*
X197766D01*
X194997Y10548D01*
X192513Y9114D01*
X190486Y7087D01*
X189052Y4603D01*
X188310Y1834D01*
Y-1034D01*
X189052Y-3803D01*
X190486Y-6287D01*
X192513Y-8314D01*
X194997Y-9748D01*
X197766Y-10490D01*
X200634D01*
X203403Y-9748D01*
X205887Y-8314D01*
X207914Y-6287D01*
X209348Y-3803D01*
X210090Y-1034D01*
Y1834D01*
X209348Y4603D01*
X207914Y7087D01*
X205887Y9114D01*
X203403Y10548D01*
X200634Y11290D01*
D02*
G37*
G36*
X-236290Y-2100D02*
X-250000D01*
X-263710D01*
X-262943Y-4961D01*
X-261115Y-8129D01*
X-258529Y-10715D01*
X-256883Y-11665D01*
Y-12935D01*
X-258529Y-13885D01*
X-261115Y-16471D01*
X-262943Y-19639D01*
X-263710Y-22500D01*
X-250000D01*
X-236290D01*
X-237057Y-19639D01*
X-238885Y-16471D01*
X-241471Y-13885D01*
X-243117Y-12935D01*
Y-11665D01*
X-241471Y-10715D01*
X-238885Y-8129D01*
X-237057Y-4961D01*
X-236290Y-2100D01*
D02*
G37*
G36*
X200634Y-14110D02*
X197766D01*
X194997Y-14852D01*
X192513Y-16286D01*
X190486Y-18313D01*
X189052Y-20797D01*
X188310Y-23566D01*
Y-26434D01*
X189052Y-29203D01*
X190486Y-31687D01*
X192513Y-33714D01*
X194997Y-35148D01*
X197766Y-35890D01*
X200634D01*
X203403Y-35148D01*
X205887Y-33714D01*
X207914Y-31687D01*
X209348Y-29203D01*
X210090Y-26434D01*
Y-23566D01*
X209348Y-20797D01*
X207914Y-18313D01*
X205887Y-16286D01*
X203403Y-14852D01*
X200634Y-14110D01*
D02*
G37*
G36*
X155895Y54500D02*
X154105D01*
X152451Y53815D01*
X151185Y52549D01*
X150500Y50895D01*
Y49105D01*
X151185Y47451D01*
X152451Y46185D01*
X154105Y45500D01*
X154419D01*
X166605Y33313D01*
X166119Y32140D01*
X161250D01*
Y25140D01*
X169750D01*
Y27093D01*
X171020Y27772D01*
X171123Y27703D01*
Y-44716D01*
X171396Y-46091D01*
X172175Y-47256D01*
X177459Y-52541D01*
X178625Y-53320D01*
X180000Y-53593D01*
X188781D01*
X189052Y-54603D01*
X190486Y-57087D01*
X192513Y-59114D01*
X194997Y-60548D01*
X197766Y-61290D01*
X200634D01*
X203403Y-60548D01*
X205887Y-59114D01*
X207914Y-57087D01*
X209348Y-54603D01*
X210090Y-51834D01*
Y-48966D01*
X209348Y-46197D01*
X207914Y-43713D01*
X205887Y-41686D01*
X203403Y-40252D01*
X200634Y-39510D01*
X197766D01*
X194997Y-40252D01*
X192513Y-41686D01*
X190486Y-43713D01*
X189052Y-46197D01*
X188996Y-46407D01*
X181488D01*
X178309Y-43227D01*
Y30284D01*
X178035Y31659D01*
X177256Y32825D01*
X159500Y50581D01*
Y50895D01*
X158815Y52549D01*
X157549Y53815D01*
X155895Y54500D01*
D02*
G37*
G36*
X-236290Y-27500D02*
X-250000D01*
X-263710D01*
X-262943Y-30361D01*
X-261115Y-33529D01*
X-258529Y-36115D01*
X-255361Y-37943D01*
X-252928Y-38595D01*
Y-39910D01*
X-254203Y-40252D01*
X-256687Y-41686D01*
X-258714Y-43713D01*
X-260148Y-46197D01*
X-260890Y-48966D01*
Y-51834D01*
X-260148Y-54603D01*
X-258714Y-57087D01*
X-256687Y-59114D01*
X-254203Y-60548D01*
X-251434Y-61290D01*
X-248566D01*
X-245797Y-60548D01*
X-243313Y-59114D01*
X-241286Y-57087D01*
X-239852Y-54603D01*
X-239110Y-51834D01*
Y-48966D01*
X-239852Y-46197D01*
X-241286Y-43713D01*
X-243313Y-41686D01*
X-245797Y-40252D01*
X-247072Y-39910D01*
Y-38595D01*
X-244639Y-37943D01*
X-241471Y-36115D01*
X-238885Y-33529D01*
X-237057Y-30361D01*
X-236290Y-27500D01*
D02*
G37*
G36*
X200634Y-64910D02*
X197766D01*
X194997Y-65652D01*
X192513Y-67086D01*
X190486Y-69113D01*
X189052Y-71597D01*
X188310Y-74366D01*
Y-77234D01*
X189052Y-80003D01*
X190486Y-82487D01*
X192513Y-84514D01*
X194997Y-85948D01*
X197766Y-86690D01*
X200634D01*
X203403Y-85948D01*
X205887Y-84514D01*
X207914Y-82487D01*
X209348Y-80003D01*
X210090Y-77234D01*
Y-74366D01*
X209348Y-71597D01*
X207914Y-69113D01*
X205887Y-67086D01*
X203403Y-65652D01*
X200634Y-64910D01*
D02*
G37*
G36*
X-248566Y-64910D02*
X-251434D01*
X-254203Y-65652D01*
X-256687Y-67086D01*
X-258714Y-69113D01*
X-260148Y-71597D01*
X-260890Y-74366D01*
Y-77234D01*
X-260148Y-80003D01*
X-258714Y-82487D01*
X-256687Y-84514D01*
X-254203Y-85948D01*
X-251434Y-86690D01*
X-248566D01*
X-245797Y-85948D01*
X-243313Y-84514D01*
X-241286Y-82487D01*
X-239852Y-80003D01*
X-239110Y-77234D01*
Y-74366D01*
X-239852Y-71597D01*
X-241286Y-69113D01*
X-243313Y-67086D01*
X-245797Y-65652D01*
X-248566Y-64910D01*
D02*
G37*
G36*
X200634Y-90310D02*
X197766D01*
X194997Y-91052D01*
X192513Y-92486D01*
X190486Y-94513D01*
X189052Y-96997D01*
X188310Y-99766D01*
Y-102634D01*
X189052Y-105403D01*
X190486Y-107887D01*
X192513Y-109914D01*
X194997Y-111348D01*
X197766Y-112090D01*
X200634D01*
X203403Y-111348D01*
X205887Y-109914D01*
X207914Y-107887D01*
X209348Y-105403D01*
X210090Y-102634D01*
Y-99766D01*
X209348Y-96997D01*
X207914Y-94513D01*
X205887Y-92486D01*
X203403Y-91052D01*
X200634Y-90310D01*
D02*
G37*
G36*
X-248566Y-90310D02*
X-251434D01*
X-254203Y-91052D01*
X-256687Y-92486D01*
X-258714Y-94513D01*
X-260148Y-96997D01*
X-260890Y-99766D01*
Y-102634D01*
X-260148Y-105403D01*
X-258714Y-107887D01*
X-256687Y-109914D01*
X-254203Y-111348D01*
X-251434Y-112090D01*
X-248566D01*
X-245797Y-111348D01*
X-243313Y-109914D01*
X-241286Y-107887D01*
X-239852Y-105403D01*
X-239110Y-102634D01*
Y-99766D01*
X-239852Y-96997D01*
X-241286Y-94513D01*
X-243313Y-92486D01*
X-245797Y-91052D01*
X-248566Y-90310D01*
D02*
G37*
G36*
X200634Y-115710D02*
X197766D01*
X194997Y-116452D01*
X192513Y-117886D01*
X190486Y-119913D01*
X189052Y-122397D01*
X188310Y-125166D01*
Y-128034D01*
X189052Y-130803D01*
X190486Y-133287D01*
X192513Y-135314D01*
X194997Y-136748D01*
X197766Y-137490D01*
X200634D01*
X203403Y-136748D01*
X205887Y-135314D01*
X207914Y-133287D01*
X209348Y-130803D01*
X210090Y-128034D01*
Y-125166D01*
X209348Y-122397D01*
X207914Y-119913D01*
X205887Y-117886D01*
X203403Y-116452D01*
X200634Y-115710D01*
D02*
G37*
G36*
X-248566Y-115710D02*
X-251434D01*
X-254203Y-116452D01*
X-256687Y-117886D01*
X-258714Y-119913D01*
X-260148Y-122397D01*
X-260890Y-125166D01*
Y-128034D01*
X-260148Y-130803D01*
X-258714Y-133287D01*
X-256687Y-135314D01*
X-254203Y-136748D01*
X-251434Y-137490D01*
X-248566D01*
X-245797Y-136748D01*
X-243313Y-135314D01*
X-241286Y-133287D01*
X-239852Y-130803D01*
X-239110Y-128034D01*
Y-125166D01*
X-239852Y-122397D01*
X-241286Y-119913D01*
X-243313Y-117886D01*
X-245797Y-116452D01*
X-248566Y-115710D01*
D02*
G37*
G36*
X200634Y-141110D02*
X197766D01*
X194997Y-141852D01*
X192513Y-143286D01*
X190486Y-145313D01*
X189052Y-147797D01*
X188310Y-150566D01*
Y-153434D01*
X189052Y-156203D01*
X190486Y-158687D01*
X192513Y-160714D01*
X194997Y-162148D01*
X197766Y-162890D01*
X200634D01*
X203403Y-162148D01*
X205887Y-160714D01*
X207914Y-158687D01*
X209348Y-156203D01*
X210090Y-153434D01*
Y-150566D01*
X209348Y-147797D01*
X207914Y-145313D01*
X205887Y-143286D01*
X203403Y-141852D01*
X200634Y-141110D01*
D02*
G37*
G36*
X-248566Y-141110D02*
X-251434D01*
X-254203Y-141852D01*
X-256687Y-143286D01*
X-258714Y-145313D01*
X-260148Y-147797D01*
X-260890Y-150566D01*
Y-153434D01*
X-260148Y-156203D01*
X-258714Y-158687D01*
X-256687Y-160714D01*
X-254203Y-162148D01*
X-251434Y-162890D01*
X-248566D01*
X-245797Y-162148D01*
X-243313Y-160714D01*
X-241286Y-158687D01*
X-239852Y-156203D01*
X-239110Y-153434D01*
Y-150566D01*
X-239852Y-147797D01*
X-241286Y-145313D01*
X-243313Y-143286D01*
X-245797Y-141852D01*
X-248566Y-141110D01*
D02*
G37*
G36*
X200634Y-166510D02*
X197766D01*
X194997Y-167252D01*
X192513Y-168686D01*
X190486Y-170713D01*
X189052Y-173197D01*
X188310Y-175966D01*
Y-178834D01*
X189052Y-181603D01*
X190486Y-184087D01*
X192513Y-186114D01*
X194997Y-187548D01*
X197766Y-188290D01*
X200634D01*
X203403Y-187548D01*
X205887Y-186114D01*
X207914Y-184087D01*
X209348Y-181603D01*
X210090Y-178834D01*
Y-175966D01*
X209348Y-173197D01*
X207914Y-170713D01*
X205887Y-168686D01*
X203403Y-167252D01*
X200634Y-166510D01*
D02*
G37*
G36*
X-248566Y-166510D02*
X-251434D01*
X-254203Y-167252D01*
X-256687Y-168686D01*
X-258714Y-170713D01*
X-260148Y-173197D01*
X-260890Y-175966D01*
Y-178834D01*
X-260148Y-181603D01*
X-258714Y-184087D01*
X-256687Y-186114D01*
X-254203Y-187548D01*
X-251434Y-188290D01*
X-248566D01*
X-245797Y-187548D01*
X-243313Y-186114D01*
X-241286Y-184087D01*
X-239852Y-181603D01*
X-239110Y-178834D01*
Y-175966D01*
X-239852Y-173197D01*
X-241286Y-170713D01*
X-243313Y-168686D01*
X-245797Y-167252D01*
X-248566Y-166510D01*
D02*
G37*
G36*
X200634Y-191910D02*
X197766D01*
X194997Y-192652D01*
X192513Y-194086D01*
X190486Y-196113D01*
X189052Y-198597D01*
X188310Y-201366D01*
Y-204234D01*
X189052Y-207003D01*
X190486Y-209487D01*
X192513Y-211514D01*
X194997Y-212948D01*
X197766Y-213690D01*
X200634D01*
X203403Y-212948D01*
X205887Y-211514D01*
X207914Y-209487D01*
X209348Y-207003D01*
X210090Y-204234D01*
Y-201366D01*
X209348Y-198597D01*
X207914Y-196113D01*
X205887Y-194086D01*
X203403Y-192652D01*
X200634Y-191910D01*
D02*
G37*
G36*
X-248566Y-191910D02*
X-251434D01*
X-254203Y-192652D01*
X-256687Y-194086D01*
X-258714Y-196113D01*
X-260148Y-198597D01*
X-260890Y-201366D01*
Y-204234D01*
X-260148Y-207003D01*
X-258714Y-209487D01*
X-256687Y-211514D01*
X-254203Y-212948D01*
X-251434Y-213690D01*
X-248566D01*
X-245797Y-212948D01*
X-243313Y-211514D01*
X-241286Y-209487D01*
X-239852Y-207003D01*
X-239110Y-204234D01*
Y-201366D01*
X-239852Y-198597D01*
X-241286Y-196113D01*
X-243313Y-194086D01*
X-245797Y-192652D01*
X-248566Y-191910D01*
D02*
G37*
G36*
X200634Y-217310D02*
X197766D01*
X194997Y-218052D01*
X192513Y-219486D01*
X190486Y-221513D01*
X189052Y-223997D01*
X188310Y-226766D01*
Y-229634D01*
X189052Y-232403D01*
X190486Y-234887D01*
X192513Y-236914D01*
X194997Y-238348D01*
X197766Y-239090D01*
X200634D01*
X203403Y-238348D01*
X205887Y-236914D01*
X207914Y-234887D01*
X209348Y-232403D01*
X210090Y-229634D01*
Y-226766D01*
X209348Y-223997D01*
X207914Y-221513D01*
X205887Y-219486D01*
X203403Y-218052D01*
X200634Y-217310D01*
D02*
G37*
G36*
X-248566Y-217310D02*
X-251434D01*
X-254203Y-218052D01*
X-256687Y-219486D01*
X-258714Y-221513D01*
X-260148Y-223997D01*
X-260890Y-226766D01*
Y-229634D01*
X-260148Y-232403D01*
X-258714Y-234887D01*
X-256687Y-236914D01*
X-254203Y-238348D01*
X-251434Y-239090D01*
X-248566D01*
X-245797Y-238348D01*
X-243313Y-236914D01*
X-241286Y-234887D01*
X-239852Y-232403D01*
X-239110Y-229634D01*
Y-226766D01*
X-239852Y-223997D01*
X-241286Y-221513D01*
X-243313Y-219486D01*
X-245797Y-218052D01*
X-248566Y-217310D01*
D02*
G37*
G36*
X200634Y-242710D02*
X197766D01*
X194997Y-243452D01*
X192513Y-244886D01*
X190486Y-246913D01*
X189052Y-249397D01*
X188310Y-252166D01*
Y-255034D01*
X189052Y-257803D01*
X190486Y-260287D01*
X192513Y-262314D01*
X194997Y-263748D01*
X197766Y-264490D01*
X200634D01*
X203403Y-263748D01*
X205887Y-262314D01*
X207914Y-260287D01*
X209348Y-257803D01*
X210090Y-255034D01*
Y-252166D01*
X209348Y-249397D01*
X207914Y-246913D01*
X205887Y-244886D01*
X203403Y-243452D01*
X200634Y-242710D01*
D02*
G37*
G36*
X-248566Y-242710D02*
X-251434D01*
X-254203Y-243452D01*
X-256687Y-244886D01*
X-258714Y-246913D01*
X-260148Y-249397D01*
X-260890Y-252166D01*
Y-255034D01*
X-260148Y-257803D01*
X-258714Y-260287D01*
X-256687Y-262314D01*
X-254203Y-263748D01*
X-251434Y-264490D01*
X-248566D01*
X-245797Y-263748D01*
X-243313Y-262314D01*
X-241286Y-260287D01*
X-239852Y-257803D01*
X-239110Y-255034D01*
Y-252166D01*
X-239852Y-249397D01*
X-241286Y-246913D01*
X-243313Y-244886D01*
X-245797Y-243452D01*
X-248566Y-242710D01*
D02*
G37*
G36*
X210090Y-268110D02*
X188310D01*
Y-289890D01*
X210090D01*
Y-268110D01*
D02*
G37*
G36*
X-239110Y-268110D02*
X-260890D01*
Y-289890D01*
X-239110D01*
Y-268110D01*
D02*
G37*
G36*
X-144530Y184750D02*
X-151530D01*
Y176250D01*
X-144530D01*
Y184750D01*
D02*
G37*
G36*
X-154030D02*
X-161030D01*
Y176250D01*
X-154030D01*
Y184750D01*
D02*
G37*
G36*
X-144530Y173750D02*
X-151530D01*
Y165250D01*
X-144530D01*
Y173750D01*
D02*
G37*
G36*
X-154030D02*
X-161030D01*
Y165250D01*
X-154030D01*
Y173750D01*
D02*
G37*
%LPD*%
D17*
X160000Y6110D02*
D03*
Y23890D02*
D03*
X185000Y98890D02*
D03*
Y81110D02*
D03*
X0Y196110D02*
D03*
Y213890D02*
D03*
X210000Y98890D02*
D03*
Y81110D02*
D03*
X160000Y98890D02*
D03*
Y81110D02*
D03*
D38*
X-97300Y283500D02*
D03*
X-137300D02*
D03*
X200000Y115000D02*
D03*
X155000Y50000D02*
D03*
X130000Y-230000D02*
D03*
X170000Y-255000D02*
D03*
X160000Y-280000D02*
D03*
X-120000Y-140000D02*
D03*
X180000Y195000D02*
D03*
X86810Y98686D02*
D03*
X120007Y8448D02*
D03*
X40000Y72810D02*
D03*
X20000Y70000D02*
D03*
X-115000Y260000D02*
D03*
X-105000D02*
D03*
X-30000Y290000D02*
D03*
X-153250Y142920D02*
D03*
X100000Y145000D02*
D03*
X0Y55000D02*
D03*
X65000Y10000D02*
D03*
X-40000Y0D02*
D03*
X-135000Y260000D02*
D03*
X-10000Y255000D02*
D03*
X-40000Y245000D02*
D03*
X-165000Y140000D02*
D03*
X-255000Y145000D02*
D03*
X-145000Y15000D02*
D03*
X-180000Y10000D02*
D03*
X124543Y31024D02*
D03*
X50000Y80064D02*
D03*
X75000Y10000D02*
D03*
X50000Y25000D02*
D03*
X115000D02*
D03*
X45000Y35000D02*
D03*
X-85000Y250000D02*
D03*
X-135000Y210000D02*
D03*
X125000Y40000D02*
D03*
X105000Y25000D02*
D03*
X85000Y10000D02*
D03*
X-30000Y30000D02*
D03*
Y40000D02*
D03*
X135000Y75000D02*
D03*
X125000Y66168D02*
D03*
X100000Y95000D02*
D03*
X-20000Y40000D02*
D03*
X16760Y36760D02*
D03*
X45000Y45000D02*
D03*
X35000Y23072D02*
D03*
X69521Y17048D02*
D03*
X-40000Y27048D02*
D03*
X-50000D02*
D03*
X-8240Y61760D02*
D03*
X-65000Y30000D02*
D03*
X-25000Y90000D02*
D03*
X-75000Y35000D02*
D03*
X-35000Y95000D02*
D03*
X-135000Y15000D02*
D03*
X84229Y119229D02*
D03*
X25000Y130000D02*
D03*
X-20001Y124999D02*
D03*
X-125000Y110000D02*
D03*
X-45000Y215000D02*
D03*
X-65000Y248976D02*
D03*
X-30000Y255000D02*
D03*
X-20000Y264750D02*
D03*
X65000Y245000D02*
D03*
X130000Y195000D02*
D03*
X115000Y215000D02*
D03*
Y230000D02*
D03*
X40000Y202040D02*
D03*
X35000Y195000D02*
D03*
Y210000D02*
D03*
Y230000D02*
D03*
X25000Y235000D02*
D03*
X-115000Y150000D02*
D03*
D45*
X180000Y-50000D02*
X198800D01*
X199200Y-50400D01*
Y400D02*
X200048Y1248D01*
X174716Y-44716D02*
X180000Y-50000D01*
X174716Y-44716D02*
Y30284D01*
X155000Y50000D02*
X174716Y30284D01*
X92652Y105000D02*
X148126D01*
X158126Y115000D01*
X200000D01*
X135000Y7650D02*
X158460D01*
X121333D02*
X135000D01*
X158460D02*
X160000Y6110D01*
X105000Y-278214D02*
Y-1481D01*
X78519Y25000D02*
X105000Y-1481D01*
X106785Y-280000D02*
X160000D01*
X105000Y-278214D02*
X106785Y-280000D01*
X115000Y-253214D02*
Y-2562D01*
X77064Y35373D02*
X115000Y-2562D01*
X116785Y-255000D02*
X170000D01*
X115000Y-253214D02*
X116785Y-255000D01*
X127103Y-229627D02*
X129627D01*
X125000Y-227524D02*
Y-5064D01*
X129627Y-229627D02*
X130000Y-230000D01*
X125000Y-227524D02*
X127103Y-229627D01*
X79118Y40818D02*
X125000Y-5064D01*
X50000Y25000D02*
X78519D01*
X-20000Y-65000D02*
X13430D01*
X15000Y-66570D01*
X-30000Y-75000D02*
X-20000Y-65000D01*
X-105300Y-75000D02*
X-30000D01*
X-105300D02*
X-103974Y-76326D01*
X52899Y140000D02*
X77899Y165000D01*
X180000D01*
Y195000D02*
X196400D01*
X15000Y210000D02*
X25000D01*
X11110Y213890D02*
X15000Y210000D01*
X0Y213890D02*
X11110D01*
X86810Y99157D02*
X92652Y105000D01*
X86810Y98686D02*
Y99157D01*
X120535Y8448D02*
X121333Y7650D01*
X120007Y8448D02*
X120535D01*
X124170Y31398D02*
X124543Y31024D01*
X119074Y31398D02*
X124170D01*
X116072Y34399D02*
X119074Y31398D01*
X116072Y34399D02*
Y43520D01*
X46854Y35373D02*
X77064D01*
X102091Y50048D02*
X111024Y41115D01*
Y26786D02*
Y41115D01*
X80524Y54476D02*
X85524D01*
X72538Y65524D02*
X75774Y62288D01*
X24476Y65524D02*
X72538D01*
X75774Y59226D02*
X80524Y54476D01*
X75774Y59226D02*
Y62288D01*
X85524Y54476D02*
X105000Y35000D01*
Y25000D02*
Y35000D01*
X20000Y70000D02*
X24476Y65524D01*
X73116Y72810D02*
X76700Y69226D01*
X40000Y72810D02*
X73116D01*
X94226Y52913D02*
Y65774D01*
Y52913D02*
X97091Y50048D01*
X102091D01*
X112809Y25000D02*
X115000D01*
X111024Y26786D02*
X112809Y25000D01*
X76700Y69226D02*
X90774D01*
X94226Y65774D01*
X50000Y80064D02*
X50210Y80274D01*
X87587D01*
X110000Y57861D01*
Y49592D02*
Y57861D01*
X50000Y80064D02*
X50528D01*
X-115000Y260000D02*
X-104226Y270774D01*
X17210D01*
X-105000Y260000D02*
X-65000D01*
X115000Y215000D02*
X149700D01*
Y245000D01*
Y190589D02*
Y215000D01*
X125000Y165889D02*
X149700Y190589D01*
X104133Y120867D02*
X125000D01*
X100000Y125000D02*
X104133Y120867D01*
X100000Y125000D02*
Y145000D01*
X-30000Y55000D02*
X0D01*
X-91364Y-8636D02*
X79883D01*
X-40000Y0D02*
X68519D01*
X74626Y6108D01*
Y9627D01*
X-53519Y10000D02*
X65000D01*
X74626Y9627D02*
X75000Y10000D01*
X-68519Y25000D02*
X-53519Y10000D01*
X-115000Y15000D02*
X-91364Y-8636D01*
X79883D02*
X86024Y-2495D01*
X-135000Y15000D02*
X-115000D01*
X-134891Y25000D02*
X-68519D01*
X-144308Y15583D02*
X-134891Y25000D01*
X-144736Y15583D02*
X-144308D01*
X-155000Y13214D02*
X-153215Y15000D01*
X-155000Y0D02*
Y13214D01*
X-153215Y15000D02*
X-145001D01*
X-160000Y155000D02*
X-149700D01*
X-164627Y150373D02*
X-160000Y155000D01*
X-40000Y235000D02*
X25000D01*
X-65000Y260000D02*
X-40000Y235000D01*
X-165000Y140000D02*
X-164627Y140373D01*
Y150373D01*
X31064Y181064D02*
X33496Y183496D01*
X14960Y158476D02*
X31064Y174580D01*
X33496Y183496D02*
X127015D01*
X-8008Y158476D02*
X14960D01*
X31064Y174580D02*
Y181064D01*
X-140000Y0D02*
Y9472D01*
X-135000Y14472D01*
Y15000D01*
X110000Y49592D02*
X116072Y43520D01*
X47505Y208976D02*
X124543D01*
X32207Y224274D02*
X47505Y208976D01*
X124627Y40374D02*
X125000Y40000D01*
X124627Y40374D02*
Y45780D01*
X120203Y50204D02*
X124627Y45780D01*
X85373Y8146D02*
X86024Y7495D01*
X85000Y10000D02*
X85373Y9627D01*
Y8146D02*
Y9627D01*
X86024Y-2495D02*
Y7495D01*
X-29627Y26261D02*
Y29627D01*
Y26261D02*
X-20413Y17048D01*
X-30000Y30000D02*
X-29627Y29627D01*
X-30000Y40000D02*
X-23088Y33089D01*
Y29610D02*
Y33089D01*
Y29610D02*
X-16550Y23072D01*
X125000Y66168D02*
Y70000D01*
X100000Y95000D02*
X125000Y70000D01*
X120203Y50204D02*
Y54797D01*
X17102Y96414D02*
X78586D01*
X120203Y54797D01*
X-16094Y36760D02*
X16760D01*
X-19334Y40000D02*
X-16094Y36760D01*
X74182Y40818D02*
X79118D01*
X47864Y46024D02*
X52495D01*
X47311Y45471D02*
X47864Y46024D01*
X52495D02*
X52749Y45770D01*
X69230D02*
X74182Y40818D01*
X52749Y45770D02*
X69230D01*
X-16550Y23072D02*
X35000D01*
X-20413Y17048D02*
X69521D01*
X-40000Y27048D02*
Y45000D01*
X-30000Y55000D01*
X-50000Y27048D02*
Y45000D01*
X-33240Y61760D02*
X-8240D01*
X-50000Y45000D02*
X-33240Y61760D01*
X-65000Y50000D02*
X-25000Y90000D01*
X-65000Y30000D02*
Y50000D01*
X-75000Y55000D02*
X-35000Y95000D01*
X-75000Y35000D02*
Y55000D01*
X25000Y130000D02*
X73458D01*
X84229Y119229D01*
X-125000Y110000D02*
X-35000D01*
X-20001Y124999D01*
X-17024Y130540D02*
X17102Y96414D01*
X-17024Y130540D02*
Y149460D01*
X-8008Y158476D01*
X127015Y183496D02*
X136024Y192505D01*
Y197495D01*
X124543Y208976D02*
X136024Y197495D01*
X-40298Y224274D02*
X32207D01*
X-65000Y248976D02*
X-40298Y224274D01*
X-20125Y264750D02*
X-20000D01*
X-29875Y255000D02*
X-20125Y264750D01*
X-30000Y255000D02*
X-29875D01*
X0Y140000D02*
X52899D01*
X120500Y195000D02*
X130000D01*
X113460Y202040D02*
X120500Y195000D01*
X115000Y245000D02*
Y280000D01*
Y245000D02*
X135000D01*
X115000Y230000D02*
Y245000D01*
X25000Y210000D02*
X35000D01*
X17210Y270774D02*
X35000Y252984D01*
Y230000D02*
Y252984D01*
D46*
X-120000Y-140000D02*
Y-75000D01*
X-185000Y-72768D02*
X-182768Y-75000D01*
X-185000Y-72768D02*
Y5000D01*
X-182768Y-75000D02*
X-120000D01*
X-185000Y5000D02*
X-180000Y10000D01*
D47*
X-52398Y-37646D02*
X-23837D01*
X-18521Y-32330D01*
X10040D01*
X15000Y-27370D01*
Y-24270D01*
X-75344Y-14700D02*
X-52398Y-37646D01*
X-140000Y-14700D02*
X-75344D01*
X-135000Y142920D02*
Y155000D01*
Y120000D02*
Y142920D01*
X135000Y22350D02*
Y75000D01*
X-30000Y294293D02*
X15707D01*
X-115707D02*
X-30000D01*
Y290000D02*
Y294293D01*
X15707D02*
X65000Y245000D01*
X-170000Y85000D02*
X-135000Y120000D01*
X-170000Y-11724D02*
Y85000D01*
X-153250Y142920D02*
X-137080D01*
X-135000Y155000D02*
Y175000D01*
X210000Y200000D02*
Y280000D01*
X103276Y290000D02*
X200000D01*
X210000Y280000D01*
X100300D02*
Y287024D01*
X103276Y290000D01*
X210000Y98890D02*
Y165000D01*
Y165000D02*
Y200000D01*
X-135000Y260000D02*
Y275000D01*
X-40000Y245000D02*
X-37040Y247960D01*
X-17040D01*
X-255000Y145000D02*
X-174002D01*
X20000Y175000D02*
X25000Y180000D01*
X0Y170000D02*
X5000Y175000D01*
X20000D01*
X0Y170000D02*
Y194938D01*
X25000Y194700D02*
X25300Y195000D01*
X25000Y180000D02*
Y194700D01*
X-48600Y150000D02*
Y194938D01*
X-67200Y195000D02*
X-48600D01*
Y194938D02*
X-2282D01*
X-85000Y240000D02*
Y250000D01*
Y220000D02*
Y240000D01*
X-110000Y195000D02*
Y240000D01*
X-85000Y220000D02*
X-80000Y215000D01*
X-45000D01*
X-168050Y195000D02*
X-135000D01*
X-171026Y192024D02*
X-168050Y195000D01*
X-171026Y147976D02*
Y192024D01*
X-135000Y195000D02*
Y210000D01*
Y175000D02*
Y195000D01*
X-174002Y145000D02*
X-171026Y147976D01*
X-155000Y-14700D02*
X-140000D01*
X-167024D02*
X-155000D01*
X-170000Y-11724D02*
X-167024Y-14700D01*
X-135000Y275000D02*
X-115707Y294293D01*
X100300Y265300D02*
Y280000D01*
X96894Y245326D02*
Y261894D01*
X100300Y265300D01*
X65000Y245000D02*
X97220D01*
X96894Y245326D02*
X97220Y245000D01*
X-17040Y247960D02*
X-10000Y255000D01*
X-110000Y240000D02*
X-85000D01*
X135000Y75000D02*
Y90000D01*
X143890Y98890D01*
X160000D01*
X185000D01*
X210000D01*
X25300Y195000D02*
X35000D01*
X-115000Y150000D02*
X-91400D01*
D48*
X40000Y202040D02*
X113460D01*
X-20000Y40000D02*
X-19334D01*
X45471Y45471D02*
X47311D01*
X45000Y45000D02*
X45471Y45471D01*
D49*
X199200Y-279000D02*
D03*
X-250000Y-279000D02*
D03*
D50*
X199200Y-253600D02*
D03*
Y-228200D02*
D03*
Y-202800D02*
D03*
Y-177400D02*
D03*
Y-152000D02*
D03*
Y-126600D02*
D03*
Y-101200D02*
D03*
Y-75800D02*
D03*
Y-50400D02*
D03*
Y-25000D02*
D03*
Y400D02*
D03*
X-250000Y400D02*
D03*
Y-25000D02*
D03*
Y-50400D02*
D03*
Y-75800D02*
D03*
Y-101200D02*
D03*
Y-126600D02*
D03*
Y-152000D02*
D03*
Y-177400D02*
D03*
Y-202800D02*
D03*
Y-228200D02*
D03*
Y-253600D02*
D03*
D51*
X-215000Y185000D02*
D03*
D52*
Y245000D02*
D03*
D53*
X-262000Y215000D02*
D03*
D54*
X85000Y60000D02*
D03*
X99750D02*
D03*
X85000Y74750D02*
D03*
X70250Y60000D02*
D03*
X85000Y45250D02*
D03*
D55*
X179100Y-142500D02*
D03*
X166400Y-167900D02*
D03*
X179100Y-193300D02*
D03*
X166400Y-218700D02*
D03*
X179100Y-244100D02*
D03*
X166400Y-269500D02*
D03*
X153700Y-193300D02*
D03*
X141000Y-218700D02*
D03*
X153700Y-244100D02*
D03*
X141000Y-269500D02*
D03*
X128300Y-244100D02*
D03*
X115600Y-269500D02*
D03*
X90200Y289300D02*
D03*
Y-15500D02*
D03*
Y-66300D02*
D03*
Y-117100D02*
D03*
Y-167900D02*
D03*
Y-218700D02*
D03*
Y-269500D02*
D03*
X64800Y289300D02*
D03*
X77500Y263900D02*
D03*
X64800Y-15500D02*
D03*
X77500Y-40900D02*
D03*
X64800Y-66300D02*
D03*
X77500Y-91700D02*
D03*
X64800Y-117100D02*
D03*
X77500Y-244100D02*
D03*
X64800Y-269500D02*
D03*
X39400Y-15500D02*
D03*
X52100Y-40900D02*
D03*
X39400Y-66300D02*
D03*
X52100Y-91700D02*
D03*
X39400Y-269500D02*
D03*
X26700Y-40900D02*
D03*
Y-91700D02*
D03*
X-11400Y187700D02*
D03*
X1300Y-40900D02*
D03*
X-36800Y187700D02*
D03*
X-24100Y162300D02*
D03*
X-36800Y136900D02*
D03*
Y-66300D02*
D03*
X-24100Y-91700D02*
D03*
X-62200Y136900D02*
D03*
Y86100D02*
D03*
Y-66300D02*
D03*
X-49500Y-91700D02*
D03*
X-62200Y-269500D02*
D03*
X-87600Y187700D02*
D03*
X-74900Y162300D02*
D03*
X-87600Y136900D02*
D03*
Y86100D02*
D03*
Y-66300D02*
D03*
X-74900Y-91700D02*
D03*
X-87600Y-117100D02*
D03*
Y-269500D02*
D03*
X-100300Y213100D02*
D03*
Y162300D02*
D03*
X-113000Y136900D02*
D03*
Y86100D02*
D03*
X-100300Y-91700D02*
D03*
X-113000Y-117100D02*
D03*
X-100300Y-142500D02*
D03*
Y-193300D02*
D03*
X-113000Y-218700D02*
D03*
X-100300Y-244100D02*
D03*
X-113000Y-269500D02*
D03*
X-125700Y213100D02*
D03*
Y162300D02*
D03*
X-138400Y86100D02*
D03*
Y-117100D02*
D03*
Y-167900D02*
D03*
Y-218700D02*
D03*
Y-269500D02*
D03*
X-163800Y289300D02*
D03*
X-151100Y263900D02*
D03*
X-163800Y238500D02*
D03*
X-151100Y213100D02*
D03*
X-163800Y187700D02*
D03*
Y-167900D02*
D03*
Y-218700D02*
D03*
X-151100Y-244100D02*
D03*
X-163800Y-269500D02*
D03*
X-189200Y289300D02*
D03*
X-176500Y263900D02*
D03*
Y213100D02*
D03*
X-189200Y86100D02*
D03*
Y-167900D02*
D03*
Y-218700D02*
D03*
X-176500Y-244100D02*
D03*
X-189200Y-269500D02*
D03*
X-214600Y289300D02*
D03*
X-201900Y263900D02*
D03*
Y213100D02*
D03*
Y162300D02*
D03*
X-214600Y86100D02*
D03*
X-201900Y9900D02*
D03*
X-214600Y-15500D02*
D03*
X-201900Y-40900D02*
D03*
X-214600Y-66300D02*
D03*
X-201900Y-142500D02*
D03*
X-214600Y-218700D02*
D03*
Y-269500D02*
D03*
X-240000Y289300D02*
D03*
X-227300Y263900D02*
D03*
Y213100D02*
D03*
Y162300D02*
D03*
X-240000Y136900D02*
D03*
Y86100D02*
D03*
X-227300Y9900D02*
D03*
Y-40900D02*
D03*
Y-91700D02*
D03*
X-240000Y-117100D02*
D03*
X-227300Y-142500D02*
D03*
X-240000Y-167900D02*
D03*
Y-218700D02*
D03*
X-265400Y289300D02*
D03*
X-252700Y263900D02*
D03*
Y162300D02*
D03*
Y111500D02*
D03*
Y60700D02*
D03*
X-265400Y-66300D02*
D03*
Y-117100D02*
D03*
Y-167900D02*
D03*
Y-218700D02*
D03*
Y-269500D02*
D03*
D56*
X125000Y165000D02*
D03*
Y120867D02*
D03*
D57*
X-48600Y150000D02*
D03*
X-91400D02*
D03*
X-67200Y195000D02*
D03*
X-110000D02*
D03*
D58*
Y240000D02*
D03*
X-140000D02*
D03*
X180000Y165000D02*
D03*
X210000D02*
D03*
D59*
X149700Y245000D02*
D03*
X135000D02*
D03*
X-135000Y155000D02*
D03*
X-149700D02*
D03*
X-120000Y-75000D02*
D03*
X-105300D02*
D03*
X100300Y280000D02*
D03*
X115000D02*
D03*
D60*
X191400Y195000D02*
D03*
X208600D02*
D03*
D61*
X0Y140000D02*
D03*
Y170000D02*
D03*
D62*
X135000Y7650D02*
D03*
Y22350D02*
D03*
X-155000Y0D02*
D03*
Y-14700D02*
D03*
X-140000Y0D02*
D03*
Y-14700D02*
D03*
X25000Y210000D02*
D03*
Y195300D02*
D03*
D63*
X15000Y-24270D02*
D03*
Y-66570D02*
D03*
D64*
X-152780Y175000D02*
D03*
X-135000D02*
D03*
X97220Y245000D02*
D03*
X115000D02*
D03*
M02*
