M48
;Layer_Color=9474304
;FILE_FORMAT=4:4
METRIC,LZ
;TYPE=PLATED
T1F00S00C0.2000
T2F00S00C0.2794
T3F00S00C0.3000
T4F00S00C0.5000
T5F00S00C0.9906
%
T01
X0007025Y0006
X00085
X0009975
X00085Y0007475
Y0004525
T02
X-000622Y-002695
X000394
X000648
X000902
X001156
X00141
X001664
X001791Y-002441
X001537
X001283
X00141Y-002187
X001664
X001791Y-001933
X001537
X001664Y-001679
X001791Y-001425
X000902Y-001171
X000648
X000775Y-000917
X000521
X000267
X000394Y-000663
X000648
X000902
X000775Y-000409
X000521
X000267
X000013
X000394Y-000155
X000648
X000902
Y-001679
Y-002187
X000775Y-002441
X-000241Y-000917
X-000495
X-000749
X-000622Y-000663
X-000368
X-000876
X-001003Y-000917
X-000876Y-001171
X-00113
X-001384
Y-001679
X-001638
X-001892
X-002019Y-001425
X-002273
X-0024Y-001171
X-002654
Y-000663
X-002146
X-002019Y-000409
X-002273
X-002146Y-000155
X-002019Y000099
X-002273
Y-000917
X-0024Y-001679
X-002654
Y-002187
X-0024
X-002146
X-001892
X-001638
X-001384
X-00113
X-001003Y-001933
Y-001425
Y-002441
X-000876Y-002695
X-00113
X-001384
X-001638
X-001892
X-002146
X-002654
X-001765Y-002441
X-001511
X-001384Y000861
X-00113
X-000876
Y001369
X-00113
X-001003Y001623
X-001257
Y002131
X-001003
X-000876Y001877
X-001638
X-001511Y002131
X-001765
X-002019
X-002273
Y002639
X-002019
X-001765
X-001511
X-001638Y002893
X-001892
X-002146
X-0024
X-002654
X-002527Y002639
Y001623
X-002273
X-002019
X-0024Y001369
X-002527Y001115
X-0024Y000861
X-002146
X-001892
X-002527Y000607
X-001638Y002385
X-000749Y001623
X-000622Y001369
X-000368
X-000241Y001623
X-000114Y001877
X-000368
X-000622Y000861
X000775Y002639
X000902Y002893
X000648
T03
X0016Y-0028
X0017Y-00255
X0013Y-0023
X00120007Y00008448
X00085Y0001
X00075
X00065
X-0004Y0
X-00135Y00015
X-00145
X-0018Y0001
X-0012Y-0014
X-00125Y0011
X-00115Y0015
X-0015325Y0014292
X-00165Y0014
X-00255Y00145
X-00135Y0021
Y0026
X-00115
X-00105
X-00085Y0025
X-00065Y00248976
X-0004Y00245
X-0003Y00255
X-0002Y0026475
X-0001Y00255
X-0003Y0029
X-00045Y00215
X00035Y0021
X0004Y0020204
X00035Y00195
Y0023
X00025Y00235
X00065Y00245
X00115Y0023
Y00215
X0013Y00195
X0018
X002Y00115
X00135Y00075
X00125Y00066168
Y0004
X00124543Y00031024
X00115Y00025
X00105
X00069521Y00017048
X0005Y00025
X00045Y00035
Y00045
X00035Y00023072
X0001676Y0003676
X0Y00055
X-0000824Y0006176
X-0002Y0004
X-0003
Y0003
X-0004Y00027048
X-0005
X-00065Y0003
X-00075Y00035
X-00035Y00095
X-00025Y0009
X-00020001Y00124999
X00025Y0013
X0002Y0007
X0004Y0007281
X0005Y00080064
X0008681Y00098686
X001Y00095
X00084229Y00119229
X001Y00145
X00155Y0005
T04
X-001373Y002835
X-000973
T05
X001992Y-00279
Y-002536
Y-002282
Y-002028
Y-001774
Y-00152
Y-001266
Y-001012
Y-000758
Y-000504
Y-00025
Y000004
X-0025Y000004
Y-00025
Y-000504
Y-000758
Y-001012
Y-001266
Y-00152
Y-001774
Y-002028
Y-002282
Y-002536
Y-00279
M30
